
<svg width="50px" height="60px" viewBox="0 0 50 60" version="1.1" xmlns="http://www.w3.org/2000/svg" xmlns:xlink="http://www.w3.org/1999/xlink">
    <g id="Page-1" stroke="none" stroke-width="1" fill="none" fill-rule="evenodd">
        <g id="02a_solution_page" transform="translate(-766.000000, -1698.000000)">
            <g id="Group-10" transform="translate(761.000000, 1698.000000)">
                <rect id="Rectangle-Copy-4" fill-rule="nonzero" x="0" y="0" width="60" height="60"></rect>
                <g id="icon-healthy-practices" transform="translate(6.000000, 1.000000)" stroke="#007278" stroke-linecap="round" stroke-linejoin="round" stroke-width="2">
                    <path d="M24.0005,55.25 C27.7505,55.25 25.2505,57.75 32.7505,57.75 C40.2505,57.75 47.7505,42.75 47.7505,32.75 C47.7505,22.75 41.5005,15.25 34.0005,15.25 C26.5005,15.25 26.5005,17.75 24.0005,17.75 C21.5005,17.75 21.5005,15.25 14.0005,15.25 C6.5005,15.25 0.2505,22.75 0.2505,32.75 C0.2505,42.75 7.7505,57.75 15.2505,57.75 C22.7505,57.75 20.2505,55.25 24.0005,55.25 Z" id="Stroke-1"></path>
                    <path d="M24.0005,17.75 L24.0005,12.75 C23.993,9.9925 21.758,7.7575 19.0005,7.75 L14.0005,7.75" id="Stroke-3"></path>
                    <path d="M30.5705,11.295 C35.538,10.5975 39.443,6.6925 40.143,1.725 C40.203,1.3225 40.0655,0.9175 39.778,0.6275 C39.4905,0.34 39.083,0.205 38.6805,0.2625 C33.713,0.9625 29.8105,4.8675 29.1105,9.835 C29.053,10.2375 29.188,10.645 29.4755,10.9325 C29.763,11.22 30.168,11.355 30.5705,11.295 Z" id="Stroke-5"></path>
                </g>
            </g>
        </g>
    </g>
</svg>