<?xml version="1.0" encoding="UTF-8"?>
<svg width="20px" height="20px" viewBox="0 0 20 20" version="1.1" xmlns="http://www.w3.org/2000/svg" xmlns:xlink="http://www.w3.org/1999/xlink">
    <!-- Generator: Sketch 55.2 (78181) - https://sketchapp.com -->
    <title>icon-linkedin</title>
    <desc>Created with Sketch.</desc>
    <g id="Symbols" stroke="none" stroke-width="1" fill="none" fill-rule="evenodd">
        <g id="Footer" transform="translate(-1187.000000, -958.000000)" fill="#888888">
            <g id="icon-linkedin" transform="translate(1187.000000, 958.000000)">
                <path d="M9.20152843e-13,1.43093303 C9.20152843e-13,0.641064283 0.661033177,4.65405492e-13 1.47599115,4.65405492e-13 L18.4941691,4.65405492e-13 C19.3093906,4.65405492e-13 19.9701602,0.641064283 19.9701602,1.43093303 L19.9701602,18.5447558 C19.9701602,19.3348865 19.3093906,19.9754268 18.4941691,19.9754268 L1.47599115,19.9754268 C0.661033177,19.9754268 9.20152843e-13,19.3348865 9.20152843e-13,18.5450178 L9.20152843e-13,1.43067105 L9.20152843e-13,1.43093303 Z M6.05367226,16.7213772 L6.05367226,7.70141673 L3.03737892,7.70141673 L3.03737892,16.7213772 L6.05393583,16.7213772 L6.05367226,16.7213772 Z M4.54605273,6.47011222 C5.59769642,6.47011222 6.25240392,5.77743794 6.25240392,4.91185707 C6.23263618,4.02662772 5.59769642,3.35333994 4.56608404,3.35333994 C3.53368095,3.35333994 2.85946928,4.02662772 2.85946928,4.91185707 C2.85946928,5.77743794 3.51391321,6.47011222 4.52628499,6.47011222 L4.54578916,6.47011222 L4.54605273,6.47011222 Z M7.72312367,16.7213772 L10.7391534,16.7213772 L10.7391534,11.6848178 C10.7391534,11.4155027 10.7589212,11.1456636 10.8385193,10.9533705 C11.0564915,10.4144783 11.5527936,9.85672357 12.3862014,9.85672357 C13.4773806,9.85672357 13.9141158,10.6837934 13.9141158,11.8964974 L13.9141158,16.7213772 L16.9301456,16.7213772 L16.9301456,11.5496363 C16.9301456,8.77920114 15.4422938,7.48999912 13.4578764,7.48999912 C11.8308597,7.48999912 11.1163219,8.39382903 10.7193857,9.00948128 L10.739417,9.00948128 L10.739417,7.70167871 L7.72338724,7.70167871 C7.76265915,8.54787308 7.72312367,16.7216392 7.72312367,16.7216392 L7.72312367,16.7213772 Z" id="Combined-Shape"></path>
            </g>
        </g>
    </g>
</svg>