<?xml version="1.0" encoding="UTF-8"?>
<svg width="1344px" height="788px" viewBox="0 0 1344 788" version="1.1" xmlns="http://www.w3.org/2000/svg" xmlns:xlink="http://www.w3.org/1999/xlink">
    <!-- Generator: Sketch 47.1 (45422) - http://www.bohemiancoding.com/sketch -->
    <title>section-alignment</title>
    <desc>Created with Sketch.</desc>
    <defs></defs>
    <g id="Page-1" stroke="none" stroke-width="1" fill="none" fill-rule="evenodd">
        <g id="section-alignment">
            <polygon id="Path" fill="#FFFFFF" points="0.791992188 175.794922 147.669107 175.794922 147.669107 0.498043382"></polygon>
            <polygon id="Path-Copy" fill="#FFFFFF" transform="translate(221.230549, 88.146483) scale(-1, 1) translate(-221.230549, -88.146483) " points="147.791992 175.794922 294.669107 175.794922 294.669107 0.498043382"></polygon>
            <polygon id="Path-Copy-4" fill="#F8F8F8" transform="translate(221.230549, 88.146483) scale(1, -1) translate(-221.230549, -88.146483) " points="147.791992 175.794922 294.669107 175.794922 294.669107 0.498043382"></polygon>
            <polygon id="Path-Copy-3" fill="#F8F8F8" transform="translate(74.230549, 263.146483) scale(1, -1) translate(-74.230549, -263.146483) " points="0.791992188 350.794922 147.669107 350.794922 147.669107 175.498043"></polygon>
            <polygon id="Path-Copy-2" fill="#F3F3F3" transform="translate(221.230549, 263.146483) scale(-1, -1) translate(-221.230549, -263.146483) " points="147.791992 350.794922 294.669107 350.794922 294.669107 175.498043"></polygon>
            <polygon id="Path-Copy-7" fill="#E7E8E9" transform="translate(74.230549, 88.146483) scale(-1, -1) translate(-74.230549, -88.146483) " points="0.791992188 175.794922 147.669107 175.794922 147.669107 0.498043382"></polygon>
            <polygon id="Path-Copy-6" fill="#FFFFFF" transform="translate(74.230549, 263.146483) scale(-1, 1) translate(-74.230549, -263.146483) " points="0.791992188 350.794922 147.669107 350.794922 147.669107 175.498043"></polygon>
            <polygon id="Path-Copy-5" fill="#FFFFFF" points="147.791992 350.794922 294.669107 350.794922 294.669107 175.498043"></polygon>
            <polygon id="Path" fill="#FFFFFF" points="0.791992188 526.794922 147.669107 526.794922 147.669107 351.498043"></polygon>
            <polygon id="Path-Copy" fill="#FFFFFF" transform="translate(221.230549, 439.146483) scale(-1, 1) translate(-221.230549, -439.146483) " points="147.791992 526.794922 294.669107 526.794922 294.669107 351.498043"></polygon>
            <polygon id="Path-Copy-4" fill="#FFFFFF" transform="translate(221.230549, 439.146483) scale(1, -1) translate(-221.230549, -439.146483) " points="147.791992 526.794922 294.669107 526.794922 294.669107 351.498043"></polygon>
            <polygon id="Path-Copy-3" fill="#F8F8F8" transform="translate(74.230549, 614.146483) scale(1, -1) translate(-74.230549, -614.146483) " points="0.791992188 701.794922 147.669107 701.794922 147.669107 526.498043"></polygon>
            <polygon id="Path-Copy-2" fill="#F3F3F3" transform="translate(221.230549, 614.146483) scale(-1, -1) translate(-221.230549, -614.146483) " points="147.791992 701.794922 294.669107 701.794922 294.669107 526.498043"></polygon>
            <polygon id="Path-Copy-7" fill="#F8F8F8" transform="translate(74.230549, 439.146483) scale(-1, -1) translate(-74.230549, -439.146483) " points="0.791992188 526.794922 147.669107 526.794922 147.669107 351.498043"></polygon>
            <polygon id="Path-Copy-6" fill="#FFFFFF" transform="translate(74.230549, 614.146483) scale(-1, 1) translate(-74.230549, -614.146483) " points="0.791992188 701.794922 147.669107 701.794922 147.669107 526.498043"></polygon>
            <polygon id="Path-Copy-5" fill="#FFFFFF" points="147.791992 701.794922 294.669107 701.794922 294.669107 526.498043"></polygon>
            <polygon id="Path" fill="#FFFFFF" points="295.791992 175.794922 442.669107 175.794922 442.669107 0.498043382"></polygon>
            <polygon id="Path-Copy" fill="#F8F8F8" transform="translate(516.230549, 88.146483) scale(-1, 1) translate(-516.230549, -88.146483) " points="442.791992 175.794922 589.669107 175.794922 589.669107 0.498043382"></polygon>
            <polygon id="Path-Copy-4" fill="#FFFFFF" transform="translate(516.230549, 88.146483) scale(1, -1) translate(-516.230549, -88.146483) " points="442.791992 175.794922 589.669107 175.794922 589.669107 0.498043382"></polygon>
            <polygon id="Path-Copy-3" fill="#FFFFFF" transform="translate(369.230549, 263.146483) scale(1, -1) translate(-369.230549, -263.146483) " points="295.791992 350.794922 442.669107 350.794922 442.669107 175.498043"></polygon>
            <polygon id="Path-Copy-2" fill="#FFFFFF" transform="translate(516.230549, 263.146483) scale(-1, -1) translate(-516.230549, -263.146483) " points="442.791992 350.794922 589.669107 350.794922 589.669107 175.498043"></polygon>
            <polygon id="Path-Copy-7" fill="#FFFFFF" transform="translate(369.230549, 88.146483) scale(-1, -1) translate(-369.230549, -88.146483) " points="295.791992 175.794922 442.669107 175.794922 442.669107 0.498043382"></polygon>
            <polygon id="Path-Copy-6" fill="#FFFFFF" transform="translate(369.230549, 263.146483) scale(-1, 1) translate(-369.230549, -263.146483) " points="295.791992 350.794922 442.669107 350.794922 442.669107 175.498043"></polygon>
            <polygon id="Path-Copy-5" fill="#FFFFFF" points="442.791992 350.794922 589.669107 350.794922 589.669107 175.498043"></polygon>
            <polygon id="Path" fill="#F8F8F8" points="590.791992 175.794922 737.669107 175.794922 737.669107 0.498043382"></polygon>
            <polygon id="Path-Copy" fill="#F2F3F3" transform="translate(811.230549, 88.146483) scale(-1, 1) translate(-811.230549, -88.146483) " points="737.791992 175.794922 884.669107 175.794922 884.669107 0.498043382"></polygon>
            <polygon id="Path-Copy-4" fill="#FFFFFF" transform="translate(811.230549, 88.146483) scale(1, -1) translate(-811.230549, -88.146483) " points="737.791992 175.794922 884.669107 175.794922 884.669107 0.498043382"></polygon>
            <polygon id="Path-Copy-3" fill="#FFFFFF" transform="translate(664.230549, 263.146483) scale(1, -1) translate(-664.230549, -263.146483) " points="590.791992 350.794922 737.669107 350.794922 737.669107 175.498043"></polygon>
            <polygon id="Path-Copy-2" fill="#FFFFFF" transform="translate(811.230549, 263.146483) scale(-1, -1) translate(-811.230549, -263.146483) " points="737.791992 350.794922 884.669107 350.794922 884.669107 175.498043"></polygon>
            <polygon id="Path-Copy-7" fill="#FFFFFF" transform="translate(664.230549, 88.146483) scale(-1, -1) translate(-664.230549, -88.146483) " points="590.791992 175.794922 737.669107 175.794922 737.669107 0.498043382"></polygon>
            <polygon id="Path-Copy-6" fill="#FFFFFF" transform="translate(664.230549, 263.146483) scale(-1, 1) translate(-664.230549, -263.146483) " points="590.791992 350.794922 737.669107 350.794922 737.669107 175.498043"></polygon>
            <polygon id="Path-Copy-5" fill="#FFFFFF" points="737.791992 350.794922 884.669107 350.794922 884.669107 175.498043"></polygon>
            <polygon id="Path" fill="#FFFFFF" points="885.791992 175.794922 1032.66911 175.794922 1032.66911 0.498043382"></polygon>
            <polygon id="Path-Copy" fill="#FFFFFF" transform="translate(1106.230549, 88.146483) scale(-1, 1) translate(-1106.230549, -88.146483) " points="1032.79199 175.794922 1179.66911 175.794922 1179.66911 0.498043382"></polygon>
            <polygon id="Path-Copy-4" fill="#FFFFFF" transform="translate(1106.230549, 88.146483) scale(1, -1) translate(-1106.230549, -88.146483) " points="1032.79199 175.794922 1179.66911 175.794922 1179.66911 0.498043382"></polygon>
            <polygon id="Path-Copy-3" fill="#F2F3F3" transform="translate(959.230549, 263.146483) scale(1, -1) translate(-959.230549, -263.146483) " points="885.791992 350.794922 1032.66911 350.794922 1032.66911 175.498043"></polygon>
            <polygon id="Path-Copy-2" fill="#FFFFFF" transform="translate(1106.230549, 263.146483) scale(-1, -1) translate(-1106.230549, -263.146483) " points="1032.79199 350.794922 1179.66911 350.794922 1179.66911 175.498043"></polygon>
            <polygon id="Path-Copy-7" fill="#F8F8F8" transform="translate(959.230549, 88.146483) scale(-1, -1) translate(-959.230549, -88.146483) " points="885.791992 175.794922 1032.66911 175.794922 1032.66911 0.498043382"></polygon>
            <polygon id="Path-Copy-6" fill="#FFFFFF" transform="translate(959.230549, 263.146483) scale(-1, 1) translate(-959.230549, -263.146483) " points="885.791992 350.794922 1032.66911 350.794922 1032.66911 175.498043"></polygon>
            <polygon id="Path-Copy-5" fill="#FFFFFF" points="1032.79199 350.794922 1179.66911 350.794922 1179.66911 175.498043"></polygon>
            <polygon id="Path" fill="#FFFFFF" points="1180.79199 175.794922 1327.66911 175.794922 1327.66911 0.498043382"></polygon>
            <polygon id="Path-Copy" fill="#FFFFFF" transform="translate(1401.230549, 88.146483) scale(-1, 1) translate(-1401.230549, -88.146483) " points="1327.79199 175.794922 1474.66911 175.794922 1474.66911 0.498043382"></polygon>
            <polygon id="Path-Copy-4" fill="#FFFFFF" transform="translate(1401.230549, 88.146483) scale(1, -1) translate(-1401.230549, -88.146483) " points="1327.79199 175.794922 1474.66911 175.794922 1474.66911 0.498043382"></polygon>
            <polygon id="Path-Copy-3" fill="#FFFFFF" transform="translate(1254.230549, 263.146483) scale(1, -1) translate(-1254.230549, -263.146483) " points="1180.79199 350.794922 1327.66911 350.794922 1327.66911 175.498043"></polygon>
            <polygon id="Path-Copy-2" fill="#FFFFFF" transform="translate(1401.230549, 263.146483) scale(-1, -1) translate(-1401.230549, -263.146483) " points="1327.79199 350.794922 1474.66911 350.794922 1474.66911 175.498043"></polygon>
            <polygon id="Path-Copy-7" fill="#F8F8F8" transform="translate(1254.230549, 88.146483) scale(-1, -1) translate(-1254.230549, -88.146483) " points="1180.79199 175.794922 1327.66911 175.794922 1327.66911 0.498043382"></polygon>
            <polygon id="Path-Copy-6" fill="#FFFFFF" transform="translate(1254.230549, 263.146483) scale(-1, 1) translate(-1254.230549, -263.146483) " points="1180.79199 350.794922 1327.66911 350.794922 1327.66911 175.498043"></polygon>
            <polygon id="Path-Copy-5" fill="#FFFFFF" points="1327.79199 350.794922 1474.66911 350.794922 1474.66911 175.498043"></polygon>
            <polygon id="Path" fill="#F8F8F8" points="295.791992 526.794922 442.669107 526.794922 442.669107 351.498043"></polygon>
            <polygon id="Path-Copy" fill="#FFFFFF" transform="translate(516.230549, 439.146483) scale(-1, 1) translate(-516.230549, -439.146483) " points="442.791992 526.794922 589.669107 526.794922 589.669107 351.498043"></polygon>
            <polygon id="Path-Copy-4" fill="#FFFFFF" transform="translate(516.230549, 439.146483) scale(1, -1) translate(-516.230549, -439.146483) " points="442.791992 526.794922 589.669107 526.794922 589.669107 351.498043"></polygon>
            <polygon id="Path-Copy-3" fill="#FFFFFF" transform="translate(369.230549, 614.146483) scale(1, -1) translate(-369.230549, -614.146483) " points="295.791992 701.794922 442.669107 701.794922 442.669107 526.498043"></polygon>
            <polygon id="Path-Copy-2" fill="#FFFFFF" transform="translate(516.230549, 614.146483) scale(-1, -1) translate(-516.230549, -614.146483) " points="442.791992 701.794922 589.669107 701.794922 589.669107 526.498043"></polygon>
            <polygon id="Path-Copy-7" fill="#FFFFFF" transform="translate(369.230549, 439.146483) scale(-1, -1) translate(-369.230549, -439.146483) " points="295.791992 526.794922 442.669107 526.794922 442.669107 351.498043"></polygon>
            <polygon id="Path-Copy-6" fill="#FFFFFF" transform="translate(369.230549, 614.146483) scale(-1, 1) translate(-369.230549, -614.146483) " points="295.791992 701.794922 442.669107 701.794922 442.669107 526.498043"></polygon>
            <polygon id="Path-Copy-5" fill="#F2F3F3" points="442.791992 701.794922 589.669107 701.794922 589.669107 526.498043"></polygon>
            <polygon id="Path" fill="#FFFFFF" points="590.791992 526.794922 737.669107 526.794922 737.669107 351.498043"></polygon>
            <polygon id="Path-Copy" fill="#FFFFFF" transform="translate(811.230549, 439.146483) scale(-1, 1) translate(-811.230549, -439.146483) " points="737.791992 526.794922 884.669107 526.794922 884.669107 351.498043"></polygon>
            <polygon id="Path-Copy-4" fill="#FFFFFF" transform="translate(811.230549, 439.146483) scale(1, -1) translate(-811.230549, -439.146483) " points="737.791992 526.794922 884.669107 526.794922 884.669107 351.498043"></polygon>
            <polygon id="Path-Copy-3" fill="#FFFFFF" transform="translate(664.230549, 614.146483) scale(1, -1) translate(-664.230549, -614.146483) " points="590.791992 701.794922 737.669107 701.794922 737.669107 526.498043"></polygon>
            <polygon id="Path-Copy-2" fill="#FFFFFF" transform="translate(811.230549, 614.146483) scale(-1, -1) translate(-811.230549, -614.146483) " points="737.791992 701.794922 884.669107 701.794922 884.669107 526.498043"></polygon>
            <polygon id="Path-Copy-7" fill="#FFFFFF" transform="translate(664.230549, 439.146483) scale(-1, -1) translate(-664.230549, -439.146483) " points="590.791992 526.794922 737.669107 526.794922 737.669107 351.498043"></polygon>
            <polygon id="Path-Copy-6" fill="#FFFFFF" transform="translate(664.230549, 614.146483) scale(-1, 1) translate(-664.230549, -614.146483) " points="590.791992 701.794922 737.669107 701.794922 737.669107 526.498043"></polygon>
            <polygon id="Path-Copy-5" fill="#F8F8F8" points="737.791992 701.794922 884.669107 701.794922 884.669107 526.498043"></polygon>
            <polygon id="Path" fill="#FFFFFF" points="885.791992 526.794922 1032.66911 526.794922 1032.66911 351.498043"></polygon>
            <polygon id="Path-Copy" fill="#FFFFFF" transform="translate(1106.230549, 439.146483) scale(-1, 1) translate(-1106.230549, -439.146483) " points="1032.79199 526.794922 1179.66911 526.794922 1179.66911 351.498043"></polygon>
            <polygon id="Path-Copy-4" fill="#F8F8F8" transform="translate(1106.230549, 439.146483) scale(1, -1) translate(-1106.230549, -439.146483) " points="1032.79199 526.794922 1179.66911 526.794922 1179.66911 351.498043"></polygon>
            <polygon id="Path-Copy-3" fill="#FFFFFF" transform="translate(959.230549, 614.146483) scale(1, -1) translate(-959.230549, -614.146483) " points="885.791992 701.794922 1032.66911 701.794922 1032.66911 526.498043"></polygon>
            <polygon id="Path-Copy-2" fill="#FFFFFF" transform="translate(1106.230549, 614.146483) scale(-1, -1) translate(-1106.230549, -614.146483) " points="1032.79199 701.794922 1179.66911 701.794922 1179.66911 526.498043"></polygon>
            <polygon id="Path-Copy-7" fill="#FFFFFF" transform="translate(959.230549, 439.146483) scale(-1, -1) translate(-959.230549, -439.146483) " points="885.791992 526.794922 1032.66911 526.794922 1032.66911 351.498043"></polygon>
            <polygon id="Path-Copy-6" fill="#F2F3F3" transform="translate(959.230549, 614.146483) scale(-1, 1) translate(-959.230549, -614.146483) " points="885.791992 701.794922 1032.66911 701.794922 1032.66911 526.498043"></polygon>
            <polygon id="Path-Copy-5" fill="#F8F8F8" points="1032.79199 701.794922 1179.66911 701.794922 1179.66911 526.498043"></polygon>
            <polygon id="Path" fill="#FFFFFF" points="1180.79199 526.794922 1327.66911 526.794922 1327.66911 351.498043"></polygon>
            <polygon id="Path-Copy" fill="#FFFFFF" transform="translate(1401.230549, 439.146483) scale(-1, 1) translate(-1401.230549, -439.146483) " points="1327.79199 526.794922 1474.66911 526.794922 1474.66911 351.498043"></polygon>
            <polygon id="Path-Copy-4" fill="#FFFFFF" transform="translate(1401.230549, 439.146483) scale(1, -1) translate(-1401.230549, -439.146483) " points="1327.79199 526.794922 1474.66911 526.794922 1474.66911 351.498043"></polygon>
            <polygon id="Path-Copy-3" fill="#F3F3F3" transform="translate(1254.230549, 614.146483) scale(1, -1) translate(-1254.230549, -614.146483) " points="1180.79199 701.794922 1327.66911 701.794922 1327.66911 526.498043"></polygon>
            <polygon id="Path-Copy-2" fill="#FFFFFF" transform="translate(1401.230549, 614.146483) scale(-1, -1) translate(-1401.230549, -614.146483) " points="1327.79199 701.794922 1474.66911 701.794922 1474.66911 526.498043"></polygon>
            <polygon id="Path-Copy-7" fill="#FFFFFF" transform="translate(1254.230549, 439.146483) scale(-1, -1) translate(-1254.230549, -439.146483) " points="1180.79199 526.794922 1327.66911 526.794922 1327.66911 351.498043"></polygon>
            <polygon id="Path-Copy-6" fill="#FFFFFF" transform="translate(1254.230549, 614.146483) scale(-1, 1) translate(-1254.230549, -614.146483) " points="1180.79199 701.794922 1327.66911 701.794922 1327.66911 526.498043"></polygon>
            <polygon id="Path-Copy-5" fill="#FFFFFF" points="1327.79199 701.794922 1474.66911 701.794922 1474.66911 526.498043"></polygon>
            <polygon id="Path" fill="#F8F8F8" points="0.791992188 877.794922 147.669107 877.794922 147.669107 702.498043"></polygon>
            <polygon id="Path-Copy" fill="#F2F3F3" transform="translate(221.230549, 790.146483) scale(-1, 1) translate(-221.230549, -790.146483) " points="147.791992 877.794922 294.669107 877.794922 294.669107 702.498043"></polygon>
            <polygon id="Path-Copy-4" fill="#FFFFFF" transform="translate(221.230549, 790.146483) scale(1, -1) translate(-221.230549, -790.146483) " points="147.791992 877.794922 294.669107 877.794922 294.669107 702.498043"></polygon>
            <polygon id="Path-Copy-7" fill="#FFFFFF" transform="translate(74.230549, 790.146483) scale(-1, -1) translate(-74.230549, -790.146483) " points="0.791992188 877.794922 147.669107 877.794922 147.669107 702.498043"></polygon>
            <polygon id="Path" fill="#FFFFFF" points="295.791992 877.794922 442.669107 877.794922 442.669107 702.498043"></polygon>
            <polygon id="Path-Copy" fill="#FFFFFF" transform="translate(516.230549, 790.146483) scale(-1, 1) translate(-516.230549, -790.146483) " points="442.791992 877.794922 589.669107 877.794922 589.669107 702.498043"></polygon>
            <polygon id="Path-Copy-4" fill="#FFFFFF" transform="translate(516.230549, 790.146483) scale(1, -1) translate(-516.230549, -790.146483) " points="442.791992 877.794922 589.669107 877.794922 589.669107 702.498043"></polygon>
            <polygon id="Path-Copy-7" fill="#F2F3F3" transform="translate(369.230549, 790.146483) scale(-1, -1) translate(-369.230549, -790.146483) " points="295.791992 877.794922 442.669107 877.794922 442.669107 702.498043"></polygon>
            <polygon id="Path" fill="#FFFFFF" points="590.791992 877.794922 737.669107 877.794922 737.669107 702.498043"></polygon>
            <polygon id="Path-Copy" fill="#FFFFFF" transform="translate(811.230549, 790.146483) scale(-1, 1) translate(-811.230549, -790.146483) " points="737.791992 877.794922 884.669107 877.794922 884.669107 702.498043"></polygon>
            <polygon id="Path-Copy-4" fill="#FFFFFF" transform="translate(811.230549, 790.146483) scale(1, -1) translate(-811.230549, -790.146483) " points="737.791992 877.794922 884.669107 877.794922 884.669107 702.498043"></polygon>
            <polygon id="Path-Copy-7" fill="#FFFFFF" transform="translate(664.230549, 790.146483) scale(-1, -1) translate(-664.230549, -790.146483) " points="590.791992 877.794922 737.669107 877.794922 737.669107 702.498043"></polygon>
            <polygon id="Path" fill="#FFFFFF" points="885.791992 877.794922 1032.66911 877.794922 1032.66911 702.498043"></polygon>
            <polygon id="Path-Copy" fill="#FFFFFF" transform="translate(1106.230549, 790.146483) scale(-1, 1) translate(-1106.230549, -790.146483) " points="1032.79199 877.794922 1179.66911 877.794922 1179.66911 702.498043"></polygon>
            <polygon id="Path-Copy-4" fill="#FFFFFF" transform="translate(1106.230549, 790.146483) scale(1, -1) translate(-1106.230549, -790.146483) " points="1032.79199 877.794922 1179.66911 877.794922 1179.66911 702.498043"></polygon>
            <polygon id="Path-Copy-7" fill="#FFFFFF" transform="translate(959.230549, 790.146483) scale(-1, -1) translate(-959.230549, -790.146483) " points="885.791992 877.794922 1032.66911 877.794922 1032.66911 702.498043"></polygon>
            <polygon id="Path" fill="#FFFFFF" points="1180.79199 877.794922 1327.66911 877.794922 1327.66911 702.498043"></polygon>
            <polygon id="Path-Copy" fill="#FFFFFF" transform="translate(1401.230549, 790.146483) scale(-1, 1) translate(-1401.230549, -790.146483) " points="1327.79199 877.794922 1474.66911 877.794922 1474.66911 702.498043"></polygon>
            <polygon id="Path-Copy-4" fill="#FFFFFF" transform="translate(1401.230549, 790.146483) scale(1, -1) translate(-1401.230549, -790.146483) " points="1327.79199 877.794922 1474.66911 877.794922 1474.66911 702.498043"></polygon>
            <polygon id="Path-Copy-7" fill="#FFFFFF" transform="translate(1254.230549, 790.146483) scale(-1, -1) translate(-1254.230549, -790.146483) " points="1180.79199 877.794922 1327.66911 877.794922 1327.66911 702.498043"></polygon>
        </g>
    </g>
</svg>