<?xml version="1.0" encoding="UTF-8"?>
<svg width="200px" height="200px" viewBox="0 0 200 200" version="1.1" xmlns="http://www.w3.org/2000/svg" xmlns:xlink="http://www.w3.org/1999/xlink">
    <!-- Generator: Sketch 52.6 (67491) - http://www.bohemiancoding.com/sketch -->
    <title>Drive Product Logo - ETW</title>
    <desc>Created with Sketch.</desc>
    <g id="Drive-Product-Logo---ETW" stroke="none" stroke-width="1" fill="none" fill-rule="evenodd">
        <g id="Group-4-Copy">
            <rect id="Rectangle" fill="#D02B30" fill-rule="nonzero" x="0" y="0" width="200" height="200"></rect>
            <polygon id="Rectangle" fill-opacity="0.1" fill="#FFFFFF" fill-rule="nonzero" points="0 0 200 0 200 200"></polygon>
            <g id="icon-accelerate-growth" transform="translate(100.000000, 100.000000) rotate(-180.000000) translate(-100.000000, -100.000000) translate(53.703704, 53.703704)" fill="#FFFFFF">
                <path d="M38.5802469,92.5925926 C17.3070988,92.5925926 0,75.2854938 0,54.0123457 C0,32.7391975 17.3070988,15.4320988 38.5802469,15.4320988 C39.6450617,15.4320988 40.5092593,16.2962963 40.5092593,17.3611111 C40.5092593,18.4259259 39.6450617,19.2901235 38.5802469,19.2901235 C19.4328704,19.2901235 3.85802469,34.8649691 3.85802469,54.0123457 C3.85802469,73.1597222 19.4328704,88.7345679 38.5802469,88.7345679 C57.7276235,88.7345679 73.3024691,73.1597222 73.3024691,54.0123457 C73.3024691,52.9475309 74.1666667,52.0833333 75.2314815,52.0833333 C76.2962963,52.0833333 77.1604938,52.9475309 77.1604938,54.0123457 C77.1604938,75.2854938 59.8533951,92.5925926 38.5802469,92.5925926 Z" id="Path"></path>
                <path d="M52.0833333,42.4305556 C51.8287037,42.4305556 51.5817901,42.3804012 51.3464506,42.2839506 C50.8719136,42.0871914 50.5015432,41.716821 50.304784,41.242284 C50.2044753,41.0030864 50.154321,40.7561728 50.154321,40.5015432 L50.154321,17.3533951 C50.154321,16.2885802 51.0185185,15.4243827 52.0833333,15.4243827 C53.1481481,15.4243827 54.0123457,16.2885802 54.0123457,17.3533951 L54.0123457,35.8449074 L88.3333333,1.52391975 C88.6959877,1.16126543 89.1820988,0.960648148 89.6990741,0.960648148 C90.2160494,0.960648148 90.6983025,1.16126543 91.0648148,1.52391975 C91.4313272,1.88657407 91.6280864,2.37268519 91.6280864,2.88966049 C91.6280864,3.4066358 91.4274691,3.88888889 91.0648148,4.25540123 L56.7438272,38.5763889 L75.2314815,38.5763889 C76.2962963,38.5763889 77.1604938,39.4405864 77.1604938,40.5054012 C77.1604938,41.570216 76.2962963,42.4344136 75.2314815,42.4344136 L52.0833333,42.4344136 L52.0833333,42.4305556 Z" id="Path"></path>
                <path d="M38.5763889,65.5748457 C36.6743827,65.5748457 34.7762346,65.0925926 33.0864198,64.1782407 C30.3665123,62.7083333 28.3834877,60.2662037 27.5,57.3032407 C25.6751543,51.1882716 29.1666667,44.7260802 35.2854938,42.9012346 C35.462963,42.8510802 35.6481481,42.8240741 35.8333333,42.8240741 C36.6782407,42.8240741 37.4382716,43.3912037 37.6813272,44.2013889 C37.9861111,45.2199074 37.4035494,46.2962963 36.3850309,46.6010802 C34.4135802,47.1875 32.7893519,48.5146605 31.8055556,50.3279321 C30.8217593,52.1412037 30.6057099,54.2283951 31.1959877,56.1998457 C31.7824074,58.1751543 33.1057099,59.8032407 34.9189815,60.783179 C36.0493827,61.3927469 37.3148148,61.716821 38.5763889,61.716821 C39.3209877,61.716821 40.0655864,61.6049383 40.7908951,61.3927469 C43.7770062,60.5015432 45.9220679,57.9243827 46.257716,54.8263889 C46.3657407,53.8425926 47.183642,53.1018519 48.1635802,53.1018519 C48.2407407,53.1018519 48.3179012,53.1057099 48.3950617,53.1134259 C49.4405864,53.2291667 50.2083333,54.1820988 50.0925926,55.2391975 C49.5910494,59.8881173 46.3734568,63.753858 41.8942901,65.0887346 C40.8140432,65.4128086 39.695216,65.5748457 38.5763889,65.5748457 Z" id="Path"></path>
                <path d="M38.5262346,79.0740741 C38.2253086,79.0740741 37.9205247,79.070216 37.6157407,79.058642 C30.9220679,78.8233025 24.7222222,75.9915123 20.154321,71.091821 C15.5902778,66.1921296 13.2060185,59.8070988 13.441358,53.1134259 C13.6805556,46.4158951 16.5123457,40.2160494 21.412037,35.6481481 C26.0686728,31.3078704 32.1296296,28.9197531 38.4722222,28.9197531 C38.7770062,28.9197531 39.0856481,28.9236111 39.3942901,28.9351852 C40.4552469,28.9737654 41.2924383,29.8688272 41.253858,30.929784 C41.2191358,31.9598765 40.3626543,32.7932099 39.3479938,32.7932099 C39.3479938,32.7932099 39.2476852,32.7893519 39.224537,32.7893519 C38.9891975,32.7816358 38.7268519,32.7777778 38.4645062,32.7777778 C33.1018519,32.7777778 27.9783951,34.7993827 24.0354938,38.4722222 C19.8881173,42.3341049 17.492284,47.5810185 17.2955247,53.2484568 C17.0949074,58.912037 19.1126543,64.3171296 22.974537,68.4645062 C26.8364198,72.6118827 32.0833333,75.003858 37.7507716,75.2083333 C38.0054012,75.2160494 38.2600309,75.2199074 38.5146605,75.2199074 C43.8927469,75.2199074 49.0239198,73.1983025 52.966821,69.525463 C57.1141975,65.6635802 59.5100309,60.4128086 59.7106481,54.7492284 L59.7183642,54.4830247 C59.7376543,53.4490741 60.6057099,52.6003086 61.6473765,52.6003086 C62.1990741,52.6118827 62.6813272,52.820216 63.0401235,53.1944444 C63.3989198,53.5648148 63.587963,54.054784 63.5763889,54.5679012 L63.5686728,54.8842593 C63.3333333,61.5817901 60.5015432,67.7816358 55.6018519,72.345679 C50.941358,76.6859568 44.8765432,79.0740741 38.5262346,79.0740741 Z" id="Path"></path>
            </g>
        </g>
    </g>
</svg>