<?xml version="1.0" encoding="UTF-8"?>
<svg width="23px" height="20px" viewBox="0 0 23 20" version="1.1" xmlns="http://www.w3.org/2000/svg" xmlns:xlink="http://www.w3.org/1999/xlink">
    <!-- Generator: Sketch 55.2 (78181) - https://sketchapp.com -->
    <title>icon-medium</title>
    <desc>Created with Sketch.</desc>
    <g id="Symbols" stroke="none" stroke-width="1" fill="none" fill-rule="evenodd">
        <g id="Footer" transform="translate(-1266.000000, -958.000000)">
            <g id="icon-medium" transform="translate(1266.000000, 958.000000)">
                <path d="M15.5309278,0.0239043825 C15.4123711,-0.03187251 15.3175258,0.0239043825 15.3175258,0.15936255 L15.3175258,16.3266932 L22.3439863,19.8645418 C22.6917526,20.0398406 22.9762887,19.8645418 22.9762887,19.4661355 L22.9762887,3.90438247 C22.9762887,3.8247012 22.9367698,3.75298805 22.8656357,3.72111554 L15.5309278,0.0239043825 Z" id="XMLID_103_" fill="#D2D2D2"></path>
                <path d="M7.65876289,12.4701195 L15.1910653,0.12749004 C15.2621993,0.015936255 15.4123711,-0.03187251 15.5309278,0.03187251 L22.8103093,3.69721116 C22.8972509,3.74501992 22.9367698,3.85657371 22.8814433,3.94422311 L15.3175258,16.3266932 L7.65876289,12.4701195 Z" id="XMLID_102_" fill="#BCBCBC"></path>
                <path d="M0.845704467,0.35059761 C0.379381443,0.111553785 0.221305842,0.28685259 0.497938144,0.741035857 L7.65876289,12.4701195 L15.3175258,16.3346614 L7.70618557,3.86454183 C7.67457045,3.80876494 7.62714777,3.7689243 7.57182131,3.73705179 L0.845704467,0.35059761 Z" id="XMLID_101_" fill="#9E9E9E"></path>
                <path d="M7.65876289,19.4741036 C7.65876289,19.8645418 7.3742268,20.0478088 7.02646048,19.87251 L0.426804124,16.5418327 C0.189690722,16.4223108 0,16.1115538 0,15.8486056 L0,0.398406375 C0,0.135458167 0.189690722,0.015936255 0.426804124,0.135458167 L7.56391753,3.73705179 C7.61924399,3.7689243 7.65876289,3.8247012 7.65876289,3.88844622 L7.65876289,19.4741036 Z" id="XMLID_100_" fill="#888888"></path>
            </g>
        </g>
    </g>
</svg>