<svg xmlns="http://www.w3.org/2000/svg" viewBox="0 0 24 24"><defs><style>.a{fill:none;stroke:#000;stroke-linecap:round;stroke-linejoin:round;}</style></defs><title>feed-medium</title><path class="a" d="M7.5,6V21.5a.5.5,0,0,1-.724.447l-6-3.309A.5.5,0,0,1,.5,18.191V3.309a.5.5,0,0,1,.724-.448Z"/><line class="a" x1="16" y1="18" x2="7.5" y2="6"/><polyline class="a" points="23.444 6.089 21.625 8.999 15.747 18.404"/><path class="a" d="M7.5,14.248l15.282,7.7a.5.5,0,0,0,.718-.45V6.318a.5.5,0,0,0-.289-.453L16.384,2.679a.5.5,0,0,0-.624.169l-5.168,7.517"/></svg>