<?xml version="1.0" encoding="UTF-8"?>
<svg width="26px" height="20px" viewBox="0 0 26 20" version="1.1" xmlns="http://www.w3.org/2000/svg" xmlns:xlink="http://www.w3.org/1999/xlink">
    <!-- Generator: Sketch 55.2 (78181) - https://sketchapp.com -->
    <title>icon-twitter</title>
    <desc>Created with Sketch.</desc>
    <g id="Symbols" stroke="none" stroke-width="1" fill="none" fill-rule="evenodd">
        <g id="Footer" transform="translate(-1141.000000, -958.000000)" fill="#888888">
            <path d="M1158.37241,958.00444 L1158.37241,958 L1159.59152,958 L1160.03697,958.084351 C1160.33394,958.139112 1160.60355,958.210877 1160.84581,958.299667 C1161.08808,958.388457 1161.32253,958.492053 1161.54914,958.610433 C1161.77578,958.728812 1161.98132,958.849434 1162.16576,958.972253 C1162.34863,959.093607 1162.51274,959.222353 1162.65809,959.358491 C1162.80186,959.496115 1163.02615,959.531632 1163.33093,959.465039 C1163.63571,959.398446 1163.96393,959.305949 1164.3156,959.187569 C1164.66727,959.06919 1165.01504,958.936004 1165.35888,958.788013 C1165.70274,958.640022 1165.9122,958.54606 1165.98722,958.506104 C1166.06067,958.464684 1166.09975,958.442486 1166.10444,958.439512 L1166.10911,958.432852 L1166.13255,958.421754 L1166.156,958.410655 L1166.17944,958.399556 L1166.20289,958.388457 L1166.20757,958.381798 L1166.21461,958.377358 L1166.22166,958.372919 L1166.22633,958.36626 L1166.24977,958.3596 L1166.27322,958.355161 L1166.26855,958.388457 L1166.2615,958.421754 L1166.24977,958.45505 L1166.23805,958.488346 L1166.22633,958.510544 L1166.21461,958.532741 L1166.20289,958.566038 C1166.19508,958.588235 1166.18727,958.617825 1166.17944,958.654828 C1166.17163,958.691831 1166.09739,958.8398 1165.95672,959.098779 C1165.81605,959.357758 1165.64022,959.620422 1165.42922,959.886792 C1165.21821,960.153163 1165.02911,960.354406 1164.86188,960.490566 C1164.69308,960.628191 1164.58132,960.724373 1164.5266,960.779134 C1164.4719,960.835361 1164.40549,960.887148 1164.32732,960.934517 L1164.2101,961.007769 L1164.18665,961.018868 L1164.16321,961.029967 L1164.15854,961.036626 L1164.15149,961.041065 L1164.14445,961.045505 L1164.13977,961.052164 L1164.11632,961.063263 L1164.09288,961.074362 L1164.08821,961.081021 L1164.08115,961.085461 L1164.07412,961.0899 L1164.06943,961.096559 L1164.06477,961.103219 L1164.05771,961.107658 L1164.05068,961.112098 L1164.04599,961.118757 L1164.16321,961.118757 L1164.81966,960.985572 C1165.2573,960.896781 1165.67538,960.789501 1166.07394,960.663707 L1166.70694,960.463929 L1166.77728,960.441731 L1166.81244,960.430633 L1166.83589,960.419534 L1166.85933,960.408435 L1166.88278,960.397336 L1166.90622,960.386238 L1166.95311,960.379578 L1167,960.375139 L1167,960.419534 L1166.98828,960.423973 L1166.97656,960.430633 L1166.97189,960.437292 L1166.96483,960.441731 L1166.9578,960.446171 L1166.95311,960.45283 L1166.94845,960.459489 L1166.94139,960.463929 L1166.93436,960.468368 L1166.92967,960.475028 L1166.925,960.481687 L1166.91794,960.486127 L1166.90622,960.508324 L1166.8945,960.530522 L1166.88747,960.534961 C1166.88435,960.539401 1166.78511,960.665172 1166.58972,960.91232 C1166.39436,961.160932 1166.28886,961.286704 1166.27322,961.289678 C1166.25761,961.294118 1166.23571,961.316315 1166.20757,961.356271 C1166.18101,961.397691 1166.01533,961.562708 1165.71055,961.851276 C1165.40577,962.139845 1165.10728,962.396582 1164.81499,962.621532 C1164.52116,962.847947 1164.37266,963.126149 1164.36955,963.45616 C1164.36486,963.784684 1164.34687,964.156138 1164.3156,964.570477 C1164.28435,964.984839 1164.22574,965.432475 1164.13977,965.91343 C1164.05382,966.394384 1163.92096,966.938224 1163.74121,967.54495 C1163.56148,968.151676 1163.34265,968.743618 1163.08476,969.320755 C1162.82687,969.897891 1162.55726,970.415827 1162.27592,970.874584 C1161.99459,971.333341 1161.7367,971.721798 1161.50225,972.039956 C1161.26781,972.358113 1161.02947,972.65778 1160.7872,972.938957 C1160.54494,973.220133 1160.23862,973.536826 1159.86819,973.889012 C1159.4962,974.239734 1159.29303,974.43212 1159.25863,974.466149 C1159.22269,974.498713 1159.06953,974.620067 1158.7991,974.830189 C1158.53028,975.041798 1158.24112,975.253407 1157.93165,975.465039 C1157.62375,975.675183 1157.34085,975.850544 1157.08296,975.991121 C1156.82507,976.131698 1156.51405,976.292253 1156.14986,976.472808 C1155.78727,976.654828 1155.39495,976.823529 1154.97295,976.978912 C1154.55095,977.134295 1154.1055,977.278579 1153.63661,977.411765 C1153.16772,977.54495 1152.71447,977.648546 1152.27683,977.722531 C1151.83921,977.796515 1151.34296,977.859423 1150.7881,977.91121 L1149.95582,977.988901 L1149.95582,978 L1148.43192,978 L1148.43192,977.988901 L1148.23264,977.977802 C1148.09981,977.970411 1147.99039,977.962997 1147.90442,977.955605 C1147.81847,977.948213 1147.49414,977.907503 1146.93147,977.833518 C1146.3688,977.759534 1145.92727,977.685527 1145.60685,977.611543 C1145.28646,977.537558 1144.80974,977.396959 1144.17674,977.189789 C1143.54373,976.982619 1143.00216,976.773208 1142.55203,976.561598 C1142.10346,976.351454 1141.82213,976.218269 1141.70803,976.162042 C1141.59549,976.107281 1141.46889,976.039223 1141.32822,975.957825 L1141.11722,975.835738 L1141.11256,975.829079 L1141.1055,975.824639 L1141.09847,975.8202 L1141.09378,975.813541 L1141.07033,975.802442 L1141.04689,975.791343 L1141.04222,975.784684 L1141.03517,975.780244 L1141.02813,975.775805 L1141.02344,975.769145 L1141.01878,975.762486 L1141.01172,975.758047 L1141,975.758047 L1141,975.713651 L1141.02344,975.718091 L1141.04689,975.72475 L1141.15239,975.735849 C1141.22272,975.743241 1141.41419,975.75434 1141.72678,975.769145 C1142.03939,975.783951 1142.37151,975.783951 1142.72317,975.769145 C1143.07484,975.75434 1143.43434,975.721043 1143.80162,975.669256 C1144.16893,975.617469 1144.60265,975.528679 1145.1028,975.402886 C1145.60296,975.277092 1146.06247,975.127636 1146.48136,974.954495 C1146.89867,974.779889 1147.19562,974.649656 1147.37225,974.563818 C1147.54729,974.479467 1147.81456,974.322597 1148.17403,974.09323 L1148.71326,973.749168 L1148.71794,973.742508 L1148.72498,973.738069 L1148.73203,973.733629 L1148.7367,973.72697 L1148.74139,973.720311 L1148.74842,973.715871 L1148.75548,973.711432 L1148.76014,973.704772 L1148.78359,973.698113 L1148.80703,973.693674 L1148.81172,973.671476 L1148.81876,973.649279 L1148.82581,973.644839 L1148.83048,973.63818 L1148.64292,973.627081 C1148.51789,973.619689 1148.39675,973.612275 1148.27953,973.604883 C1148.16231,973.597492 1147.97867,973.564195 1147.72858,973.504994 C1147.47852,973.445794 1147.20891,973.357003 1146.91975,973.238624 C1146.63061,973.120244 1146.34927,972.979645 1146.07574,972.81687 C1145.80224,972.654095 1145.60451,972.518668 1145.4826,972.410655 C1145.36226,972.304084 1145.20595,972.153163 1145.01371,971.957825 C1144.82303,971.761021 1144.65735,971.559001 1144.51668,971.351831 C1144.37601,971.144661 1144.24161,970.905638 1144.11346,970.63485 L1143.91885,970.230855 L1143.90712,970.197558 L1143.8954,970.164262 L1143.88837,970.142064 L1143.88368,970.119867 L1143.91885,970.124306 L1143.95401,970.130966 L1144.2119,970.164262 C1144.38384,970.186459 1144.65346,970.193851 1145.02074,970.186459 C1145.38805,970.179068 1145.64202,970.164262 1145.78269,970.142064 C1145.92335,970.119867 1146.00933,970.105061 1146.04058,970.097669 L1146.08747,970.08657 L1146.14608,970.075472 L1146.20469,970.064373 L1146.20938,970.057714 L1146.21641,970.053274 L1146.22347,970.048835 L1146.22813,970.042175 L1146.18124,970.031077 L1146.13436,970.019978 L1146.08747,970.008879 L1146.04058,969.99778 L1145.99369,969.986681 C1145.96244,969.97929 1145.90774,969.964484 1145.82958,969.942286 C1145.75144,969.920089 1145.54043,969.83869 1145.19657,969.698113 C1144.85274,969.557536 1144.57921,969.420644 1144.37601,969.287458 C1144.17232,969.153887 1143.97809,969.007809 1143.79459,968.850166 C1143.61172,968.690344 1143.4109,968.484639 1143.19206,968.233074 C1142.97326,967.981509 1142.77789,967.689234 1142.60595,967.356271 C1142.43403,967.023307 1142.30509,966.70515 1142.21912,966.401776 C1142.13349,966.100186 1142.077,965.791851 1142.05034,965.480577 L1142.00812,965.014428 L1142.03156,965.018868 L1142.055,965.025527 L1142.07845,965.036626 L1142.10189,965.047725 L1142.12534,965.058824 L1142.14878,965.069922 L1142.51217,965.225305 C1142.75445,965.328901 1143.05531,965.417691 1143.41479,965.491676 C1143.77429,965.56566 1143.98918,965.606371 1144.05951,965.613762 L1144.16501,965.624861 L1144.37601,965.624861 L1144.37135,965.618202 L1144.36429,965.613762 L1144.35726,965.609323 L1144.35257,965.602664 L1144.3479,965.596004 L1144.34085,965.591565 L1144.33381,965.587125 L1144.32913,965.580466 L1144.30568,965.569367 L1144.28224,965.558269 L1144.27757,965.551609 L1144.27051,965.54717 L1144.26348,965.54273 L1144.25879,965.536071 L1144.23535,965.524972 L1144.2119,965.513873 L1144.20724,965.507214 C1144.20255,965.50424 1144.13533,965.456892 1144.00559,965.36515 C1143.87742,965.27192 1143.74301,965.151321 1143.60234,965.00333 C1143.46168,964.855339 1143.32101,964.699956 1143.18034,964.537181 C1143.03942,964.374033 1142.9139,964.199482 1142.80523,964.015538 C1142.69584,963.830566 1142.58016,963.59525 1142.45825,963.309656 C1142.33791,963.025527 1142.24648,962.739179 1142.18395,962.45061 C1142.12145,962.162042 1142.08628,961.877181 1142.07845,961.596004 C1142.07064,961.314828 1142.07845,961.074362 1142.10189,960.874584 C1142.12534,960.674806 1142.17223,960.449123 1142.24256,960.197558 C1142.31289,959.945993 1142.4145,959.679623 1142.54734,959.398446 L1142.74662,958.976693 L1142.75834,958.943396 L1142.77006,958.9101 L1142.77712,958.90566 L1142.78179,958.899001 L1142.78647,958.892342 L1142.79351,958.887902 L1142.80056,958.892342 L1142.80523,958.899001 L1142.80992,958.90566 L1142.81695,958.9101 L1142.82401,958.914539 L1142.82867,958.921199 L1142.83336,958.927858 L1142.8404,958.932297 L1142.85212,958.954495 L1142.86384,958.976693 L1142.8709,958.981132 L1142.87556,958.987791 L1143.19206,959.320755 C1143.40307,959.54273 1143.65315,959.79061 1143.94229,960.064373 C1144.23146,960.338135 1144.39165,960.4802 1144.4229,960.490566 C1144.45418,960.502397 1144.49324,960.536426 1144.54013,960.592675 C1144.58702,960.647436 1144.74332,960.778402 1145.00902,960.985572 C1145.27474,961.192741 1145.62249,961.43323 1146.0523,961.706992 C1146.48213,961.980755 1146.95883,962.250832 1147.48242,962.517203 C1148.00603,962.783574 1148.5687,963.02404 1149.17042,963.238624 C1149.77217,963.453208 1150.19418,963.593785 1150.43643,963.660377 C1150.67871,963.72697 1151.09288,963.812053 1151.67899,963.915649 C1152.2651,964.019245 1152.70666,964.085838 1153.00361,964.115427 C1153.30058,964.145017 1153.50377,964.162042 1153.61317,964.166482 L1153.77728,964.170921 L1153.77261,964.137625 L1153.76555,964.104329 L1153.71867,963.826859 C1153.68741,963.641887 1153.67178,963.382908 1153.67178,963.049945 C1153.67178,962.716981 1153.69914,962.409922 1153.75383,962.128746 C1153.80855,961.847569 1153.89061,961.562708 1154,961.27414 C1154.10942,960.985572 1154.21649,960.753962 1154.32119,960.579356 C1154.42749,960.406215 1154.56658,960.208657 1154.7385,959.986681 C1154.91045,959.764706 1155.13317,959.535339 1155.40667,959.298557 C1155.6802,959.061776 1155.99279,958.850899 1156.34445,958.665927 C1156.69612,958.480954 1157.02045,958.340355 1157.3174,958.244173 C1157.61438,958.147991 1157.86446,958.085083 1158.06763,958.055494 C1158.27082,958.025905 1158.37241,958.008879 1158.37241,958.00444 Z" id="icon-twitter"></path>
        </g>
    </g>
</svg>