
<svg width="171px" height="41px" viewBox="0 0 171 41" version="1.1" xmlns="http://www.w3.org/2000/svg" xmlns:xlink="http://www.w3.org/1999/xlink">
    <defs>
        <polygon id="path-1" points="0.00242712692 0.0754372042 5.65756467 0.0754372042 5.65756467 5.647183 0.00242712692 5.647183"></polygon>
    </defs>
    <g id="Page-1" stroke="none" stroke-width="1" fill="none" fill-rule="evenodd">
        <g id="01a_homepage" transform="translate(-538.000000, -760.000000)">
            <g id="Group-22" transform="translate(538.000000, 760.000000)">
                <path d="M18.4776154,4.01960784e-05 C20.9561714,0.763631699 22.9797163,2.37241275 25.2087849,3.59718725 C27.2127755,4.69829183 29.1660594,5.89090948 31.1382234,7.04869052 C31.4272242,7.21845196 31.7235073,7.39089314 31.9709718,7.61223954 C32.5314419,8.11308268 32.5128315,8.81423627 31.9387408,9.29605327 C31.7527715,9.45214804 31.5291769,9.56965458 31.3109766,9.68220359 C29.6961864,10.5143964 28.0692589,11.3238114 26.4651225,12.1757003 C25.5838252,12.6437167 24.7874884,12.6150435 23.9349159,12.0821775 C22.3194513,11.072318 20.6650129,10.1243605 19.0343094,9.13794869 C18.2846335,8.68453693 17.5654356,8.69619379 16.8194009,9.14933758 C15.2480349,10.1035925 13.6468654,11.010684 12.0945144,11.994416 C11.1428212,12.5976252 10.2669182,12.6620729 9.26330465,12.106965 C7.71392058,11.2501186 6.11652705,10.4790239 4.54057595,9.66920686 C4.36148446,9.57729183 4.17753809,9.48725261 4.01705702,9.36787026 C3.33009014,8.85630817 3.30082595,8.10584739 3.95259487,7.55877876 C4.15690481,7.38740948 4.39196238,7.24913497 4.6236485,7.11367418 C8.20318557,5.01878856 11.7774632,2.91452386 15.3729135,0.846301634 C16.0017565,0.484536928 16.7212242,0.278197059 17.398751,4.01960784e-05 L18.4776154,4.01960784e-05 Z" id="Fill-1" fill="#777777"></path>
                <path d="M0.00219818612,20.9345866 C0.00233304416,18.3897729 -0.00279156151,15.8449592 0.0085365142,13.3001454 C0.0100199527,12.9712075 0.0444087539,12.6245833 0.154048344,12.3181552 C0.367798344,11.7199036 0.940810174,11.4333056 1.56318005,11.5843088 C1.84314535,11.6522402 2.11596317,11.7713546 2.37435118,11.9018578 C3.89581964,12.6701389 5.40771317,13.4575801 6.93201364,14.2203676 C7.76300891,14.6359951 8.13899314,15.262518 8.12995765,16.2031062 C8.10136774,19.1271029 8.13386853,22.0516356 8.11175181,24.9757663 C8.10393005,26.0100114 8.47222737,26.7437239 9.40018557,27.2823513 C11.8822479,28.7231127 14.3327534,30.2176029 16.7893275,31.7012402 C17.5581532,32.1655049 18.3010862,32.1709984 19.0703165,31.7080735 C21.5674829,30.2047402 24.0633007,28.6985931 26.5750318,27.2193775 C27.4002282,26.7334069 27.7540957,26.0464559 27.7519379,25.1198023 C27.7447905,22.1956716 27.7790444,19.2708709 27.7340018,16.3474101 C27.7174143,15.2665376 28.1316982,14.5940572 29.104699,14.1322042 C30.5832826,13.4306487 32.0215436,12.6454853 33.4820562,11.9054755 C35.0059521,11.1335768 35.8672905,11.6566618 35.8685042,13.356018 C35.8720105,18.4011618 35.8774048,23.4461716 35.8656722,28.4910474 C35.8614916,30.2105016 35.1033196,31.570067 33.6277029,32.4456716 C29.1736114,35.0886977 24.7044159,37.7073382 20.2187676,40.2974395 C18.7068741,41.1703644 17.1271469,41.1517402 15.6035207,40.2644788 C11.1857061,37.6915278 6.771128,35.1130833 2.36329282,32.523518 C0.809053864,31.610531 0.0100199527,30.237433 0.00422105678,28.4350408 C-0.00387042587,25.9348448 0.00219818612,23.4346487 0.00219818612,20.9345866" id="Fill-3" fill="#777777"></path>
                <path d="M152.551393,22.0755657 C153.829982,22.0755657 155.108841,22.0819971 156.387565,22.0711441 C156.721743,22.0683304 157.062529,22.0446147 157.387941,21.9740036 C158.517917,21.7289415 159.34136,20.7749546 159.405418,19.6727781 C159.473656,18.4990526 158.79559,17.4676212 157.664266,17.0995592 C157.30851,16.9839284 156.916613,16.9327454 156.540898,16.9308696 C153.848727,16.916801 151.156691,16.9198827 148.46452,16.9252422 C147.783352,16.926448 147.714979,17.0036245 147.711203,17.715899 C147.705134,18.8971278 147.705538,20.0786245 147.711068,21.2598533 C147.714574,22.0029448 147.780115,22.0706082 148.513203,22.0736899 C149.859221,22.0794513 151.205374,22.0754317 152.551393,22.0755657 L152.551393,22.0755657 Z M143.506868,22.3088369 C143.506868,19.6516082 143.506733,16.9945134 143.507273,14.3374186 C143.507273,14.1588141 143.4625,13.9579676 143.529794,13.8079023 C143.599246,13.6534154 143.760266,13.4938369 143.918185,13.4362225 C144.097277,13.3709709 144.31723,13.4141147 144.519382,13.4141147 C148.946772,13.4138467 153.374296,13.4138467 157.801686,13.4138467 C160.420899,13.4138467 162.594945,14.9839056 163.149886,17.5335428 C163.783719,20.4454807 163.069106,23.1193239 160.583942,24.7498108 C159.983554,25.1437324 159.975328,25.2324317 160.373564,25.8811964 C161.274146,27.3487552 162.185786,28.8096147 163.093111,30.2731539 C163.163777,30.3870428 163.242399,30.4969121 163.304568,30.6152225 C163.517509,31.020935 163.428773,31.2109284 162.969042,31.2178958 C161.778245,31.236118 160.587044,31.2240592 159.395843,31.2244611 C158.961061,31.2245951 158.70483,30.9749775 158.493643,30.6274154 C157.634462,29.2133173 156.739679,27.8198533 155.908953,26.3895428 C155.462034,25.6200559 154.858005,25.3142977 153.977112,25.331716 C152.157472,25.3676245 150.336619,25.3397552 148.51617,25.3441768 C147.778497,25.3457846 147.71363,25.4102324 147.710663,26.1535918 C147.704864,27.6049382 147.712416,29.0562846 147.706887,30.507631 C147.70446,31.2028892 147.682343,31.2219154 146.984048,31.225801 C146.129992,31.2307585 145.276071,31.2280788 144.422015,31.2268729 C143.512532,31.225533 143.509565,31.2245951 143.509026,30.3471147 C143.507542,27.6676441 143.508486,24.9881735 143.508486,22.3088369 L143.506868,22.3088369 Z" id="Fill-5" fill="#777777"></path>
                <path d="M68.7838734,22.2871444 C68.7837386,19.6525595 68.7836037,17.0181085 68.7840083,14.3835235 C68.7840083,14.204919 68.7853569,14.0263144 68.7896723,13.8478438 C68.7962804,13.5798699 68.9382859,13.435566 69.2057094,13.4218993 C69.3850706,13.4126542 69.5651061,13.4141281 69.7448718,13.4141281 C73.9470485,13.4137261 78.1492252,13.4212294 82.3514018,13.4096853 C83.7684901,13.4059549 84.9296179,13.8995627 85.8284468,14.9993275 C86.5932267,15.9352261 87.3754034,16.8567882 88.1442291,17.7892033 C88.9889799,18.8139353 89.386946,20.0001216 89.3892386,21.3170791 C89.3940935,24.331115 89.3908569,27.345151 89.3905871,30.3591869 C89.3905871,30.4931739 89.3895083,30.6271608 89.3854625,30.7610137 C89.3765619,31.0498895 89.2480422,31.2232686 88.9351715,31.2231346 C87.8340556,31.2225987 86.7329397,31.2209908 85.6318237,31.2263503 C85.3239428,31.2278242 85.1751944,31.0768209 85.1569886,30.7860693 C85.1443119,30.5857588 85.1433679,30.3845105 85.1433679,30.1836641 C85.1424239,27.3480987 85.1278592,24.5125333 85.1510548,21.6772359 C85.158472,20.7730922 84.9007583,20.0250431 84.234155,19.3963765 C83.7625564,18.9514059 83.3369444,18.457798 82.8978466,17.9795987 C82.3671802,17.4014451 81.7226936,17.1294516 80.9263569,17.1348111 C78.5444941,17.1511575 76.1623616,17.1389647 73.780364,17.1416444 C73.0169326,17.1424484 72.9818695,17.1755431 72.9814649,17.9344451 C72.9790375,22.0424843 72.9805209,26.1505235 72.9799815,30.2585627 C72.9798466,31.2254124 72.9786329,31.2260824 72.0286928,31.2270203 C71.1747717,31.2278242 70.3207157,31.2325137 69.4669294,31.2248765 C68.8324223,31.219383 68.7867054,31.1754353 68.7857614,30.5255987 C68.781446,27.7794026 68.7838734,25.0332065 68.7838734,22.2871444" id="Fill-7" fill="#777777"></path>
                <path d="M64.8881347,22.3082072 C64.8881347,24.9643641 64.8882696,27.6206549 64.8879998,30.2769458 C64.8879998,30.4555503 64.8851678,30.6340209 64.8827404,30.8126255 C64.8789644,31.084083 64.743432,31.2236974 64.4664336,31.2231614 C64.3091891,31.2228935 64.1519446,31.2267791 63.9947002,31.2269131 C59.7485598,31.2270471 55.5022845,31.2147203 51.256279,31.2342096 C49.8772207,31.2405797 48.7704407,30.7402725 47.8981789,29.6969163 C47.108585,28.7528444 46.3138666,27.8129261 45.5372191,26.8584033 C44.7485692,25.8892758 44.3377916,24.7813379 44.3400747,23.5242725 C44.3454785,20.4216712 44.3400747,17.3189359 44.3425117,14.2162007 C44.343186,13.4457758 44.3720456,13.4187105 45.1295432,13.4149588 C45.9608082,13.4106712 46.7920732,13.412815 47.6233382,13.4141549 C48.5386197,13.4156288 48.5398334,13.4165667 48.5401032,14.3626484 C48.5407774,17.2420275 48.5560164,20.1218085 48.5312025,23.0009196 C48.5235156,23.8845634 48.7935014,24.606217 49.4231536,25.2244327 C49.9180826,25.7102693 50.3809155,26.2287987 50.8510306,26.7391549 C51.3175046,27.2456255 51.8932136,27.5054261 52.5809896,27.5063641 C55.0747845,27.5099817 57.5685795,27.5130634 60.0623744,27.5059621 C60.6576379,27.5042203 60.6924312,27.4523673 60.6928358,26.7600569 C60.6948587,22.719815 60.6935101,18.6797072 60.6940495,14.6395993 C60.6941844,13.3393902 60.5794202,13.4100013 61.937171,13.413485 C62.6784856,13.4154948 63.4199352,13.4091974 64.1612498,13.4154948 C64.8455196,13.4212562 64.8885393,13.4598444 64.8896181,14.1386222 C64.893529,16.8619065 64.8911016,19.5850569 64.8911016,22.3082072 L64.8881347,22.3082072 Z" id="Fill-9" fill="#777777"></path>
                <path d="M110.996545,26.1613899 C111.272465,25.7077101 111.468548,25.4125369 111.638065,25.1028931 C113.611982,21.4951611 115.595879,17.8926546 117.539857,14.2691121 C117.885768,13.624233 118.31192,13.3673801 119.034219,13.4019487 C120.020571,13.4495141 121.011103,13.4123997 121.999748,13.4154814 C122.178839,13.4160173 122.366966,13.4042265 122.53446,13.4538016 C122.75266,13.5185173 122.870122,13.6805075 122.755357,13.9200761 C122.687928,14.0608964 122.608767,14.1962232 122.531493,14.3323539 C119.055931,20.4556905 115.579831,26.5790271 112.10373,32.7020958 C112.048573,32.7993703 111.97966,32.8907493 111.937045,32.9928474 C111.602193,33.795965 110.414633,33.7414324 110.038379,33.0099977 C109.435698,31.838684 108.74509,30.7119879 108.093995,29.5650598 C105.213428,24.4917788 102.333129,19.4183637 99.4544496,14.3440108 C98.9924259,13.5295042 99.0614733,13.4177592 100.0191,13.4146775 C101.030266,13.4114618 102.042375,13.4390631 103.052327,13.4047624 C103.693308,13.3831905 104.084126,13.6190075 104.391333,14.188318 C106.365115,17.8466971 108.366274,21.4904716 110.362847,25.1367918 C110.529666,25.4416121 110.728178,25.729416 110.996545,26.1613899" id="Fill-11" fill="#777777"></path>
                <path d="M129.979797,18.480951 C129.699562,18.9568725 129.499703,19.2761634 129.319397,19.6059052 C127.34575,23.2140392 125.366169,26.8190915 123.412885,30.4380784 C123.111072,30.9969379 122.749653,31.2669216 122.090871,31.2390523 C121.036686,31.1944346 119.978994,31.2302092 118.922786,31.2259216 C118.087745,31.2225719 118.013573,31.1076111 118.414641,30.3982843 C120.098209,27.4212288 121.787845,24.4475229 123.475459,21.4727451 C125.218229,18.4005588 126.961135,15.3287745 128.704445,12.2568562 C128.814759,12.0625752 128.92305,11.8666863 129.041994,11.6774967 C129.563221,10.8481176 130.469736,10.8596405 130.963452,11.7182288 C131.988777,13.5010588 132.998999,15.292598 134.01421,17.0811895 C136.50814,21.4746209 138.994383,25.8726078 141.501799,30.2585359 C141.949258,31.0412876 141.935232,31.2599542 140.947802,31.2331569 C139.937311,31.2058235 138.924122,31.1957745 137.91471,31.2383824 C137.267391,31.2655817 136.879,31.0320425 136.575974,30.4623301 C135.379244,28.2130915 134.146506,25.9827451 132.925232,23.7465033 C132.10044,22.2359346 131.27403,20.7263039 130.444113,19.218549 C130.330293,19.0116732 130.192738,18.8176601 129.979797,18.480951" id="Fill-13" fill="#777777"></path>
                <path d="M92.9379471,22.3352993 C92.9379471,19.6346588 92.9364636,16.9340183 92.9388911,14.2333778 C92.9395654,13.4432569 92.9695039,13.4167275 93.785395,13.4145837 C94.7512483,13.4119039 95.7173714,13.4084203 96.6832247,13.4161915 C97.3157089,13.421283 97.3705961,13.4751458 97.3715401,14.1129235 C97.3759905,17.0144105 97.3742373,19.9158974 97.374507,22.8175183 C97.3749116,25.3395542 97.3762602,27.8615902 97.3749116,30.3836261 C97.374507,31.2237242 97.3715401,31.225198 96.5027846,31.2266719 C95.5591829,31.2284137 94.6155812,31.2310935 93.6722491,31.2256 C92.9897326,31.2217144 92.940914,31.1783026 92.9398351,30.5042144 C92.9353848,27.781332 92.9380819,25.0581817 92.9379471,22.3352993" id="Fill-15" fill="#777777"></path>
                <g id="Group-19" transform="translate(165.335962, 13.339873)">
                    <mask id="mask-2" fill="white">
                        <use xlink:href="#path-1"></use>
                    </mask>
                    <g id="Clip-18"></g>
                    <path d="M5.16762539,2.8843634 C5.25622713,1.24932092 4.05572082,0.540798039 2.84982019,0.558618301 C1.34736672,0.580726144 0.466069401,1.39027516 0.447054416,2.83331438 C0.428309148,4.26335686 1.32673344,5.1516902 2.79884385,5.15892549 C4.31316483,5.16629477 5.16088249,4.35232418 5.16762539,2.8843634 M0.00242712692,2.86627516 C0.00175315457,1.14454314 1.07387461,0.0813568627 2.81677997,0.0754372042 C4.55806703,0.0695660131 5.65405836,1.13971961 5.65757311,2.84925882 C5.66107098,4.56469346 4.57249685,5.64355621 2.83431151,5.647183 C1.09288959,5.6507915 0.00310173502,4.5807719 0.00242712692,2.86627516" id="Fill-17" fill="#777777" mask="url(#mask-2)"></path>
                </g>
                <path d="M167.708574,15.1990618 C167.700212,15.5617644 167.501701,15.9397415 167.851793,16.0970422 C168.061362,16.191235 168.416309,16.0906108 168.644084,15.9660029 C168.749003,15.9086565 168.793372,15.5359049 168.712322,15.3890552 C168.496414,14.9971435 168.114227,15.1292546 167.708574,15.1990618 M168.855272,16.5428167 C168.992557,16.8576859 169.115682,17.1394605 169.239887,17.4243167 C168.78555,17.5637971 168.772604,17.5695585 168.565866,17.1154768 C168.40579,16.7637611 168.245309,16.4598788 167.823742,16.6391533 C167.486193,16.8721565 167.909782,17.4556696 167.268802,17.5451729 L167.268802,14.7372088 C167.720846,14.7372088 168.165608,14.6873657 168.593782,14.7494016 C169.186213,14.8348853 169.463077,15.4906173 169.18473,16.0571141 C169.107456,16.2145487 168.987028,16.3512154 168.855272,16.5428167" id="Fill-20" fill="#777777"></path>
            </g>
        </g>
    </g>
</svg>