<?xml version="1.0" encoding="UTF-8"?>
<svg width="1600px" height="900px" viewBox="0 0 1600 900" version="1.1" xmlns="http://www.w3.org/2000/svg" xmlns:xlink="http://www.w3.org/1999/xlink">
    <!-- Generator: Sketch 47.1 (45422) - http://www.bohemiancoding.com/sketch -->
    <title>bg-triangles</title>
    <desc>Created with Sketch.</desc>
    <defs></defs>
    <g id="Symbols" stroke="none" stroke-width="1" fill="none" fill-rule="evenodd">
        <g id="bg-triangles">
            <g id="bg-triangle" opacity="0.5" transform="translate(1564.484375, 396.390625) rotate(-270.000000) translate(-1564.484375, -396.390625) translate(1012.484375, -275.609375)">
                <polygon id="Path-3" fill="#FFFFFF" fill-rule="evenodd" opacity="0.200000003" points="160.945806 264.283203 13 264.283203 13 100"></polygon>
                <polygon id="Path-3-Copy-3" fill="#FFFFFF" fill-rule="evenodd" opacity="0.100000001" points="720.945806 264.283203 573 264.283203 573 100"></polygon>
                <polygon id="Path-3-Copy-9" fill="#FFFFFF" fill-rule="evenodd" opacity="0.200000003" transform="translate(646.972903, 344.141602) scale(-1, 1) translate(-646.972903, -344.141602) " points="720.945806 426.283203 573 426.283203 573 262"></polygon>
                <polygon id="Path-3-Copy-11" fill="#FFFFFF" fill-rule="evenodd" opacity="0.200000003" transform="translate(645.972903, 681.141602) scale(-1, 1) translate(-645.972903, -681.141602) " points="719.945806 763.283203 572 763.283203 572 599"></polygon>
                <polygon id="Path-3-Copy-16" fill="#FFFFFF" fill-rule="evenodd" opacity="0.100000001" transform="translate(794.972903, 846.141602) scale(1, -1) translate(-794.972903, -846.141602) " points="868.945806 928.283203 721 928.283203 721 764"></polygon>
                <polygon id="Path-3-Copy-12" fill="#FFFFFF" fill-rule="evenodd" opacity="0.100000001" transform="translate(496.972903, 681.141602) scale(-1, -1) translate(-496.972903, -681.141602) " points="570.945806 763.283203 423 763.283203 423 599"></polygon>
                <polygon id="Path-3-Copy-15" fill="#FFFFFF" fill-rule="evenodd" opacity="0.200000003" transform="translate(794.972903, 681.141602) scale(-1, -1) translate(-794.972903, -681.141602) " points="868.945806 763.283203 721 763.283203 721 599"></polygon>
                <polygon id="Path-3-Copy-17" fill="#FFFFFF" fill-rule="evenodd" opacity="0.100000001" transform="translate(966.809496, 883.641602) scale(-1, -1) translate(-966.809496, -883.641602) " points="1063.61899 1003.2832 870 1003.2832 870 764"></polygon>
                <polygon id="Path-3-Copy-18" fill="#FFFFFF" fill-rule="evenodd" opacity="0.100000001" transform="translate(966.809496, 643.641602) scale(-1, 1) translate(-966.809496, -643.641602) " points="1063.61899 763.283203 870 763.283203 870 524"></polygon>
                <polygon id="Path-3-Copy-13" fill="#FFFFFF" fill-rule="evenodd" opacity="0.100000001" transform="translate(496.972903, 846.141602) scale(-1, 1) translate(-496.972903, -846.141602) " points="570.945806 928.283203 423 928.283203 423 764"></polygon>
                <polygon id="Path-3-Copy-14" fill="#FFFFFF" fill-rule="evenodd" opacity="0.200000003" points="719.945806 928.283203 572 928.283203 572 764"></polygon>
                <polygon id="Path-3-Copy-20" fill="#FFFFFF" fill-rule="evenodd" opacity="0.200000003" points="721 931 860.182834 931 860.182834 1095.2832"></polygon>
                <polygon id="Path-3-Copy-21" fill="#FFFFFF" fill-rule="evenodd" opacity="0.100000001" points="861.174587 1096 1063.18283 1096 1063.18283 1322"></polygon>
                <polygon id="Path-3-Copy-19" fill="#FFFFFF" fill-rule="evenodd" opacity="0.300000012" points="1000.35742 931 861.174587 1095.2832 861.174587 931"></polygon>
                <polygon id="Path-3-Copy-6" fill="#FFFFFF" fill-rule="evenodd" opacity="0.200000003" points="1017.94581 264.283203 870 264.283203 870 100"></polygon>
                <polygon id="Path-3-Copy-7" fill="#FFFFFF" fill-rule="evenodd" opacity="0.100000001" transform="translate(794.972903, 182.141602) scale(-1, 1) translate(-794.972903, -182.141602) " points="868.945806 264.283203 721 264.283203 721 100"></polygon>
                <polygon id="Path-3-Copy-8" fill="#FFFFFF" fill-rule="evenodd" opacity="0.300000012" transform="translate(794.972903, 347.141602) scale(-1, -1) translate(-794.972903, -347.141602) " points="868.945806 429.283203 721 429.283203 721 265"></polygon>
                <polygon id="Path-3-Copy-10" fill="#FFFFFF" fill-rule="evenodd" opacity="0.100000001" transform="translate(967.136310, 534.500000) scale(-1, -1) translate(-967.136310, -534.500000) " points="1063.94581 642 870.326813 642 870.326813 427"></polygon>
                <polygon id="Path-3-Copy" fill="#FFFFFF" fill-rule="evenodd" opacity="0.100000001" transform="translate(230.972903, 347.141602) rotate(180.000000) translate(-230.972903, -347.141602) " points="299.945806 429.283203 162 429.283203 162 265"></polygon>
                <polygon id="Path-3-Copy-2" fill="#FFFFFF" fill-rule="evenodd" opacity="0.200000003" transform="translate(369.972903, 347.141602) scale(-1, 1) rotate(180.000000) translate(-369.972903, -347.141602) " points="438.945806 429.283203 301 429.283203 301 265"></polygon>
                <polygon id="Path-3-Copy-4" fill="#FFFFFF" fill-rule="evenodd" opacity="0.300000012" transform="translate(341.122741, 146.500000) rotate(180.000000) translate(-341.122741, -146.500000) " points="438.945806 263 243.299677 263 243.299677 30"></polygon>
                <polygon id="Path-3-Copy-5" fill="#FFFFFF" fill-rule="evenodd" opacity="0.200000003" transform="translate(260.122741, 146.500000) scale(-1, 1) rotate(180.000000) translate(-260.122741, -146.500000) " points="357.945806 263 162.299677 263 162.299677 30"></polygon>
                <rect id="Rectangle-15" x="0" y="0" width="1104" height="1344"></rect>
            </g>
            <g id="bg-triangle" opacity="0.400000006" transform="translate(438.531250, 452.718750) rotate(-270.000000) translate(-438.531250, -452.718750) translate(-113.468750, -219.281250)">
                <polygon id="Path-3" fill="#FFFFFF" fill-rule="evenodd" opacity="0.200000003" points="160.945806 264.283203 13 264.283203 13 100"></polygon>
                <polygon id="Path-3-Copy-3" fill="#FFFFFF" fill-rule="evenodd" opacity="0.100000001" points="720.945806 264.283203 573 264.283203 573 100"></polygon>
                <polygon id="Path-3-Copy-9" fill="#FFFFFF" fill-rule="evenodd" opacity="0.200000003" transform="translate(646.972903, 344.141602) scale(-1, 1) translate(-646.972903, -344.141602) " points="720.945806 426.283203 573 426.283203 573 262"></polygon>
                <polygon id="Path-3-Copy-11" fill="#FFFFFF" fill-rule="evenodd" opacity="0.200000003" transform="translate(645.972903, 681.141602) scale(-1, 1) translate(-645.972903, -681.141602) " points="719.945806 763.283203 572 763.283203 572 599"></polygon>
                <polygon id="Path-3-Copy-16" fill="#FFFFFF" fill-rule="evenodd" opacity="0.100000001" transform="translate(794.972903, 846.141602) scale(1, -1) translate(-794.972903, -846.141602) " points="868.945806 928.283203 721 928.283203 721 764"></polygon>
                <polygon id="Path-3-Copy-12" fill="#FFFFFF" fill-rule="evenodd" opacity="0.100000001" transform="translate(496.972903, 681.141602) scale(-1, -1) translate(-496.972903, -681.141602) " points="570.945806 763.283203 423 763.283203 423 599"></polygon>
                <polygon id="Path-3-Copy-15" fill="#FFFFFF" fill-rule="evenodd" opacity="0.200000003" transform="translate(794.972903, 681.141602) scale(-1, -1) translate(-794.972903, -681.141602) " points="868.945806 763.283203 721 763.283203 721 599"></polygon>
                <polygon id="Path-3-Copy-17" fill="#FFFFFF" fill-rule="evenodd" opacity="0.100000001" transform="translate(966.809496, 883.641602) scale(-1, -1) translate(-966.809496, -883.641602) " points="1063.61899 1003.2832 870 1003.2832 870 764"></polygon>
                <polygon id="Path-3-Copy-18" fill="#FFFFFF" fill-rule="evenodd" opacity="0.100000001" transform="translate(966.809496, 643.641602) scale(-1, 1) translate(-966.809496, -643.641602) " points="1063.61899 763.283203 870 763.283203 870 524"></polygon>
                <polygon id="Path-3-Copy-13" fill="#FFFFFF" fill-rule="evenodd" opacity="0.100000001" transform="translate(496.972903, 846.141602) scale(-1, 1) translate(-496.972903, -846.141602) " points="570.945806 928.283203 423 928.283203 423 764"></polygon>
                <polygon id="Path-3-Copy-14" fill="#FFFFFF" fill-rule="evenodd" opacity="0.200000003" points="719.945806 928.283203 572 928.283203 572 764"></polygon>
                <polygon id="Path-3-Copy-20" fill="#FFFFFF" fill-rule="evenodd" opacity="0.200000003" points="721 931 860.182834 931 860.182834 1095.2832"></polygon>
                <polygon id="Path-3-Copy-21" fill="#FFFFFF" fill-rule="evenodd" opacity="0.100000001" points="861.174587 1096 1063.18283 1096 1063.18283 1322"></polygon>
                <polygon id="Path-3-Copy-19" fill="#FFFFFF" fill-rule="evenodd" opacity="0.300000012" points="1000.35742 931 861.174587 1095.2832 861.174587 931"></polygon>
                <polygon id="Path-3-Copy-6" fill="#FFFFFF" fill-rule="evenodd" opacity="0.200000003" points="1017.94581 264.283203 870 264.283203 870 100"></polygon>
                <polygon id="Path-3-Copy-7" fill="#FFFFFF" fill-rule="evenodd" opacity="0.100000001" transform="translate(794.972903, 182.141602) scale(-1, 1) translate(-794.972903, -182.141602) " points="868.945806 264.283203 721 264.283203 721 100"></polygon>
                <polygon id="Path-3-Copy-8" fill="#FFFFFF" fill-rule="evenodd" opacity="0.300000012" transform="translate(794.972903, 347.141602) scale(-1, -1) translate(-794.972903, -347.141602) " points="868.945806 429.283203 721 429.283203 721 265"></polygon>
                <polygon id="Path-3-Copy-10" fill="#FFFFFF" fill-rule="evenodd" opacity="0.100000001" transform="translate(967.136310, 534.500000) scale(-1, -1) translate(-967.136310, -534.500000) " points="1063.94581 642 870.326813 642 870.326813 427"></polygon>
                <polygon id="Path-3-Copy" fill="#FFFFFF" fill-rule="evenodd" opacity="0.100000001" transform="translate(230.972903, 347.141602) rotate(180.000000) translate(-230.972903, -347.141602) " points="299.945806 429.283203 162 429.283203 162 265"></polygon>
                <polygon id="Path-3-Copy-2" fill="#FFFFFF" fill-rule="evenodd" opacity="0.200000003" transform="translate(369.972903, 347.141602) scale(-1, 1) rotate(180.000000) translate(-369.972903, -347.141602) " points="438.945806 429.283203 301 429.283203 301 265"></polygon>
                <polygon id="Path-3-Copy-4" fill="#FFFFFF" fill-rule="evenodd" opacity="0.300000012" transform="translate(341.122741, 146.500000) rotate(180.000000) translate(-341.122741, -146.500000) " points="438.945806 263 243.299677 263 243.299677 30"></polygon>
                <polygon id="Path-3-Copy-5" fill="#FFFFFF" fill-rule="evenodd" opacity="0.200000003" transform="translate(260.122741, 146.500000) scale(-1, 1) rotate(180.000000) translate(-260.122741, -146.500000) " points="357.945806 263 162.299677 263 162.299677 30"></polygon>
                <rect id="Rectangle-15" x="0" y="0" width="1104" height="1344"></rect>
            </g>
        </g>
    </g>
</svg>