<?xml version="1.0" encoding="UTF-8"?>
<svg width="1344px" height="788px" viewBox="0 0 1344 788" version="1.1" xmlns="http://www.w3.org/2000/svg" xmlns:xlink="http://www.w3.org/1999/xlink">
    <!-- Generator: Sketch 47.1 (45422) - http://www.bohemiancoding.com/sketch -->
    <title>section-alignment</title>
    <desc>Created with Sketch.</desc>
    <defs></defs>
    <g id="Page-1" stroke="none" stroke-width="1" fill="none" fill-rule="evenodd" opacity="0.5">
        <g id="section-alignment">
            <g id="Group-Copy-2" transform="translate(1107.000000, 524.500000) scale(1, -1) translate(-1107.000000, -524.500000) translate(738.000000, 261.000000)">
                <polygon id="Path" fill="#FFFFFF" points="0.396264566 87.9809343 73.8846107 87.9809343 73.8846107 0.249258179"></polygon>
                <polygon id="Path-Copy" fill="#FFFFFF" transform="translate(110.690268, 44.115096) scale(-1, 1) translate(-110.690268, -44.115096) " points="73.9460951 87.9809343 147.434441 87.9809343 147.434441 0.249258179"></polygon>
                <polygon id="Path-Copy-4" fill="#F8F8F8" transform="translate(110.690268, 44.115096) scale(1, -1) translate(-110.690268, -44.115096) " points="73.9460951 87.9809343 147.434441 87.9809343 147.434441 0.249258179"></polygon>
                <polygon id="Path-Copy-3" fill="#F8F8F8" transform="translate(37.140438, 131.698192) scale(1, -1) translate(-37.140438, -131.698192) " points="0.396264566 175.56403 73.8846107 175.56403 73.8846107 87.8323541"></polygon>
                <polygon id="Path-Copy-2" fill="#F3F3F3" transform="translate(110.690268, 131.698192) scale(-1, -1) translate(-110.690268, -131.698192) " points="73.9460951 175.56403 147.434441 175.56403 147.434441 87.8323541"></polygon>
                <polygon id="Path-Copy-7" fill="#E7E8E9" transform="translate(37.140438, 44.115096) scale(-1, -1) translate(-37.140438, -44.115096) " points="0.396264566 87.9809343 73.8846107 87.9809343 73.8846107 0.249258179"></polygon>
                <polygon id="Path-Copy-6" fill="#FFFFFF" transform="translate(37.140438, 131.698192) scale(-1, 1) translate(-37.140438, -131.698192) " points="0.396264566 175.56403 73.8846107 175.56403 73.8846107 87.8323541"></polygon>
                <polygon id="Path-Copy-5" fill="#FFFFFF" points="73.9460951 175.56403 147.434441 175.56403 147.434441 87.8323541"></polygon>
                <polygon id="Path" fill="#FFFFFF" points="0.396264566 263.647601 73.8846107 263.647601 73.8846107 175.915925"></polygon>
                <polygon id="Path-Copy" fill="#FFFFFF" transform="translate(110.690268, 219.781763) scale(-1, 1) translate(-110.690268, -219.781763) " points="73.9460951 263.647601 147.434441 263.647601 147.434441 175.915925"></polygon>
                <polygon id="Path-Copy-4" fill="#FFFFFF" transform="translate(110.690268, 219.781763) scale(1, -1) translate(-110.690268, -219.781763) " points="73.9460951 263.647601 147.434441 263.647601 147.434441 175.915925"></polygon>
                <polygon id="Path-Copy-3" fill="#FAFBFB" transform="translate(37.140438, 307.364859) scale(1, -1) translate(-37.140438, -307.364859) " points="0.396264566 351.230697 73.8846107 351.230697 73.8846107 263.499021"></polygon>
                <polygon id="Path-Copy-2" fill="#F3F3F3" transform="translate(110.690268, 307.364859) scale(-1, -1) translate(-110.690268, -307.364859) " points="73.9460951 351.230697 147.434441 351.230697 147.434441 263.499021"></polygon>
                <polygon id="Path-Copy-7" fill="#F8F8F8" transform="translate(37.140438, 219.781763) scale(-1, -1) translate(-37.140438, -219.781763) " points="0.396264566 263.647601 73.8846107 263.647601 73.8846107 175.915925"></polygon>
                <polygon id="Path-Copy-6" fill="#FFFFFF" transform="translate(37.140438, 307.364859) scale(-1, 1) translate(-37.140438, -307.364859) " points="0.396264566 351.230697 73.8846107 351.230697 73.8846107 263.499021"></polygon>
                <polygon id="Path-Copy-5" fill="#FFFFFF" points="73.9460951 351.230697 147.434441 351.230697 147.434441 263.499021"></polygon>
                <polygon id="Path" fill="#FFFFFF" points="147.996265 87.9809343 221.484611 87.9809343 221.484611 0.249258179"></polygon>
                <polygon id="Path-Copy" fill="#F8F8F8" transform="translate(258.290268, 44.115096) scale(-1, 1) translate(-258.290268, -44.115096) " points="221.546095 87.9809343 295.034441 87.9809343 295.034441 0.249258179"></polygon>
                <polygon id="Path-Copy-4" fill="#FFFFFF" transform="translate(258.290268, 44.115096) scale(1, -1) translate(-258.290268, -44.115096) " points="221.546095 87.9809343 295.034441 87.9809343 295.034441 0.249258179"></polygon>
                <polygon id="Path-Copy-3" fill="#FFFFFF" transform="translate(184.740438, 131.698192) scale(1, -1) translate(-184.740438, -131.698192) " points="147.996265 175.56403 221.484611 175.56403 221.484611 87.8323541"></polygon>
                <polygon id="Path-Copy-2" fill="#FFFFFF" transform="translate(258.290268, 131.698192) scale(-1, -1) translate(-258.290268, -131.698192) " points="221.546095 175.56403 295.034441 175.56403 295.034441 87.8323541"></polygon>
                <polygon id="Path-Copy-7" fill="#FFFFFF" transform="translate(184.740438, 44.115096) scale(-1, -1) translate(-184.740438, -44.115096) " points="147.996265 87.9809343 221.484611 87.9809343 221.484611 0.249258179"></polygon>
                <polygon id="Path-Copy-6" fill="#FFFFFF" transform="translate(184.740438, 131.698192) scale(-1, 1) translate(-184.740438, -131.698192) " points="147.996265 175.56403 221.484611 175.56403 221.484611 87.8323541"></polygon>
                <polygon id="Path-Copy-5" fill="#FFFFFF" points="221.546095 175.56403 295.034441 175.56403 295.034441 87.8323541"></polygon>
                <polygon id="Path" fill="#F8F8F8" points="295.596265 87.9809343 369.084611 87.9809343 369.084611 0.249258179"></polygon>
                <polygon id="Path-Copy" fill="#F2F3F3" transform="translate(405.890268, 44.115096) scale(-1, 1) translate(-405.890268, -44.115096) " points="369.146095 87.9809343 442.634441 87.9809343 442.634441 0.249258179"></polygon>
                <polygon id="Path-Copy-4" fill="#FFFFFF" transform="translate(405.890268, 44.115096) scale(1, -1) translate(-405.890268, -44.115096) " points="369.146095 87.9809343 442.634441 87.9809343 442.634441 0.249258179"></polygon>
                <polygon id="Path-Copy-3" fill="#FFFFFF" transform="translate(332.340438, 131.698192) scale(1, -1) translate(-332.340438, -131.698192) " points="295.596265 175.56403 369.084611 175.56403 369.084611 87.8323541"></polygon>
                <polygon id="Path-Copy-2" fill="#FFFFFF" transform="translate(405.890268, 131.698192) scale(-1, -1) translate(-405.890268, -131.698192) " points="369.146095 175.56403 442.634441 175.56403 442.634441 87.8323541"></polygon>
                <polygon id="Path-Copy-7" fill="#FFFFFF" transform="translate(332.340438, 44.115096) scale(-1, -1) translate(-332.340438, -44.115096) " points="295.596265 87.9809343 369.084611 87.9809343 369.084611 0.249258179"></polygon>
                <polygon id="Path-Copy-6" fill="#FFFFFF" transform="translate(332.340438, 131.698192) scale(-1, 1) translate(-332.340438, -131.698192) " points="295.596265 175.56403 369.084611 175.56403 369.084611 87.8323541"></polygon>
                <polygon id="Path-Copy-5" fill="#FFFFFF" points="369.146095 175.56403 442.634441 175.56403 442.634441 87.8323541"></polygon>
                <polygon id="Path" fill="#FFFFFF" points="443.196265 87.9809343 516.684611 87.9809343 516.684611 0.249258179"></polygon>
                <polygon id="Path-Copy" fill="#FFFFFF" transform="translate(553.490268, 44.115096) scale(-1, 1) translate(-553.490268, -44.115096) " points="516.746095 87.9809343 590.234441 87.9809343 590.234441 0.249258179"></polygon>
                <polygon id="Path-Copy-4" fill="#FFFFFF" transform="translate(553.490268, 44.115096) scale(1, -1) translate(-553.490268, -44.115096) " points="516.746095 87.9809343 590.234441 87.9809343 590.234441 0.249258179"></polygon>
                <polygon id="Path-Copy-3" fill="#F2F3F3" transform="translate(479.940438, 131.698192) scale(1, -1) translate(-479.940438, -131.698192) " points="443.196265 175.56403 516.684611 175.56403 516.684611 87.8323541"></polygon>
                <polygon id="Path-Copy-2" fill="#FFFFFF" transform="translate(553.490268, 131.698192) scale(-1, -1) translate(-553.490268, -131.698192) " points="516.746095 175.56403 590.234441 175.56403 590.234441 87.8323541"></polygon>
                <polygon id="Path-Copy-7" fill="#F8F8F8" transform="translate(479.940438, 44.115096) scale(-1, -1) translate(-479.940438, -44.115096) " points="443.196265 87.9809343 516.684611 87.9809343 516.684611 0.249258179"></polygon>
                <polygon id="Path-Copy-6" fill="#FFFFFF" transform="translate(479.940438, 131.698192) scale(-1, 1) translate(-479.940438, -131.698192) " points="443.196265 175.56403 516.684611 175.56403 516.684611 87.8323541"></polygon>
                <polygon id="Path-Copy-5" fill="#FFFFFF" points="516.746095 175.56403 590.234441 175.56403 590.234441 87.8323541"></polygon>
                <polygon id="Path" fill="#FFFFFF" points="590.796265 87.9809343 664.284611 87.9809343 664.284611 0.249258179"></polygon>
                <polygon id="Path-Copy-3" fill="#FFFFFF" transform="translate(627.540438, 131.698192) scale(1, -1) translate(-627.540438, -131.698192) " points="590.796265 175.56403 664.284611 175.56403 664.284611 87.8323541"></polygon>
                <polygon id="Path-Copy-7" fill="#F8F8F8" transform="translate(627.540438, 44.115096) scale(-1, -1) translate(-627.540438, -44.115096) " points="590.796265 87.9809343 664.284611 87.9809343 664.284611 0.249258179"></polygon>
                <polygon id="Path-Copy-6" fill="#FFFFFF" transform="translate(627.540438, 131.698192) scale(-1, 1) translate(-627.540438, -131.698192) " points="590.796265 175.56403 664.284611 175.56403 664.284611 87.8323541"></polygon>
                <polygon id="Path" fill="#FBFBFB" opacity="0.400000006" points="147.996265 263.647601 221.484611 263.647601 221.484611 175.915925"></polygon>
                <polygon id="Path-Copy" fill="#FFFFFF" transform="translate(258.290268, 219.781763) scale(-1, 1) translate(-258.290268, -219.781763) " points="221.546095 263.647601 295.034441 263.647601 295.034441 175.915925"></polygon>
                <polygon id="Path-Copy-4" fill="#FFFFFF" transform="translate(258.290268, 219.781763) scale(1, -1) translate(-258.290268, -219.781763) " points="221.546095 263.647601 295.034441 263.647601 295.034441 175.915925"></polygon>
                <polygon id="Path-Copy-3" fill="#FFFFFF" transform="translate(184.740438, 307.364859) scale(1, -1) translate(-184.740438, -307.364859) " points="147.996265 351.230697 221.484611 351.230697 221.484611 263.499021"></polygon>
                <polygon id="Path-Copy-2" fill="#FFFFFF" transform="translate(258.290268, 307.364859) scale(-1, -1) translate(-258.290268, -307.364859) " points="221.546095 351.230697 295.034441 351.230697 295.034441 263.499021"></polygon>
                <polygon id="Path-Copy-7" fill="#FFFFFF" transform="translate(184.740438, 219.781763) scale(-1, -1) translate(-184.740438, -219.781763) " points="147.996265 263.647601 221.484611 263.647601 221.484611 175.915925"></polygon>
                <polygon id="Path-Copy-6" fill="#FFFFFF" transform="translate(184.740438, 307.364859) scale(-1, 1) translate(-184.740438, -307.364859) " points="147.996265 351.230697 221.484611 351.230697 221.484611 263.499021"></polygon>
                <polygon id="Path-Copy-5" fill="#F2F3F3" points="221.546095 351.230697 295.034441 351.230697 295.034441 263.499021"></polygon>
                <polygon id="Path" fill="#FFFFFF" points="295.596265 263.647601 369.084611 263.647601 369.084611 175.915925"></polygon>
                <polygon id="Path-Copy" fill="#FFFFFF" transform="translate(405.890268, 219.781763) scale(-1, 1) translate(-405.890268, -219.781763) " points="369.146095 263.647601 442.634441 263.647601 442.634441 175.915925"></polygon>
                <polygon id="Path-Copy-4" fill="#FFFFFF" transform="translate(405.890268, 219.781763) scale(1, -1) translate(-405.890268, -219.781763) " points="369.146095 263.647601 442.634441 263.647601 442.634441 175.915925"></polygon>
                <polygon id="Path-Copy-3" fill="#FFFFFF" transform="translate(332.340438, 307.364859) scale(1, -1) translate(-332.340438, -307.364859) " points="295.596265 351.230697 369.084611 351.230697 369.084611 263.499021"></polygon>
                <polygon id="Path-Copy-2" fill="#FFFFFF" transform="translate(405.890268, 307.364859) scale(-1, -1) translate(-405.890268, -307.364859) " points="369.146095 351.230697 442.634441 351.230697 442.634441 263.499021"></polygon>
                <polygon id="Path-Copy-7" fill="#FFFFFF" transform="translate(332.340438, 219.781763) scale(-1, -1) translate(-332.340438, -219.781763) " points="295.596265 263.647601 369.084611 263.647601 369.084611 175.915925"></polygon>
                <polygon id="Path-Copy-6" fill="#FAFBFB" transform="translate(332.340438, 307.364859) scale(-1, 1) translate(-332.340438, -307.364859) " points="295.596265 351.230697 369.084611 351.230697 369.084611 263.499021"></polygon>
                <polygon id="Path-Copy-5" fill="#F8F8F8" points="369.146095 351.230697 442.634441 351.230697 442.634441 263.499021"></polygon>
                <polygon id="Path" fill="#FFFFFF" points="443.196265 263.647601 516.684611 263.647601 516.684611 175.915925"></polygon>
                <polygon id="Path-Copy" fill="#FFFFFF" transform="translate(553.490268, 219.781763) scale(-1, 1) translate(-553.490268, -219.781763) " points="516.746095 263.647601 590.234441 263.647601 590.234441 175.915925"></polygon>
                <polygon id="Path-Copy-4" fill="#F8F8F8" transform="translate(553.490268, 219.781763) scale(1, -1) translate(-553.490268, -219.781763) " points="516.746095 263.647601 590.234441 263.647601 590.234441 175.915925"></polygon>
                <polygon id="Path-Copy-3" fill="#FFFFFF" transform="translate(479.940438, 307.364859) scale(1, -1) translate(-479.940438, -307.364859) " points="443.196265 351.230697 516.684611 351.230697 516.684611 263.499021"></polygon>
                <polygon id="Path-Copy-2" fill="#FFFFFF" transform="translate(553.490268, 307.364859) scale(-1, -1) translate(-553.490268, -307.364859) " points="516.746095 351.230697 590.234441 351.230697 590.234441 263.499021"></polygon>
                <polygon id="Path-Copy-7" fill="#FFFFFF" transform="translate(479.940438, 219.781763) scale(-1, -1) translate(-479.940438, -219.781763) " points="443.196265 263.647601 516.684611 263.647601 516.684611 175.915925"></polygon>
                <polygon id="Path-Copy-6" fill="#F2F3F3" transform="translate(479.940438, 307.364859) scale(-1, 1) translate(-479.940438, -307.364859) " points="443.196265 351.230697 516.684611 351.230697 516.684611 263.499021"></polygon>
                <polygon id="Path-Copy-5" fill="#F8F8F8" points="516.746095 351.230697 590.234441 351.230697 590.234441 263.499021"></polygon>
                <polygon id="Path" fill="#FFFFFF" points="590.796265 263.647601 664.284611 263.647601 664.284611 175.915925"></polygon>
                <polygon id="Path-Copy-3" fill="#F3F3F3" transform="translate(627.540438, 307.364859) scale(1, -1) translate(-627.540438, -307.364859) " points="590.796265 351.230697 664.284611 351.230697 664.284611 263.499021"></polygon>
                <polygon id="Path-Copy-7" fill="#FFFFFF" transform="translate(627.540438, 219.781763) scale(-1, -1) translate(-627.540438, -219.781763) " points="590.796265 263.647601 664.284611 263.647601 664.284611 175.915925"></polygon>
                <polygon id="Path-Copy-6" fill="#FFFFFF" transform="translate(627.540438, 307.364859) scale(-1, 1) translate(-627.540438, -307.364859) " points="590.796265 351.230697 664.284611 351.230697 664.284611 263.499021"></polygon>
                <polygon id="Path" fill="#F8F8F8" points="0.396264566 439.314268 73.8846107 439.314268 73.8846107 351.582592"></polygon>
                <polygon id="Path-Copy" fill="#F2F3F3" transform="translate(110.690268, 395.448430) scale(-1, 1) translate(-110.690268, -395.448430) " points="73.9460951 439.314268 147.434441 439.314268 147.434441 351.582592"></polygon>
                <polygon id="Path-Copy-4" fill="#FFFFFF" transform="translate(110.690268, 395.448430) scale(1, -1) translate(-110.690268, -395.448430) " points="73.9460951 439.314268 147.434441 439.314268 147.434441 351.582592"></polygon>
                <polygon id="Path-Copy-7" fill="#FFFFFF" transform="translate(37.140438, 395.448430) scale(-1, -1) translate(-37.140438, -395.448430) " points="0.396264566 439.314268 73.8846107 439.314268 73.8846107 351.582592"></polygon>
                <polygon id="Path" fill="#FFFFFF" points="147.996265 439.314268 221.484611 439.314268 221.484611 351.582592"></polygon>
                <polygon id="Path-Copy" fill="#FFFFFF" transform="translate(258.290268, 395.448430) scale(-1, 1) translate(-258.290268, -395.448430) " points="221.546095 439.314268 295.034441 439.314268 295.034441 351.582592"></polygon>
                <polygon id="Path-Copy-4" fill="#FFFFFF" transform="translate(258.290268, 395.448430) scale(1, -1) translate(-258.290268, -395.448430) " points="221.546095 439.314268 295.034441 439.314268 295.034441 351.582592"></polygon>
                <polygon id="Path-Copy-7" fill="#F2F3F3" transform="translate(184.740438, 395.448430) scale(-1, -1) translate(-184.740438, -395.448430) " points="147.996265 439.314268 221.484611 439.314268 221.484611 351.582592"></polygon>
                <polygon id="Path" fill="#FFFFFF" points="295.596265 439.314268 369.084611 439.314268 369.084611 351.582592"></polygon>
                <polygon id="Path-Copy" fill="#FFFFFF" transform="translate(405.890268, 395.448430) scale(-1, 1) translate(-405.890268, -395.448430) " points="369.146095 439.314268 442.634441 439.314268 442.634441 351.582592"></polygon>
                <polygon id="Path-Copy-4" fill="#FFFFFF" transform="translate(405.890268, 395.448430) scale(1, -1) translate(-405.890268, -395.448430) " points="369.146095 439.314268 442.634441 439.314268 442.634441 351.582592"></polygon>
                <polygon id="Path-Copy-7" fill="#FFFFFF" transform="translate(332.340438, 395.448430) scale(-1, -1) translate(-332.340438, -395.448430) " points="295.596265 439.314268 369.084611 439.314268 369.084611 351.582592"></polygon>
                <polygon id="Path" fill="#FFFFFF" points="443.196265 439.314268 516.684611 439.314268 516.684611 351.582592"></polygon>
                <polygon id="Path-Copy" fill="#FFFFFF" transform="translate(553.490268, 395.448430) scale(-1, 1) translate(-553.490268, -395.448430) " points="516.746095 439.314268 590.234441 439.314268 590.234441 351.582592"></polygon>
                <polygon id="Path-Copy-4" fill="#FFFFFF" transform="translate(553.490268, 395.448430) scale(1, -1) translate(-553.490268, -395.448430) " points="516.746095 439.314268 590.234441 439.314268 590.234441 351.582592"></polygon>
                <polygon id="Path-Copy-7" fill="#FFFFFF" transform="translate(479.940438, 395.448430) scale(-1, -1) translate(-479.940438, -395.448430) " points="443.196265 439.314268 516.684611 439.314268 516.684611 351.582592"></polygon>
                <polygon id="Path" fill="#FFFFFF" points="590.796265 439.314268 664.284611 439.314268 664.284611 351.582592"></polygon>
                <polygon id="Path-Copy-7" fill="#FFFFFF" transform="translate(627.540438, 395.448430) scale(-1, -1) translate(-627.540438, -395.448430) " points="590.796265 439.314268 664.284611 439.314268 664.284611 351.582592"></polygon>
            </g>
            <g id="Group">
                <polygon id="Path" fill="#FFFFFF" points="0.396264566 87.9809343 73.8846107 87.9809343 73.8846107 0.249258179"></polygon>
                <polygon id="Path-Copy" fill="#FFFFFF" transform="translate(110.690268, 44.115096) scale(-1, 1) translate(-110.690268, -44.115096) " points="73.9460951 87.9809343 147.434441 87.9809343 147.434441 0.249258179"></polygon>
                <polygon id="Path-Copy-4" fill="#F8F8F8" transform="translate(110.690268, 44.115096) scale(1, -1) translate(-110.690268, -44.115096) " points="73.9460951 87.9809343 147.434441 87.9809343 147.434441 0.249258179"></polygon>
                <polygon id="Path-Copy-3" fill="#F8F8F8" transform="translate(37.140438, 131.698192) scale(1, -1) translate(-37.140438, -131.698192) " points="0.396264566 175.56403 73.8846107 175.56403 73.8846107 87.8323541"></polygon>
                <polygon id="Path-Copy-2" fill="#F3F3F3" transform="translate(110.690268, 131.698192) scale(-1, -1) translate(-110.690268, -131.698192) " points="73.9460951 175.56403 147.434441 175.56403 147.434441 87.8323541"></polygon>
                <polygon id="Path-Copy-7" fill="#E7E8E9" transform="translate(37.140438, 44.115096) scale(-1, -1) translate(-37.140438, -44.115096) " points="0.396264566 87.9809343 73.8846107 87.9809343 73.8846107 0.249258179"></polygon>
                <polygon id="Path-Copy-6" fill="#FFFFFF" transform="translate(37.140438, 131.698192) scale(-1, 1) translate(-37.140438, -131.698192) " points="0.396264566 175.56403 73.8846107 175.56403 73.8846107 87.8323541"></polygon>
                <polygon id="Path-Copy-5" fill="#FFFFFF" points="73.9460951 175.56403 147.434441 175.56403 147.434441 87.8323541"></polygon>
                <polygon id="Path" fill="#FFFFFF" points="0.396264566 263.647601 73.8846107 263.647601 73.8846107 175.915925"></polygon>
                <polygon id="Path-Copy" fill="#FFFFFF" transform="translate(110.690268, 219.781763) scale(-1, 1) translate(-110.690268, -219.781763) " points="73.9460951 263.647601 147.434441 263.647601 147.434441 175.915925"></polygon>
                <polygon id="Path-Copy-4" fill="#FFFFFF" transform="translate(110.690268, 219.781763) scale(1, -1) translate(-110.690268, -219.781763) " points="73.9460951 263.647601 147.434441 263.647601 147.434441 175.915925"></polygon>
                <polygon id="Path-Copy-3" fill="#FAFBFB" transform="translate(37.140438, 307.364859) scale(1, -1) translate(-37.140438, -307.364859) " points="0.396264566 351.230697 73.8846107 351.230697 73.8846107 263.499021"></polygon>
                <polygon id="Path-Copy-2" fill="#F3F3F3" transform="translate(110.690268, 307.364859) scale(-1, -1) translate(-110.690268, -307.364859) " points="73.9460951 351.230697 147.434441 351.230697 147.434441 263.499021"></polygon>
                <polygon id="Path-Copy-7" fill="#F8F8F8" transform="translate(37.140438, 219.781763) scale(-1, -1) translate(-37.140438, -219.781763) " points="0.396264566 263.647601 73.8846107 263.647601 73.8846107 175.915925"></polygon>
                <polygon id="Path-Copy-6" fill="#FFFFFF" transform="translate(37.140438, 307.364859) scale(-1, 1) translate(-37.140438, -307.364859) " points="0.396264566 351.230697 73.8846107 351.230697 73.8846107 263.499021"></polygon>
                <polygon id="Path-Copy-5" fill="#FFFFFF" points="73.9460951 351.230697 147.434441 351.230697 147.434441 263.499021"></polygon>
                <polygon id="Path" fill="#FFFFFF" points="147.996265 87.9809343 221.484611 87.9809343 221.484611 0.249258179"></polygon>
                <polygon id="Path-Copy" fill="#F8F8F8" transform="translate(258.290268, 44.115096) scale(-1, 1) translate(-258.290268, -44.115096) " points="221.546095 87.9809343 295.034441 87.9809343 295.034441 0.249258179"></polygon>
                <polygon id="Path-Copy-4" fill="#FFFFFF" transform="translate(258.290268, 44.115096) scale(1, -1) translate(-258.290268, -44.115096) " points="221.546095 87.9809343 295.034441 87.9809343 295.034441 0.249258179"></polygon>
                <polygon id="Path-Copy-3" fill="#FFFFFF" transform="translate(184.740438, 131.698192) scale(1, -1) translate(-184.740438, -131.698192) " points="147.996265 175.56403 221.484611 175.56403 221.484611 87.8323541"></polygon>
                <polygon id="Path-Copy-2" fill="#FFFFFF" transform="translate(258.290268, 131.698192) scale(-1, -1) translate(-258.290268, -131.698192) " points="221.546095 175.56403 295.034441 175.56403 295.034441 87.8323541"></polygon>
                <polygon id="Path-Copy-7" fill="#FFFFFF" transform="translate(184.740438, 44.115096) scale(-1, -1) translate(-184.740438, -44.115096) " points="147.996265 87.9809343 221.484611 87.9809343 221.484611 0.249258179"></polygon>
                <polygon id="Path-Copy-6" fill="#FFFFFF" transform="translate(184.740438, 131.698192) scale(-1, 1) translate(-184.740438, -131.698192) " points="147.996265 175.56403 221.484611 175.56403 221.484611 87.8323541"></polygon>
                <polygon id="Path-Copy-5" fill="#FFFFFF" points="221.546095 175.56403 295.034441 175.56403 295.034441 87.8323541"></polygon>
                <polygon id="Path" fill="#F8F8F8" points="295.596265 87.9809343 369.084611 87.9809343 369.084611 0.249258179"></polygon>
                <polygon id="Path-Copy" fill="#F2F3F3" transform="translate(405.890268, 44.115096) scale(-1, 1) translate(-405.890268, -44.115096) " points="369.146095 87.9809343 442.634441 87.9809343 442.634441 0.249258179"></polygon>
                <polygon id="Path-Copy-4" fill="#FFFFFF" transform="translate(405.890268, 44.115096) scale(1, -1) translate(-405.890268, -44.115096) " points="369.146095 87.9809343 442.634441 87.9809343 442.634441 0.249258179"></polygon>
                <polygon id="Path-Copy-3" fill="#FFFFFF" transform="translate(332.340438, 131.698192) scale(1, -1) translate(-332.340438, -131.698192) " points="295.596265 175.56403 369.084611 175.56403 369.084611 87.8323541"></polygon>
                <polygon id="Path-Copy-2" fill="#FFFFFF" transform="translate(405.890268, 131.698192) scale(-1, -1) translate(-405.890268, -131.698192) " points="369.146095 175.56403 442.634441 175.56403 442.634441 87.8323541"></polygon>
                <polygon id="Path-Copy-7" fill="#FFFFFF" transform="translate(332.340438, 44.115096) scale(-1, -1) translate(-332.340438, -44.115096) " points="295.596265 87.9809343 369.084611 87.9809343 369.084611 0.249258179"></polygon>
                <polygon id="Path-Copy-6" fill="#FFFFFF" transform="translate(332.340438, 131.698192) scale(-1, 1) translate(-332.340438, -131.698192) " points="295.596265 175.56403 369.084611 175.56403 369.084611 87.8323541"></polygon>
                <polygon id="Path-Copy-5" fill="#FFFFFF" points="369.146095 175.56403 442.634441 175.56403 442.634441 87.8323541"></polygon>
                <polygon id="Path" fill="#FFFFFF" points="443.196265 87.9809343 516.684611 87.9809343 516.684611 0.249258179"></polygon>
                <polygon id="Path-Copy" fill="#FFFFFF" transform="translate(553.490268, 44.115096) scale(-1, 1) translate(-553.490268, -44.115096) " points="516.746095 87.9809343 590.234441 87.9809343 590.234441 0.249258179"></polygon>
                <polygon id="Path-Copy-4" fill="#FFFFFF" transform="translate(553.490268, 44.115096) scale(1, -1) translate(-553.490268, -44.115096) " points="516.746095 87.9809343 590.234441 87.9809343 590.234441 0.249258179"></polygon>
                <polygon id="Path-Copy-3" fill="#F2F3F3" transform="translate(479.940438, 131.698192) scale(1, -1) translate(-479.940438, -131.698192) " points="443.196265 175.56403 516.684611 175.56403 516.684611 87.8323541"></polygon>
                <polygon id="Path-Copy-2" fill="#FFFFFF" transform="translate(553.490268, 131.698192) scale(-1, -1) translate(-553.490268, -131.698192) " points="516.746095 175.56403 590.234441 175.56403 590.234441 87.8323541"></polygon>
                <polygon id="Path-Copy-7" fill="#F8F8F8" transform="translate(479.940438, 44.115096) scale(-1, -1) translate(-479.940438, -44.115096) " points="443.196265 87.9809343 516.684611 87.9809343 516.684611 0.249258179"></polygon>
                <polygon id="Path-Copy-6" fill="#FFFFFF" transform="translate(479.940438, 131.698192) scale(-1, 1) translate(-479.940438, -131.698192) " points="443.196265 175.56403 516.684611 175.56403 516.684611 87.8323541"></polygon>
                <polygon id="Path-Copy-5" fill="#FFFFFF" points="516.746095 175.56403 590.234441 175.56403 590.234441 87.8323541"></polygon>
                <polygon id="Path" fill="#FFFFFF" points="590.796265 87.9809343 664.284611 87.9809343 664.284611 0.249258179"></polygon>
                <polygon id="Path-Copy" fill="#FFFFFF" transform="translate(701.090268, 44.115096) scale(-1, 1) translate(-701.090268, -44.115096) " points="664.346095 87.9809343 737.834441 87.9809343 737.834441 0.249258179"></polygon>
                <polygon id="Path-Copy-4" fill="#FFFFFF" transform="translate(701.090268, 44.115096) scale(1, -1) translate(-701.090268, -44.115096) " points="664.346095 87.9809343 737.834441 87.9809343 737.834441 0.249258179"></polygon>
                <polygon id="Path-Copy-3" fill="#FFFFFF" transform="translate(627.540438, 131.698192) scale(1, -1) translate(-627.540438, -131.698192) " points="590.796265 175.56403 664.284611 175.56403 664.284611 87.8323541"></polygon>
                <polygon id="Path-Copy-2" fill="#FFFFFF" transform="translate(701.090268, 131.698192) scale(-1, -1) translate(-701.090268, -131.698192) " points="664.346095 175.56403 737.834441 175.56403 737.834441 87.8323541"></polygon>
                <polygon id="Path-Copy-7" fill="#F8F8F8" transform="translate(627.540438, 44.115096) scale(-1, -1) translate(-627.540438, -44.115096) " points="590.796265 87.9809343 664.284611 87.9809343 664.284611 0.249258179"></polygon>
                <polygon id="Path-Copy-6" fill="#FFFFFF" transform="translate(627.540438, 131.698192) scale(-1, 1) translate(-627.540438, -131.698192) " points="590.796265 175.56403 664.284611 175.56403 664.284611 87.8323541"></polygon>
                <polygon id="Path-Copy-5" fill="#FFFFFF" points="664.346095 175.56403 737.834441 175.56403 737.834441 87.8323541"></polygon>
                <polygon id="Path" fill="#43A844" opacity="0.400000006" points="147.996265 263.647601 221.484611 263.647601 221.484611 175.915925"></polygon>
                <polygon id="Path-Copy" fill="#FFFFFF" transform="translate(258.290268, 219.781763) scale(-1, 1) translate(-258.290268, -219.781763) " points="221.546095 263.647601 295.034441 263.647601 295.034441 175.915925"></polygon>
                <polygon id="Path-Copy-4" fill="#FFFFFF" transform="translate(258.290268, 219.781763) scale(1, -1) translate(-258.290268, -219.781763) " points="221.546095 263.647601 295.034441 263.647601 295.034441 175.915925"></polygon>
                <polygon id="Path-Copy-3" fill="#FFFFFF" transform="translate(184.740438, 307.364859) scale(1, -1) translate(-184.740438, -307.364859) " points="147.996265 351.230697 221.484611 351.230697 221.484611 263.499021"></polygon>
                <polygon id="Path-Copy-2" fill="#FFFFFF" transform="translate(258.290268, 307.364859) scale(-1, -1) translate(-258.290268, -307.364859) " points="221.546095 351.230697 295.034441 351.230697 295.034441 263.499021"></polygon>
                <polygon id="Path-Copy-7" fill="#FFFFFF" transform="translate(184.740438, 219.781763) scale(-1, -1) translate(-184.740438, -219.781763) " points="147.996265 263.647601 221.484611 263.647601 221.484611 175.915925"></polygon>
                <polygon id="Path-Copy-6" fill="#FFFFFF" transform="translate(184.740438, 307.364859) scale(-1, 1) translate(-184.740438, -307.364859) " points="147.996265 351.230697 221.484611 351.230697 221.484611 263.499021"></polygon>
                <polygon id="Path-Copy-5" fill="#F2F3F3" points="221.546095 351.230697 295.034441 351.230697 295.034441 263.499021"></polygon>
                <polygon id="Path" fill="#FFFFFF" points="295.596265 263.647601 369.084611 263.647601 369.084611 175.915925"></polygon>
                <polygon id="Path-Copy" fill="#FFFFFF" transform="translate(405.890268, 219.781763) scale(-1, 1) translate(-405.890268, -219.781763) " points="369.146095 263.647601 442.634441 263.647601 442.634441 175.915925"></polygon>
                <polygon id="Path-Copy-4" fill="#FFFFFF" transform="translate(405.890268, 219.781763) scale(1, -1) translate(-405.890268, -219.781763) " points="369.146095 263.647601 442.634441 263.647601 442.634441 175.915925"></polygon>
                <polygon id="Path-Copy-3" fill="#FFFFFF" transform="translate(332.340438, 307.364859) scale(1, -1) translate(-332.340438, -307.364859) " points="295.596265 351.230697 369.084611 351.230697 369.084611 263.499021"></polygon>
                <polygon id="Path-Copy-2" fill="#FFFFFF" transform="translate(405.890268, 307.364859) scale(-1, -1) translate(-405.890268, -307.364859) " points="369.146095 351.230697 442.634441 351.230697 442.634441 263.499021"></polygon>
                <polygon id="Path-Copy-7" fill="#FFFFFF" transform="translate(332.340438, 219.781763) scale(-1, -1) translate(-332.340438, -219.781763) " points="295.596265 263.647601 369.084611 263.647601 369.084611 175.915925"></polygon>
                <polygon id="Path-Copy-6" fill="#FAFBFB" transform="translate(332.340438, 307.364859) scale(-1, 1) translate(-332.340438, -307.364859) " points="295.596265 351.230697 369.084611 351.230697 369.084611 263.499021"></polygon>
                <polygon id="Path-Copy-5" fill="#F8F8F8" points="369.146095 351.230697 442.634441 351.230697 442.634441 263.499021"></polygon>
                <polygon id="Path" fill="#FFFFFF" points="443.196265 263.647601 516.684611 263.647601 516.684611 175.915925"></polygon>
                <polygon id="Path-Copy" fill="#FFFFFF" transform="translate(553.490268, 219.781763) scale(-1, 1) translate(-553.490268, -219.781763) " points="516.746095 263.647601 590.234441 263.647601 590.234441 175.915925"></polygon>
                <polygon id="Path-Copy-4" fill="#F8F8F8" transform="translate(553.490268, 219.781763) scale(1, -1) translate(-553.490268, -219.781763) " points="516.746095 263.647601 590.234441 263.647601 590.234441 175.915925"></polygon>
                <polygon id="Path-Copy-3" fill="#FFFFFF" transform="translate(479.940438, 307.364859) scale(1, -1) translate(-479.940438, -307.364859) " points="443.196265 351.230697 516.684611 351.230697 516.684611 263.499021"></polygon>
                <polygon id="Path-Copy-2" fill="#FFFFFF" transform="translate(553.490268, 307.364859) scale(-1, -1) translate(-553.490268, -307.364859) " points="516.746095 351.230697 590.234441 351.230697 590.234441 263.499021"></polygon>
                <polygon id="Path-Copy-7" fill="#FFFFFF" transform="translate(479.940438, 219.781763) scale(-1, -1) translate(-479.940438, -219.781763) " points="443.196265 263.647601 516.684611 263.647601 516.684611 175.915925"></polygon>
                <polygon id="Path-Copy-6" fill="#F2F3F3" transform="translate(479.940438, 307.364859) scale(-1, 1) translate(-479.940438, -307.364859) " points="443.196265 351.230697 516.684611 351.230697 516.684611 263.499021"></polygon>
                <polygon id="Path-Copy-5" fill="#F8F8F8" points="516.746095 351.230697 590.234441 351.230697 590.234441 263.499021"></polygon>
                <polygon id="Path" fill="#FFFFFF" points="590.796265 263.647601 664.284611 263.647601 664.284611 175.915925"></polygon>
                <polygon id="Path-Copy" fill="#FFFFFF" transform="translate(701.090268, 219.781763) scale(-1, 1) translate(-701.090268, -219.781763) " points="664.346095 263.647601 737.834441 263.647601 737.834441 175.915925"></polygon>
                <polygon id="Path-Copy-4" fill="#FFFFFF" transform="translate(701.090268, 219.781763) scale(1, -1) translate(-701.090268, -219.781763) " points="664.346095 263.647601 737.834441 263.647601 737.834441 175.915925"></polygon>
                <polygon id="Path-Copy-3" fill="#F3F3F3" transform="translate(627.540438, 307.364859) scale(1, -1) translate(-627.540438, -307.364859) " points="590.796265 351.230697 664.284611 351.230697 664.284611 263.499021"></polygon>
                <polygon id="Path-Copy-2" fill="#FFFFFF" transform="translate(701.090268, 307.364859) scale(-1, -1) translate(-701.090268, -307.364859) " points="664.346095 351.230697 737.834441 351.230697 737.834441 263.499021"></polygon>
                <polygon id="Path-Copy-7" fill="#FFFFFF" transform="translate(627.540438, 219.781763) scale(-1, -1) translate(-627.540438, -219.781763) " points="590.796265 263.647601 664.284611 263.647601 664.284611 175.915925"></polygon>
                <polygon id="Path-Copy-6" fill="#FFFFFF" transform="translate(627.540438, 307.364859) scale(-1, 1) translate(-627.540438, -307.364859) " points="590.796265 351.230697 664.284611 351.230697 664.284611 263.499021"></polygon>
                <polygon id="Path-Copy-5" fill="#FFFFFF" points="664.346095 351.230697 737.834441 351.230697 737.834441 263.499021"></polygon>
                <polygon id="Path" fill="#F8F8F8" points="0.396264566 439.314268 73.8846107 439.314268 73.8846107 351.582592"></polygon>
                <polygon id="Path-Copy" fill="#F2F3F3" transform="translate(110.690268, 395.448430) scale(-1, 1) translate(-110.690268, -395.448430) " points="73.9460951 439.314268 147.434441 439.314268 147.434441 351.582592"></polygon>
                <polygon id="Path-Copy-4" fill="#FFFFFF" transform="translate(110.690268, 395.448430) scale(1, -1) translate(-110.690268, -395.448430) " points="73.9460951 439.314268 147.434441 439.314268 147.434441 351.582592"></polygon>
                <polygon id="Path-Copy-7" fill="#FFFFFF" transform="translate(37.140438, 395.448430) scale(-1, -1) translate(-37.140438, -395.448430) " points="0.396264566 439.314268 73.8846107 439.314268 73.8846107 351.582592"></polygon>
                <polygon id="Path" fill="#FFFFFF" points="147.996265 439.314268 221.484611 439.314268 221.484611 351.582592"></polygon>
                <polygon id="Path-Copy" fill="#FFFFFF" transform="translate(258.290268, 395.448430) scale(-1, 1) translate(-258.290268, -395.448430) " points="221.546095 439.314268 295.034441 439.314268 295.034441 351.582592"></polygon>
                <polygon id="Path-Copy-4" fill="#FFFFFF" transform="translate(258.290268, 395.448430) scale(1, -1) translate(-258.290268, -395.448430) " points="221.546095 439.314268 295.034441 439.314268 295.034441 351.582592"></polygon>
                <polygon id="Path-Copy-7" fill="#F2F3F3" transform="translate(184.740438, 395.448430) scale(-1, -1) translate(-184.740438, -395.448430) " points="147.996265 439.314268 221.484611 439.314268 221.484611 351.582592"></polygon>
                <polygon id="Path" fill="#FFFFFF" points="295.596265 439.314268 369.084611 439.314268 369.084611 351.582592"></polygon>
                <polygon id="Path-Copy" fill="#FFFFFF" transform="translate(405.890268, 395.448430) scale(-1, 1) translate(-405.890268, -395.448430) " points="369.146095 439.314268 442.634441 439.314268 442.634441 351.582592"></polygon>
                <polygon id="Path-Copy-4" fill="#FFFFFF" transform="translate(405.890268, 395.448430) scale(1, -1) translate(-405.890268, -395.448430) " points="369.146095 439.314268 442.634441 439.314268 442.634441 351.582592"></polygon>
                <polygon id="Path-Copy-7" fill="#FFFFFF" transform="translate(332.340438, 395.448430) scale(-1, -1) translate(-332.340438, -395.448430) " points="295.596265 439.314268 369.084611 439.314268 369.084611 351.582592"></polygon>
                <polygon id="Path" fill="#FFFFFF" points="443.196265 439.314268 516.684611 439.314268 516.684611 351.582592"></polygon>
                <polygon id="Path-Copy" fill="#FFFFFF" transform="translate(553.490268, 395.448430) scale(-1, 1) translate(-553.490268, -395.448430) " points="516.746095 439.314268 590.234441 439.314268 590.234441 351.582592"></polygon>
                <polygon id="Path-Copy-4" fill="#FFFFFF" transform="translate(553.490268, 395.448430) scale(1, -1) translate(-553.490268, -395.448430) " points="516.746095 439.314268 590.234441 439.314268 590.234441 351.582592"></polygon>
                <polygon id="Path-Copy-7" fill="#FFFFFF" transform="translate(479.940438, 395.448430) scale(-1, -1) translate(-479.940438, -395.448430) " points="443.196265 439.314268 516.684611 439.314268 516.684611 351.582592"></polygon>
                <polygon id="Path" fill="#FFFFFF" points="590.796265 439.314268 664.284611 439.314268 664.284611 351.582592"></polygon>
                <polygon id="Path-Copy" fill="#FFFFFF" transform="translate(701.090268, 395.448430) scale(-1, 1) translate(-701.090268, -395.448430) " points="664.346095 439.314268 737.834441 439.314268 737.834441 351.582592"></polygon>
                <polygon id="Path-Copy-4" fill="#FFFFFF" transform="translate(701.090268, 395.448430) scale(1, -1) translate(-701.090268, -395.448430) " points="664.346095 439.314268 737.834441 439.314268 737.834441 351.582592"></polygon>
                <polygon id="Path-Copy-7" fill="#FFFFFF" transform="translate(627.540438, 395.448430) scale(-1, -1) translate(-627.540438, -395.448430) " points="590.796265 439.314268 664.284611 439.314268 664.284611 351.582592"></polygon>
            </g>
            <g id="Group-Copy" transform="translate(369.000000, 702.500000) scale(-1, 1) translate(-369.000000, -702.500000) translate(0.000000, 439.000000)">
                <polygon id="Path" fill="#FFFFFF" points="0.396264566 87.9809343 73.8846107 87.9809343 73.8846107 0.249258179"></polygon>
                <polygon id="Path-Copy" fill="#FFFFFF" transform="translate(110.690268, 44.115096) scale(-1, 1) translate(-110.690268, -44.115096) " points="73.9460951 87.9809343 147.434441 87.9809343 147.434441 0.249258179"></polygon>
                <polygon id="Path-Copy-4" fill="#F8F8F8" transform="translate(110.690268, 44.115096) scale(1, -1) translate(-110.690268, -44.115096) " points="73.9460951 87.9809343 147.434441 87.9809343 147.434441 0.249258179"></polygon>
                <polygon id="Path-Copy-3" fill="#F8F8F8" transform="translate(37.140438, 131.698192) scale(1, -1) translate(-37.140438, -131.698192) " points="0.396264566 175.56403 73.8846107 175.56403 73.8846107 87.8323541"></polygon>
                <polygon id="Path-Copy-2" fill="#F3F3F3" transform="translate(110.690268, 131.698192) scale(-1, -1) translate(-110.690268, -131.698192) " points="73.9460951 175.56403 147.434441 175.56403 147.434441 87.8323541"></polygon>
                <polygon id="Path-Copy-7" fill="#E7E8E9" transform="translate(37.140438, 44.115096) scale(-1, -1) translate(-37.140438, -44.115096) " points="0.396264566 87.9809343 73.8846107 87.9809343 73.8846107 0.249258179"></polygon>
                <polygon id="Path-Copy-6" fill="#FFFFFF" transform="translate(37.140438, 131.698192) scale(-1, 1) translate(-37.140438, -131.698192) " points="0.396264566 175.56403 73.8846107 175.56403 73.8846107 87.8323541"></polygon>
                <polygon id="Path-Copy-5" fill="#FFFFFF" points="73.9460951 175.56403 147.434441 175.56403 147.434441 87.8323541"></polygon>
                <polygon id="Path" fill="#FFFFFF" points="0.396264566 263.647601 73.8846107 263.647601 73.8846107 175.915925"></polygon>
                <polygon id="Path-Copy" fill="#FFFFFF" transform="translate(110.690268, 219.781763) scale(-1, 1) translate(-110.690268, -219.781763) " points="73.9460951 263.647601 147.434441 263.647601 147.434441 175.915925"></polygon>
                <polygon id="Path-Copy-4" fill="#FFFFFF" transform="translate(110.690268, 219.781763) scale(1, -1) translate(-110.690268, -219.781763) " points="73.9460951 263.647601 147.434441 263.647601 147.434441 175.915925"></polygon>
                <polygon id="Path-Copy-3" fill="#FFFFFF" transform="translate(37.140438, 307.364859) scale(1, -1) translate(-37.140438, -307.364859) " points="0.396264566 351.230697 73.8846107 351.230697 73.8846107 263.499021"></polygon>
                <polygon id="Path-Copy-2" fill="#F3F3F3" transform="translate(110.690268, 307.364859) scale(-1, -1) translate(-110.690268, -307.364859) " points="73.9460951 351.230697 147.434441 351.230697 147.434441 263.499021"></polygon>
                <polygon id="Path-Copy-7" fill="#F8F8F8" transform="translate(37.140438, 219.781763) scale(-1, -1) translate(-37.140438, -219.781763) " points="0.396264566 263.647601 73.8846107 263.647601 73.8846107 175.915925"></polygon>
                <polygon id="Path-Copy-6" fill="#FFFFFF" transform="translate(37.140438, 307.364859) scale(-1, 1) translate(-37.140438, -307.364859) " points="0.396264566 351.230697 73.8846107 351.230697 73.8846107 263.499021"></polygon>
                <polygon id="Path-Copy-5" fill="#FFFFFF" points="73.9460951 351.230697 147.434441 351.230697 147.434441 263.499021"></polygon>
                <polygon id="Path" fill="#FFFFFF" points="147.996265 87.9809343 221.484611 87.9809343 221.484611 0.249258179"></polygon>
                <polygon id="Path-Copy" fill="#F8F8F8" transform="translate(258.290268, 44.115096) scale(-1, 1) translate(-258.290268, -44.115096) " points="221.546095 87.9809343 295.034441 87.9809343 295.034441 0.249258179"></polygon>
                <polygon id="Path-Copy-4" fill="#FFFFFF" transform="translate(258.290268, 44.115096) scale(1, -1) translate(-258.290268, -44.115096) " points="221.546095 87.9809343 295.034441 87.9809343 295.034441 0.249258179"></polygon>
                <polygon id="Path-Copy-3" fill="#FFFFFF" transform="translate(184.740438, 131.698192) scale(1, -1) translate(-184.740438, -131.698192) " points="147.996265 175.56403 221.484611 175.56403 221.484611 87.8323541"></polygon>
                <polygon id="Path-Copy-2" fill="#FFFFFF" transform="translate(258.290268, 131.698192) scale(-1, -1) translate(-258.290268, -131.698192) " points="221.546095 175.56403 295.034441 175.56403 295.034441 87.8323541"></polygon>
                <polygon id="Path-Copy-7" fill="#FFFFFF" transform="translate(184.740438, 44.115096) scale(-1, -1) translate(-184.740438, -44.115096) " points="147.996265 87.9809343 221.484611 87.9809343 221.484611 0.249258179"></polygon>
                <polygon id="Path-Copy-6" fill="#FFFFFF" transform="translate(184.740438, 131.698192) scale(-1, 1) translate(-184.740438, -131.698192) " points="147.996265 175.56403 221.484611 175.56403 221.484611 87.8323541"></polygon>
                <polygon id="Path-Copy-5" fill="#FFFFFF" points="221.546095 175.56403 295.034441 175.56403 295.034441 87.8323541"></polygon>
                <polygon id="Path" fill="#F8F8F8" points="295.596265 87.9809343 369.084611 87.9809343 369.084611 0.249258179"></polygon>
                <polygon id="Path-Copy" fill="#F2F3F3" transform="translate(405.890268, 44.115096) scale(-1, 1) translate(-405.890268, -44.115096) " points="369.146095 87.9809343 442.634441 87.9809343 442.634441 0.249258179"></polygon>
                <polygon id="Path-Copy-4" fill="#FFFFFF" transform="translate(405.890268, 44.115096) scale(1, -1) translate(-405.890268, -44.115096) " points="369.146095 87.9809343 442.634441 87.9809343 442.634441 0.249258179"></polygon>
                <polygon id="Path-Copy-3" fill="#FFFFFF" transform="translate(332.340438, 131.698192) scale(1, -1) translate(-332.340438, -131.698192) " points="295.596265 175.56403 369.084611 175.56403 369.084611 87.8323541"></polygon>
                <polygon id="Path-Copy-2" fill="#FFFFFF" transform="translate(405.890268, 131.698192) scale(-1, -1) translate(-405.890268, -131.698192) " points="369.146095 175.56403 442.634441 175.56403 442.634441 87.8323541"></polygon>
                <polygon id="Path-Copy-7" fill="#FFFFFF" transform="translate(332.340438, 44.115096) scale(-1, -1) translate(-332.340438, -44.115096) " points="295.596265 87.9809343 369.084611 87.9809343 369.084611 0.249258179"></polygon>
                <polygon id="Path-Copy-6" fill="#FFFFFF" transform="translate(332.340438, 131.698192) scale(-1, 1) translate(-332.340438, -131.698192) " points="295.596265 175.56403 369.084611 175.56403 369.084611 87.8323541"></polygon>
                <polygon id="Path-Copy-5" fill="#FFFFFF" points="369.146095 175.56403 442.634441 175.56403 442.634441 87.8323541"></polygon>
                <polygon id="Path" fill="#FFFFFF" points="443.196265 87.9809343 516.684611 87.9809343 516.684611 0.249258179"></polygon>
                <polygon id="Path-Copy" fill="#FFFFFF" transform="translate(553.490268, 44.115096) scale(-1, 1) translate(-553.490268, -44.115096) " points="516.746095 87.9809343 590.234441 87.9809343 590.234441 0.249258179"></polygon>
                <polygon id="Path-Copy-4" fill="#FFFFFF" transform="translate(553.490268, 44.115096) scale(1, -1) translate(-553.490268, -44.115096) " points="516.746095 87.9809343 590.234441 87.9809343 590.234441 0.249258179"></polygon>
                <polygon id="Path-Copy-3" fill="#F2F3F3" transform="translate(479.940438, 131.698192) scale(1, -1) translate(-479.940438, -131.698192) " points="443.196265 175.56403 516.684611 175.56403 516.684611 87.8323541"></polygon>
                <polygon id="Path-Copy-2" fill="#FFFFFF" transform="translate(553.490268, 131.698192) scale(-1, -1) translate(-553.490268, -131.698192) " points="516.746095 175.56403 590.234441 175.56403 590.234441 87.8323541"></polygon>
                <polygon id="Path-Copy-7" fill="#F8F8F8" transform="translate(479.940438, 44.115096) scale(-1, -1) translate(-479.940438, -44.115096) " points="443.196265 87.9809343 516.684611 87.9809343 516.684611 0.249258179"></polygon>
                <polygon id="Path-Copy-6" fill="#FFFFFF" transform="translate(479.940438, 131.698192) scale(-1, 1) translate(-479.940438, -131.698192) " points="443.196265 175.56403 516.684611 175.56403 516.684611 87.8323541"></polygon>
                <polygon id="Path-Copy-5" fill="#FFFFFF" points="516.746095 175.56403 590.234441 175.56403 590.234441 87.8323541"></polygon>
                <polygon id="Path" fill="#FFFFFF" points="590.796265 87.9809343 664.284611 87.9809343 664.284611 0.249258179"></polygon>
                <polygon id="Path-Copy" fill="#FFFFFF" transform="translate(701.090268, 44.115096) scale(-1, 1) translate(-701.090268, -44.115096) " points="664.346095 87.9809343 737.834441 87.9809343 737.834441 0.249258179"></polygon>
                <polygon id="Path-Copy-4" fill="#FFFFFF" transform="translate(701.090268, 44.115096) scale(1, -1) translate(-701.090268, -44.115096) " points="664.346095 87.9809343 737.834441 87.9809343 737.834441 0.249258179"></polygon>
                <polygon id="Path-Copy-3" fill="#FFFFFF" transform="translate(627.540438, 131.698192) scale(1, -1) translate(-627.540438, -131.698192) " points="590.796265 175.56403 664.284611 175.56403 664.284611 87.8323541"></polygon>
                <polygon id="Path-Copy-2" fill="#FFFFFF" transform="translate(701.090268, 131.698192) scale(-1, -1) translate(-701.090268, -131.698192) " points="664.346095 175.56403 737.834441 175.56403 737.834441 87.8323541"></polygon>
                <polygon id="Path-Copy-7" fill="#F8F8F8" transform="translate(627.540438, 44.115096) scale(-1, -1) translate(-627.540438, -44.115096) " points="590.796265 87.9809343 664.284611 87.9809343 664.284611 0.249258179"></polygon>
                <polygon id="Path-Copy-6" fill="#FFFFFF" transform="translate(627.540438, 131.698192) scale(-1, 1) translate(-627.540438, -131.698192) " points="590.796265 175.56403 664.284611 175.56403 664.284611 87.8323541"></polygon>
                <polygon id="Path-Copy-5" fill="#FFFFFF" points="664.346095 175.56403 737.834441 175.56403 737.834441 87.8323541"></polygon>
                <polygon id="Path" fill="#FFFFFF" opacity="0.400000006" points="147.996265 263.647601 221.484611 263.647601 221.484611 175.915925"></polygon>
                <polygon id="Path-Copy" fill="#FFFFFF" transform="translate(258.290268, 219.781763) scale(-1, 1) translate(-258.290268, -219.781763) " points="221.546095 263.647601 295.034441 263.647601 295.034441 175.915925"></polygon>
                <polygon id="Path-Copy-4" fill="#FFFFFF" transform="translate(258.290268, 219.781763) scale(1, -1) translate(-258.290268, -219.781763) " points="221.546095 263.647601 295.034441 263.647601 295.034441 175.915925"></polygon>
                <polygon id="Path-Copy-3" fill="#FFFFFF" transform="translate(184.740438, 307.364859) scale(1, -1) translate(-184.740438, -307.364859) " points="147.996265 351.230697 221.484611 351.230697 221.484611 263.499021"></polygon>
                <polygon id="Path-Copy-2" fill="#FFFFFF" transform="translate(258.290268, 307.364859) scale(-1, -1) translate(-258.290268, -307.364859) " points="221.546095 351.230697 295.034441 351.230697 295.034441 263.499021"></polygon>
                <polygon id="Path-Copy-7" fill="#FFFFFF" transform="translate(184.740438, 219.781763) scale(-1, -1) translate(-184.740438, -219.781763) " points="147.996265 263.647601 221.484611 263.647601 221.484611 175.915925"></polygon>
                <polygon id="Path-Copy-6" fill="#FFFFFF" transform="translate(184.740438, 307.364859) scale(-1, 1) translate(-184.740438, -307.364859) " points="147.996265 351.230697 221.484611 351.230697 221.484611 263.499021"></polygon>
                <polygon id="Path-Copy-5" fill="#F2F3F3" points="221.546095 351.230697 295.034441 351.230697 295.034441 263.499021"></polygon>
                <polygon id="Path" fill="#FFFFFF" points="295.596265 263.647601 369.084611 263.647601 369.084611 175.915925"></polygon>
                <polygon id="Path-Copy" fill="#FFFFFF" transform="translate(405.890268, 219.781763) scale(-1, 1) translate(-405.890268, -219.781763) " points="369.146095 263.647601 442.634441 263.647601 442.634441 175.915925"></polygon>
                <polygon id="Path-Copy-4" fill="#FFFFFF" transform="translate(405.890268, 219.781763) scale(1, -1) translate(-405.890268, -219.781763) " points="369.146095 263.647601 442.634441 263.647601 442.634441 175.915925"></polygon>
                <polygon id="Path-Copy-3" fill="#FFFFFF" transform="translate(332.340438, 307.364859) scale(1, -1) translate(-332.340438, -307.364859) " points="295.596265 351.230697 369.084611 351.230697 369.084611 263.499021"></polygon>
                <polygon id="Path-Copy-2" fill="#FFFFFF" transform="translate(405.890268, 307.364859) scale(-1, -1) translate(-405.890268, -307.364859) " points="369.146095 351.230697 442.634441 351.230697 442.634441 263.499021"></polygon>
                <polygon id="Path-Copy-7" fill="#FFFFFF" transform="translate(332.340438, 219.781763) scale(-1, -1) translate(-332.340438, -219.781763) " points="295.596265 263.647601 369.084611 263.647601 369.084611 175.915925"></polygon>
                <polygon id="Path-Copy-6" fill="#FFFFFF" transform="translate(332.340438, 307.364859) scale(-1, 1) translate(-332.340438, -307.364859) " points="295.596265 351.230697 369.084611 351.230697 369.084611 263.499021"></polygon>
                <polygon id="Path-Copy-5" fill="#F8F8F8" points="369.146095 351.230697 442.634441 351.230697 442.634441 263.499021"></polygon>
                <polygon id="Path" fill="#FFFFFF" points="443.196265 263.647601 516.684611 263.647601 516.684611 175.915925"></polygon>
                <polygon id="Path-Copy" fill="#FFFFFF" transform="translate(553.490268, 219.781763) scale(-1, 1) translate(-553.490268, -219.781763) " points="516.746095 263.647601 590.234441 263.647601 590.234441 175.915925"></polygon>
                <polygon id="Path-Copy-4" fill="#F8F8F8" transform="translate(553.490268, 219.781763) scale(1, -1) translate(-553.490268, -219.781763) " points="516.746095 263.647601 590.234441 263.647601 590.234441 175.915925"></polygon>
                <polygon id="Path-Copy-3" fill="#FFFFFF" transform="translate(479.940438, 307.364859) scale(1, -1) translate(-479.940438, -307.364859) " points="443.196265 351.230697 516.684611 351.230697 516.684611 263.499021"></polygon>
                <polygon id="Path-Copy-2" fill="#FFFFFF" transform="translate(553.490268, 307.364859) scale(-1, -1) translate(-553.490268, -307.364859) " points="516.746095 351.230697 590.234441 351.230697 590.234441 263.499021"></polygon>
                <polygon id="Path-Copy-7" fill="#FFFFFF" transform="translate(479.940438, 219.781763) scale(-1, -1) translate(-479.940438, -219.781763) " points="443.196265 263.647601 516.684611 263.647601 516.684611 175.915925"></polygon>
                <polygon id="Path-Copy-6" fill="#F2F3F3" transform="translate(479.940438, 307.364859) scale(-1, 1) translate(-479.940438, -307.364859) " points="443.196265 351.230697 516.684611 351.230697 516.684611 263.499021"></polygon>
                <polygon id="Path-Copy-5" fill="#F8F8F8" points="516.746095 351.230697 590.234441 351.230697 590.234441 263.499021"></polygon>
                <polygon id="Path" fill="#FFFFFF" points="590.796265 263.647601 664.284611 263.647601 664.284611 175.915925"></polygon>
                <polygon id="Path-Copy" fill="#FFFFFF" transform="translate(701.090268, 219.781763) scale(-1, 1) translate(-701.090268, -219.781763) " points="664.346095 263.647601 737.834441 263.647601 737.834441 175.915925"></polygon>
                <polygon id="Path-Copy-4" fill="#FFFFFF" transform="translate(701.090268, 219.781763) scale(1, -1) translate(-701.090268, -219.781763) " points="664.346095 263.647601 737.834441 263.647601 737.834441 175.915925"></polygon>
                <polygon id="Path-Copy-3" fill="#F3F3F3" transform="translate(627.540438, 307.364859) scale(1, -1) translate(-627.540438, -307.364859) " points="590.796265 351.230697 664.284611 351.230697 664.284611 263.499021"></polygon>
                <polygon id="Path-Copy-2" fill="#FFFFFF" transform="translate(701.090268, 307.364859) scale(-1, -1) translate(-701.090268, -307.364859) " points="664.346095 351.230697 737.834441 351.230697 737.834441 263.499021"></polygon>
                <polygon id="Path-Copy-7" fill="#FFFFFF" transform="translate(627.540438, 219.781763) scale(-1, -1) translate(-627.540438, -219.781763) " points="590.796265 263.647601 664.284611 263.647601 664.284611 175.915925"></polygon>
                <polygon id="Path-Copy-6" fill="#FFFFFF" transform="translate(627.540438, 307.364859) scale(-1, 1) translate(-627.540438, -307.364859) " points="590.796265 351.230697 664.284611 351.230697 664.284611 263.499021"></polygon>
                <polygon id="Path-Copy-5" fill="#FFFFFF" points="664.346095 351.230697 737.834441 351.230697 737.834441 263.499021"></polygon>
            </g>
            <g id="Group-Copy-3" transform="translate(1041.000000, 88.500000) scale(-1, -1) translate(-1041.000000, -88.500000) translate(672.000000, -175.000000)">
                <polygon id="Path" fill="#FFFFFF" points="0.396264566 87.9809343 73.8846107 87.9809343 73.8846107 0.249258179"></polygon>
                <polygon id="Path-Copy" fill="#FFFFFF" transform="translate(110.690268, 44.115096) scale(-1, 1) translate(-110.690268, -44.115096) " points="73.9460951 87.9809343 147.434441 87.9809343 147.434441 0.249258179"></polygon>
                <polygon id="Path-Copy-3" fill="#F8F8F8" transform="translate(37.140438, 131.698192) scale(1, -1) translate(-37.140438, -131.698192) " points="0.396264566 175.56403 73.8846107 175.56403 73.8846107 87.8323541"></polygon>
                <polygon id="Path-Copy-2" fill="#F3F3F3" transform="translate(110.690268, 131.698192) scale(-1, -1) translate(-110.690268, -131.698192) " points="73.9460951 175.56403 147.434441 175.56403 147.434441 87.8323541"></polygon>
                <polygon id="Path-Copy-7" fill="#E7E8E9" transform="translate(37.140438, 44.115096) scale(-1, -1) translate(-37.140438, -44.115096) " points="0.396264566 87.9809343 73.8846107 87.9809343 73.8846107 0.249258179"></polygon>
                <polygon id="Path-Copy-6" fill="#FFFFFF" transform="translate(37.140438, 131.698192) scale(-1, 1) translate(-37.140438, -131.698192) " points="0.396264566 175.56403 73.8846107 175.56403 73.8846107 87.8323541"></polygon>
                <polygon id="Path-Copy-5" fill="#FFFFFF" points="73.9460951 175.56403 147.434441 175.56403 147.434441 87.8323541"></polygon>
                <polygon id="Path" fill="#FFFFFF" points="0.396264566 263.647601 73.8846107 263.647601 73.8846107 175.915925"></polygon>
                <polygon id="Path-Copy" fill="#FFFFFF" transform="translate(110.690268, 219.781763) scale(-1, 1) translate(-110.690268, -219.781763) " points="73.9460951 263.647601 147.434441 263.647601 147.434441 175.915925"></polygon>
                <polygon id="Path-Copy-4" fill="#FFFFFF" transform="translate(110.690268, 219.781763) scale(1, -1) translate(-110.690268, -219.781763) " points="73.9460951 263.647601 147.434441 263.647601 147.434441 175.915925"></polygon>
                <polygon id="Path-Copy-3" fill="#24A1DB" transform="translate(37.140438, 307.364859) scale(1, -1) translate(-37.140438, -307.364859) " points="0.396264566 351.230697 73.8846107 351.230697 73.8846107 263.499021"></polygon>
                <polygon id="Path-Copy-2" fill="#F3F3F3" transform="translate(110.690268, 307.364859) scale(-1, -1) translate(-110.690268, -307.364859) " points="73.9460951 351.230697 147.434441 351.230697 147.434441 263.499021"></polygon>
                <polygon id="Path-Copy-7" fill="#F8F8F8" transform="translate(37.140438, 219.781763) scale(-1, -1) translate(-37.140438, -219.781763) " points="0.396264566 263.647601 73.8846107 263.647601 73.8846107 175.915925"></polygon>
                <polygon id="Path-Copy-6" fill="#FFFFFF" transform="translate(37.140438, 307.364859) scale(-1, 1) translate(-37.140438, -307.364859) " points="0.396264566 351.230697 73.8846107 351.230697 73.8846107 263.499021"></polygon>
                <polygon id="Path-Copy-5" fill="#FFFFFF" points="73.9460951 351.230697 147.434441 351.230697 147.434441 263.499021"></polygon>
                <polygon id="Path-Copy-3" fill="#FFFFFF" transform="translate(184.740438, 131.698192) scale(1, -1) translate(-184.740438, -131.698192) " points="147.996265 175.56403 221.484611 175.56403 221.484611 87.8323541"></polygon>
                <polygon id="Path-Copy-2" fill="#FFFFFF" transform="translate(258.290268, 131.698192) scale(-1, -1) translate(-258.290268, -131.698192) " points="221.546095 175.56403 295.034441 175.56403 295.034441 87.8323541"></polygon>
                <polygon id="Path-Copy-6" fill="#FFFFFF" transform="translate(184.740438, 131.698192) scale(-1, 1) translate(-184.740438, -131.698192) " points="147.996265 175.56403 221.484611 175.56403 221.484611 87.8323541"></polygon>
                <polygon id="Path-Copy-5" fill="#FFFFFF" points="221.546095 175.56403 295.034441 175.56403 295.034441 87.8323541"></polygon>
                <polygon id="Path-Copy-3" fill="#FFFFFF" transform="translate(332.340438, 131.698192) scale(1, -1) translate(-332.340438, -131.698192) " points="295.596265 175.56403 369.084611 175.56403 369.084611 87.8323541"></polygon>
                <polygon id="Path-Copy-2" fill="#FFFFFF" transform="translate(405.890268, 131.698192) scale(-1, -1) translate(-405.890268, -131.698192) " points="369.146095 175.56403 442.634441 175.56403 442.634441 87.8323541"></polygon>
                <polygon id="Path-Copy-6" fill="#FFFFFF" transform="translate(332.340438, 131.698192) scale(-1, 1) translate(-332.340438, -131.698192) " points="295.596265 175.56403 369.084611 175.56403 369.084611 87.8323541"></polygon>
                <polygon id="Path-Copy-5" fill="#FFFFFF" points="369.146095 175.56403 442.634441 175.56403 442.634441 87.8323541"></polygon>
                <polygon id="Path-Copy-3" fill="#F2F3F3" transform="translate(479.940438, 131.698192) scale(1, -1) translate(-479.940438, -131.698192) " points="443.196265 175.56403 516.684611 175.56403 516.684611 87.8323541"></polygon>
                <polygon id="Path-Copy-2" fill="#FFFFFF" transform="translate(553.490268, 131.698192) scale(-1, -1) translate(-553.490268, -131.698192) " points="516.746095 175.56403 590.234441 175.56403 590.234441 87.8323541"></polygon>
                <polygon id="Path-Copy-6" fill="#FFFFFF" transform="translate(479.940438, 131.698192) scale(-1, 1) translate(-479.940438, -131.698192) " points="443.196265 175.56403 516.684611 175.56403 516.684611 87.8323541"></polygon>
                <polygon id="Path-Copy-5" fill="#FFFFFF" points="516.746095 175.56403 590.234441 175.56403 590.234441 87.8323541"></polygon>
                <polygon id="Path-Copy-3" fill="#FFFFFF" transform="translate(627.540438, 131.698192) scale(1, -1) translate(-627.540438, -131.698192) " points="590.796265 175.56403 664.284611 175.56403 664.284611 87.8323541"></polygon>
                <polygon id="Path-Copy-2" fill="#FFFFFF" transform="translate(701.090268, 131.698192) scale(-1, -1) translate(-701.090268, -131.698192) " points="664.346095 175.56403 737.834441 175.56403 737.834441 87.8323541"></polygon>
                <polygon id="Path-Copy-6" fill="#FFFFFF" transform="translate(627.540438, 131.698192) scale(-1, 1) translate(-627.540438, -131.698192) " points="590.796265 175.56403 664.284611 175.56403 664.284611 87.8323541"></polygon>
                <polygon id="Path-Copy-5" fill="#FFFFFF" points="664.346095 175.56403 737.834441 175.56403 737.834441 87.8323541"></polygon>
                <polygon id="Path" fill="#43A844" opacity="0.400000006" points="147.996265 263.647601 221.484611 263.647601 221.484611 175.915925"></polygon>
                <polygon id="Path-Copy" fill="#FFFFFF" transform="translate(258.290268, 219.781763) scale(-1, 1) translate(-258.290268, -219.781763) " points="221.546095 263.647601 295.034441 263.647601 295.034441 175.915925"></polygon>
                <polygon id="Path-Copy-4" fill="#FFFFFF" transform="translate(258.290268, 219.781763) scale(1, -1) translate(-258.290268, -219.781763) " points="221.546095 263.647601 295.034441 263.647601 295.034441 175.915925"></polygon>
                <polygon id="Path-Copy-3" fill="#FFFFFF" transform="translate(184.740438, 307.364859) scale(1, -1) translate(-184.740438, -307.364859) " points="147.996265 351.230697 221.484611 351.230697 221.484611 263.499021"></polygon>
                <polygon id="Path-Copy-2" fill="#FFFFFF" transform="translate(258.290268, 307.364859) scale(-1, -1) translate(-258.290268, -307.364859) " points="221.546095 351.230697 295.034441 351.230697 295.034441 263.499021"></polygon>
                <polygon id="Path-Copy-7" fill="#FFFFFF" transform="translate(184.740438, 219.781763) scale(-1, -1) translate(-184.740438, -219.781763) " points="147.996265 263.647601 221.484611 263.647601 221.484611 175.915925"></polygon>
                <polygon id="Path-Copy-6" fill="#FFFFFF" transform="translate(184.740438, 307.364859) scale(-1, 1) translate(-184.740438, -307.364859) " points="147.996265 351.230697 221.484611 351.230697 221.484611 263.499021"></polygon>
                <polygon id="Path-Copy-5" fill="#F2F3F3" points="221.546095 351.230697 295.034441 351.230697 295.034441 263.499021"></polygon>
                <polygon id="Path" fill="#FFFFFF" points="295.596265 263.647601 369.084611 263.647601 369.084611 175.915925"></polygon>
                <polygon id="Path-Copy" fill="#FFFFFF" transform="translate(405.890268, 219.781763) scale(-1, 1) translate(-405.890268, -219.781763) " points="369.146095 263.647601 442.634441 263.647601 442.634441 175.915925"></polygon>
                <polygon id="Path-Copy-4" fill="#FFFFFF" transform="translate(405.890268, 219.781763) scale(1, -1) translate(-405.890268, -219.781763) " points="369.146095 263.647601 442.634441 263.647601 442.634441 175.915925"></polygon>
                <polygon id="Path-Copy-3" fill="#FFFFFF" transform="translate(332.340438, 307.364859) scale(1, -1) translate(-332.340438, -307.364859) " points="295.596265 351.230697 369.084611 351.230697 369.084611 263.499021"></polygon>
                <polygon id="Path-Copy-2" fill="#FFFFFF" transform="translate(405.890268, 307.364859) scale(-1, -1) translate(-405.890268, -307.364859) " points="369.146095 351.230697 442.634441 351.230697 442.634441 263.499021"></polygon>
                <polygon id="Path-Copy-7" fill="#FFFFFF" transform="translate(332.340438, 219.781763) scale(-1, -1) translate(-332.340438, -219.781763) " points="295.596265 263.647601 369.084611 263.647601 369.084611 175.915925"></polygon>
                <polygon id="Path-Copy-6" fill="#24A1DB" transform="translate(332.340438, 307.364859) scale(-1, 1) translate(-332.340438, -307.364859) " points="295.596265 351.230697 369.084611 351.230697 369.084611 263.499021"></polygon>
                <polygon id="Path-Copy-5" fill="#F8F8F8" points="369.146095 351.230697 442.634441 351.230697 442.634441 263.499021"></polygon>
                <polygon id="Path" fill="#FFFFFF" points="443.196265 263.647601 516.684611 263.647601 516.684611 175.915925"></polygon>
                <polygon id="Path-Copy" fill="#FFFFFF" transform="translate(553.490268, 219.781763) scale(-1, 1) translate(-553.490268, -219.781763) " points="516.746095 263.647601 590.234441 263.647601 590.234441 175.915925"></polygon>
                <polygon id="Path-Copy-4" fill="#F8F8F8" transform="translate(553.490268, 219.781763) scale(1, -1) translate(-553.490268, -219.781763) " points="516.746095 263.647601 590.234441 263.647601 590.234441 175.915925"></polygon>
                <polygon id="Path-Copy-3" fill="#FFFFFF" transform="translate(479.940438, 307.364859) scale(1, -1) translate(-479.940438, -307.364859) " points="443.196265 351.230697 516.684611 351.230697 516.684611 263.499021"></polygon>
                <polygon id="Path-Copy-2" fill="#FFFFFF" transform="translate(553.490268, 307.364859) scale(-1, -1) translate(-553.490268, -307.364859) " points="516.746095 351.230697 590.234441 351.230697 590.234441 263.499021"></polygon>
                <polygon id="Path-Copy-7" fill="#FFFFFF" transform="translate(479.940438, 219.781763) scale(-1, -1) translate(-479.940438, -219.781763) " points="443.196265 263.647601 516.684611 263.647601 516.684611 175.915925"></polygon>
                <polygon id="Path-Copy-6" fill="#F2F3F3" transform="translate(479.940438, 307.364859) scale(-1, 1) translate(-479.940438, -307.364859) " points="443.196265 351.230697 516.684611 351.230697 516.684611 263.499021"></polygon>
                <polygon id="Path-Copy-5" fill="#F8F8F8" points="516.746095 351.230697 590.234441 351.230697 590.234441 263.499021"></polygon>
                <polygon id="Path" fill="#FFFFFF" points="590.796265 263.647601 664.284611 263.647601 664.284611 175.915925"></polygon>
                <polygon id="Path-Copy" fill="#FFFFFF" transform="translate(701.090268, 219.781763) scale(-1, 1) translate(-701.090268, -219.781763) " points="664.346095 263.647601 737.834441 263.647601 737.834441 175.915925"></polygon>
                <polygon id="Path-Copy-4" fill="#FFFFFF" transform="translate(701.090268, 219.781763) scale(1, -1) translate(-701.090268, -219.781763) " points="664.346095 263.647601 737.834441 263.647601 737.834441 175.915925"></polygon>
                <polygon id="Path-Copy-3" fill="#F3F3F3" transform="translate(627.540438, 307.364859) scale(1, -1) translate(-627.540438, -307.364859) " points="590.796265 351.230697 664.284611 351.230697 664.284611 263.499021"></polygon>
                <polygon id="Path-Copy-2" fill="#FFFFFF" transform="translate(701.090268, 307.364859) scale(-1, -1) translate(-701.090268, -307.364859) " points="664.346095 351.230697 737.834441 351.230697 737.834441 263.499021"></polygon>
                <polygon id="Path-Copy-7" fill="#FFFFFF" transform="translate(627.540438, 219.781763) scale(-1, -1) translate(-627.540438, -219.781763) " points="590.796265 263.647601 664.284611 263.647601 664.284611 175.915925"></polygon>
                <polygon id="Path-Copy-6" fill="#FFFFFF" transform="translate(627.540438, 307.364859) scale(-1, 1) translate(-627.540438, -307.364859) " points="590.796265 351.230697 664.284611 351.230697 664.284611 263.499021"></polygon>
                <polygon id="Path-Copy-5" fill="#FFFFFF" points="664.346095 351.230697 737.834441 351.230697 737.834441 263.499021"></polygon>
                <polygon id="Path" fill="#F8F8F8" points="0.396264566 439.314268 73.8846107 439.314268 73.8846107 351.582592"></polygon>
                <polygon id="Path-Copy" fill="#F2F3F3" transform="translate(110.690268, 395.448430) scale(-1, 1) translate(-110.690268, -395.448430) " points="73.9460951 439.314268 147.434441 439.314268 147.434441 351.582592"></polygon>
                <polygon id="Path-Copy-4" fill="#FFFFFF" transform="translate(110.690268, 395.448430) scale(1, -1) translate(-110.690268, -395.448430) " points="73.9460951 439.314268 147.434441 439.314268 147.434441 351.582592"></polygon>
                <polygon id="Path-Copy-7" fill="#FFFFFF" transform="translate(37.140438, 395.448430) scale(-1, -1) translate(-37.140438, -395.448430) " points="0.396264566 439.314268 73.8846107 439.314268 73.8846107 351.582592"></polygon>
                <polygon id="Path" fill="#FFFFFF" points="147.996265 439.314268 221.484611 439.314268 221.484611 351.582592"></polygon>
                <polygon id="Path-Copy" fill="#FFFFFF" transform="translate(258.290268, 395.448430) scale(-1, 1) translate(-258.290268, -395.448430) " points="221.546095 439.314268 295.034441 439.314268 295.034441 351.582592"></polygon>
                <polygon id="Path-Copy-4" fill="#FFFFFF" transform="translate(258.290268, 395.448430) scale(1, -1) translate(-258.290268, -395.448430) " points="221.546095 439.314268 295.034441 439.314268 295.034441 351.582592"></polygon>
                <polygon id="Path-Copy-7" fill="#F2F3F3" transform="translate(184.740438, 395.448430) scale(-1, -1) translate(-184.740438, -395.448430) " points="147.996265 439.314268 221.484611 439.314268 221.484611 351.582592"></polygon>
                <polygon id="Path" fill="#FFFFFF" points="295.596265 439.314268 369.084611 439.314268 369.084611 351.582592"></polygon>
                <polygon id="Path-Copy" fill="#FFFFFF" transform="translate(405.890268, 395.448430) scale(-1, 1) translate(-405.890268, -395.448430) " points="369.146095 439.314268 442.634441 439.314268 442.634441 351.582592"></polygon>
                <polygon id="Path-Copy-4" fill="#FFFFFF" transform="translate(405.890268, 395.448430) scale(1, -1) translate(-405.890268, -395.448430) " points="369.146095 439.314268 442.634441 439.314268 442.634441 351.582592"></polygon>
                <polygon id="Path-Copy-7" fill="#FFFFFF" transform="translate(332.340438, 395.448430) scale(-1, -1) translate(-332.340438, -395.448430) " points="295.596265 439.314268 369.084611 439.314268 369.084611 351.582592"></polygon>
                <polygon id="Path" fill="#FFFFFF" points="443.196265 439.314268 516.684611 439.314268 516.684611 351.582592"></polygon>
                <polygon id="Path-Copy" fill="#FFFFFF" transform="translate(553.490268, 395.448430) scale(-1, 1) translate(-553.490268, -395.448430) " points="516.746095 439.314268 590.234441 439.314268 590.234441 351.582592"></polygon>
                <polygon id="Path-Copy-4" fill="#FFFFFF" transform="translate(553.490268, 395.448430) scale(1, -1) translate(-553.490268, -395.448430) " points="516.746095 439.314268 590.234441 439.314268 590.234441 351.582592"></polygon>
                <polygon id="Path-Copy-7" fill="#FFFFFF" transform="translate(479.940438, 395.448430) scale(-1, -1) translate(-479.940438, -395.448430) " points="443.196265 439.314268 516.684611 439.314268 516.684611 351.582592"></polygon>
                <polygon id="Path" fill="#FFFFFF" points="590.796265 439.314268 664.284611 439.314268 664.284611 351.582592"></polygon>
                <polygon id="Path-Copy" fill="#FFFFFF" transform="translate(701.090268, 395.448430) scale(-1, 1) translate(-701.090268, -395.448430) " points="664.346095 439.314268 737.834441 439.314268 737.834441 351.582592"></polygon>
                <polygon id="Path-Copy-4" fill="#FFFFFF" transform="translate(701.090268, 395.448430) scale(1, -1) translate(-701.090268, -395.448430) " points="664.346095 439.314268 737.834441 439.314268 737.834441 351.582592"></polygon>
                <polygon id="Path-Copy-7" fill="#FFFFFF" transform="translate(627.540438, 395.448430) scale(-1, -1) translate(-627.540438, -395.448430) " points="590.796265 439.314268 664.284611 439.314268 664.284611 351.582592"></polygon>
            </g>
        </g>
    </g>
</svg>