
<svg width="81px" height="81px" viewBox="0 0 81 81" version="1.1" xmlns="http://www.w3.org/2000/svg" xmlns:xlink="http://www.w3.org/1999/xlink">
    <g id="Page-1" stroke="none" stroke-width="1" fill="none" fill-rule="evenodd">
        <g id="01a_homepage" transform="translate(-171.000000, -1157.000000)">
            <g id="Group-10" transform="translate(171.000000, 1157.000000)">
                <rect id="Rectangle-Copy-5" fill-rule="nonzero" x="0" y="0" width="80" height="80"></rect>
                <g id="icon-people">
                    <circle id="Oval" fill="#41BDAC" fill-rule="nonzero" cx="35" cy="35" r="35"></circle>
                    <g id="Group-7" transform="translate(12.000000, 21.000000)" stroke="#000000" stroke-linecap="round" stroke-linejoin="round" stroke-width="2">
                        <path d="M54.4429167,58.5461667 L67.5679167,58.5461667 L67.5679167,50.1630238 C67.5679167,46.5872619 65.36875,43.3716905 62.02625,42.0587381 L50.0679167,36.7604524 L50.0679167,29.4985476 C50.0679167,29.4985476 54.4429167,28.0461667 54.4429167,20.7842619 C56.8520833,20.7842619 56.8520833,14.9747381 54.4429167,14.9747381 C54.4429167,14.2601667 56.9133333,8.84278571 55.90125,4.80807143 C54.8891667,0.776261905 46.8595833,-0.455357143 41.53375,1.11321429" id="Stroke-1"></path>
                        <path d="M29.65125,32.7353238 C34.1341667,33.2029905 38.6520833,32.2589429 42.5720833,30.0397048 C42.9425,29.8189429 43.19625,29.4442286 43.2633333,29.0201333 C43.3275,28.5931333 43.2020833,28.1603238 42.91625,27.8349905 C41.4375,26.1560381 40.41375,24.009419 39.9675,17.4562762 C39.1420833,5.28532381 30.9025,1.00370476 23.8179167,1.00370476 C16.73625,1.00370476 8.49375,5.28532381 7.66833333,17.4562762 C7.225,24.009419 6.21,26.1560381 4.71958333,27.8349905 C4.43375,28.1603238 4.31125,28.5931333 4.37541667,29.0201333 C4.4425,29.4442286 4.69625,29.8189429 5.06666667,30.0397048 C8.98375,32.2589429 13.5016667,33.2029905 17.9845833,32.7353238" id="Stroke-3"></path>
                        <path d="M31.6538333,37.3620286 C30.5950833,37.0366952 29.8163333,36.1333143 29.6500833,35.038219 L29.6500833,30.524219 C29.6500833,29.8270762 30.3238333,29.1676952 30.8400833,28.7000286 C32.8088333,27.0385048 33.9696667,24.6188381 34.0250833,22.0510286 L34.0250833,15.8696952 C30.06425,15.274219 26.44175,13.2902667 23.81675,10.272219 C21.1975833,13.2902667 17.5750833,15.274219 13.6084167,15.8696952 L13.6084167,22.0510286 C13.6696667,24.6188381 14.8305,27.0414095 16.8021667,28.7000286 C17.3155,29.1676952 17.9834167,29.8270762 17.9834167,30.524219 L17.9834167,35.0411238 C17.823,36.136219 17.04425,37.0396 15.9855,37.3649333 C12.2259167,38.7882667 8.62383333,40.5979333 5.23466667,42.761981 C2.01466667,45.0102667 0.212166667,48.7777429 0.483416667,52.6846476 L0.483416667,58.5464571 L47.1500833,58.5464571 L47.1500833,52.6846476 C47.433,48.7748381 45.6275833,45.0073619 42.40175,42.7590762 C39.0155,40.5950286 35.4134167,38.7853619 31.6538333,37.3620286 Z" id="Stroke-5"></path>
                    </g>
                </g>
            </g>
        </g>
    </g>
</svg>