
<svg width="43px" height="32px" viewBox="0 0 43 32" version="1.1" xmlns="http://www.w3.org/2000/svg" xmlns:xlink="http://www.w3.org/1999/xlink">
    <g id="Page-1" stroke="none" stroke-width="1" fill="none" fill-rule="evenodd">
        <g id="01a_homepage" transform="translate(-940.000000, -1659.000000)" fill="#D02B30">
            <g id="Group-9" transform="translate(151.000000, 1619.000000)">
                <path d="M832,44.352 C828.767541,45.3760051 826.194372,46.9119898 824.280415,48.96 C822.366459,51.0080102 821.622154,53.6533171 822.047478,56.896 C822.98319,57.6640038 824.301673,58.4533293 826.002967,59.264 C827.704262,60.0746707 829.192872,60.6933312 830.468843,61.12 C830.809102,62.4853402 830.809102,63.8079936 830.468843,65.088 C830.128584,66.3680064 829.575671,67.4986618 828.810089,68.48 C828.044507,69.4613382 827.15134,70.2719968 826.130564,70.912 C825.109787,71.5520032 824.174089,71.9146662 823.323442,72 C820.346177,71.7439987 817.751742,70.6346765 815.540059,68.672 C813.328377,66.7093235 812.222552,63.8933517 812.222552,60.224 C812.222552,58.090656 812.584072,55.957344 813.307122,53.824 C814.030172,51.690656 815.114731,49.7066758 816.560831,47.872 C818.006931,46.0373242 819.835795,44.416007 822.047478,43.008 C824.25916,41.599993 826.896127,40.5973363 829.958457,40 L832,44.352 Z M808.777448,44.352 C805.544989,45.3760051 802.97182,46.9119898 801.057864,48.96 C799.143907,51.0080102 798.399602,53.6533171 798.824926,56.896 C799.760638,57.6640038 801.079121,58.4533293 802.780415,59.264 C804.48171,60.0746707 805.97032,60.6933312 807.246291,61.12 C807.58655,62.4853402 807.58655,63.8079936 807.246291,65.088 C806.906032,66.3680064 806.35312,67.4986618 805.587537,68.48 C804.821955,69.4613382 803.928788,70.2719968 802.908012,70.912 C801.887235,71.5520032 800.951537,71.9146662 800.10089,72 C797.123625,71.7439987 794.52919,70.6346765 792.317507,68.672 C790.105825,66.7093235 789,63.8933517 789,60.224 C789,58.090656 789.36152,55.957344 790.08457,53.824 C790.80762,51.690656 791.892179,49.7066758 793.338279,47.872 C794.784379,46.0373242 796.613243,44.416007 798.824926,43.008 C801.036608,41.599993 803.673575,40.5973363 806.735905,40 L808.777448,44.352 Z" id="Quote"></path>
            </g>
        </g>
    </g>
</svg>