
<svg width="171px" height="44px" viewBox="0 0 171 44" version="1.1" xmlns="http://www.w3.org/2000/svg" xmlns:xlink="http://www.w3.org/1999/xlink">
    <defs>
        <polygon id="path-1" points="0.121622178 0.168042553 4.71383479 0.168042553 4.71383479 4.88086971 0.121622178 4.88086971"></polygon>
        <polygon id="path-3" points="0.216967352 0.127278514 4.89143869 0.127278514 4.89143869 4.70971485 0.216967352 4.70971485"></polygon>
    </defs>
    <g id="Page-1" stroke="none" stroke-width="1" fill="none" fill-rule="evenodd">
        <g id="01a_homepage" transform="translate(-151.000000, -759.000000)">
            <g id="Group-49" transform="translate(151.000000, 759.000000)">
                <path d="M73.065318,23.6199489 C72.8491218,23.4212468 72.5332144,23.1446085 72.2319842,22.8525234 C69.9838234,20.672183 65.8227458,20.7470766 63.8010319,21.7616511 C63.5601409,21.882417 63.3213466,22.0268213 63.1198275,22.2044596 C62.2664583,22.9566723 62.3102567,23.9125021 63.2672975,24.5315447 C63.7504774,24.8437574 64.2937635,25.0969915 64.8440387,25.2615234 C66.5521749,25.7722043 68.276852,26.2267149 69.9945401,26.705566 C71.4927703,27.1233319 72.956288,27.6012468 74.2427485,28.5376511 C77.3354256,30.7893745 76.8142717,35.0636936 74.0801354,37.0160766 C72.8451613,37.898183 71.4543302,38.365566 69.97963,38.5511617 C66.163348,39.0318851 62.5497499,38.5048213 59.3447812,36.1892043 C58.9168153,35.880034 58.5470918,35.489417 58.1603616,35.1458426 C59.0789624,34.2199702 59.9085687,33.3832681 60.7787117,32.5060766 C61.2544365,32.8580766 61.7164161,33.2051617 62.183754,33.5445234 C64.5751913,35.2808851 67.2268561,35.6497362 70.0425319,34.9794383 C70.6279856,34.8399489 71.2139052,34.5462255 71.7033752,34.1900128 C72.8137104,33.3828 72.7983343,32.0400979 71.6460646,31.2775872 C70.9786054,30.8357149 70.2116681,30.4975234 69.4437989,30.2655872 C67.4779978,29.6711191 65.478649,29.1889915 63.5091204,28.6055234 C62.7713044,28.3866936 62.0537567,28.0609064 61.3716204,27.6993106 C57.5441559,25.6701617 58.024773,21.0698213 61.2777335,19.0846723 C63.1338057,17.9519064 65.1979202,17.6244809 67.3095605,17.6159397 C69.8477689,17.6059915 72.2247621,18.252417 74.3159011,19.7561404 C74.8398507,20.1329489 75.3022962,20.5958851 75.9243262,21.1327787 C74.9421245,21.9875021 74.0736123,22.7429915 73.065318,23.6199489" id="Fill-1" fill="#777777"></path>
                <path d="M92.0521422,30.5731191 C92.0623929,30.572417 92.0726436,30.5717149 92.0828943,30.5707787 C92.0423575,30.0278 92.0467839,29.4766298 91.9535959,28.9430128 C91.5768834,26.7858426 90.2156395,25.606034 88.0371368,25.5255234 C87.6121995,25.5096085 87.1812049,25.5138213 86.7602281,25.5667149 C85.2368371,25.7586298 84.195461,26.5862043 83.6635905,28.0358638 C83.0783698,29.6310979 83.1039965,31.2464596 83.6097744,32.8482468 C84.0468262,34.2330766 85.019476,35.0971617 86.441758,35.3031191 C90.0695673,35.8285447 92.069848,34.3213106 92.0521422,30.6901404 C92.0519093,30.6510553 92.0521422,30.6122043 92.0521422,30.5731191 M79.8237785,22.5143319 L83.2822185,22.5143319 C83.3644569,22.8195234 83.4422689,23.1080979 83.5356899,23.455417 C83.6712785,23.4102468 83.8199134,23.3908213 83.9359324,23.3182681 C85.9814093,22.0408638 88.1892662,21.9348426 90.4458139,22.4979489 C92.7137771,23.0636298 94.3023997,24.511417 95.0986913,26.6994809 C96.2213738,29.785566 96.088115,32.8210979 94.354352,35.687417 C93.5753003,36.9751191 92.4055578,37.816034 91.0005155,38.2593106 C88.610709,39.0133957 86.2614392,38.9974809 84.0563779,37.6039915 C83.9589965,37.5422043 83.8525292,37.4935234 83.7474597,37.4457787 C83.7155428,37.4312681 83.6736082,37.4396936 83.4674297,37.4279915 L83.4674297,43.8014383 C82.3098016,43.8014383 81.3154856,43.8346723 80.3269937,43.7740553 C80.1217471,43.7616511 79.882254,43.4286085 79.7615755,43.1903532 C79.6660578,43.0017149 79.7219706,42.732566 79.7217376,42.4989915 C79.7180101,36.3387574 79.7133507,30.1782894 79.7173112,24.0175872 C79.7175441,23.560034 79.7802131,23.1024809 79.8237785,22.5143319" id="Fill-3" fill="#777777"></path>
                <path d="M51.8006541,30.5562213 C51.8025163,26.847583 50.1009033,25.1957106 46.5986649,25.5544979 C44.9725341,25.7211362 43.8722166,26.6119021 43.3662057,28.1654766 C42.8986349,29.6015617 42.8827929,31.0839872 43.2415668,32.5427745 C43.6709305,34.2896681 44.9566921,35.284583 46.7740913,35.3676681 C47.1992616,35.3870936 47.6272275,35.3922426 48.0521649,35.3704766 C50.0000272,35.2707745 51.3994782,34.0022638 51.6820708,32.0681362 C51.7552234,31.5691574 51.7629114,31.0603489 51.8006541,30.5562213 M43.169812,37.2549872 L43.169812,43.6803915 C41.9506798,43.9127957 40.8242698,43.8313489 39.5962847,43.7412426 L39.5962847,22.5657745 L42.983203,22.5657745 C43.0726635,22.8290723 43.177267,23.1373064 43.3047016,23.5127106 C43.6010395,23.3486468 43.8652275,23.2026043 44.1291826,23.0558596 C46.861455,21.5341149 52.0823134,21.7814979 54.2622139,25.466966 C55.4918297,27.5454979 55.6875245,29.8004979 55.396312,32.1308596 C55.2350967,33.4202 54.8141199,34.6292638 54.0856226,35.7187319 C53.2548515,36.9603277 52.1284414,37.803583 50.717109,38.2744766 C48.1789005,39.1214766 45.9430872,38.8502213 43.169812,37.2549872" id="Fill-5" fill="#777777"></path>
                <path d="M109.179074,31.4745574 C107.507048,31.4745574 105.961757,31.4153447 104.424854,31.5005362 C103.708471,31.5403234 102.988361,31.8099404 102.304594,32.0676213 C101.649948,32.3147702 101.19985,32.8341106 101.197981,33.5701745 C101.196123,34.3221532 101.719839,34.7462383 102.338375,35.0537702 C102.51054,35.1394298 102.695751,35.2220468 102.883292,35.2506 C104.50453,35.4970468 106.121575,35.5288766 107.714857,35.0657064 C108.691933,34.7818128 109.190955,34.1243872 109.180005,33.0901532 C109.174181,32.5509191 109.179074,32.0114511 109.179074,31.4745574 M112.723014,38.4478553 C111.677444,38.4478553 110.67777,38.4895149 109.68555,38.4197702 C109.42742,38.4015149 109.193518,38.0361745 108.819135,37.7213872 C107.22329,38.6636426 105.354172,38.858366 103.433334,38.6694936 C101.951411,38.5239191 100.559881,38.143366 99.2978828,37.263366 C97.0618365,35.7041745 96.879421,31.675366 99.3151226,29.9755149 C100.804034,28.9358979 102.492834,28.5382596 104.230324,28.331834 C105.804736,28.1450681 107.395921,28.1017702 108.982214,27.9950468 C109.028342,26.7476 108.388606,25.8790681 107.014083,25.652983 C105.229766,25.3594936 103.450108,25.4264298 101.787401,26.2902809 C101.51436,26.4321106 101.245745,26.5833021 100.858549,26.7932383 C100.159173,25.993983 99.4574673,25.1916851 98.7226798,24.3519404 C100.107221,23.1250894 101.858223,22.5409191 103.724546,22.3080468 C105.467861,22.0903872 107.216767,22.1474936 108.907198,22.7169191 C111.470334,23.5803021 112.776131,25.3271957 112.81294,28.0430255 C112.854875,31.1628128 112.837868,34.2833021 112.837635,37.4035574 C112.837402,37.7036 112.773801,38.0038766 112.723014,38.4478553" id="Fill-7" fill="#777777"></path>
                <path d="M10.8479931,38.4039489 L7.0428936,38.4039489 C7.01866471,32.4819702 7.04312657,26.6206085 7.02588678,20.6022043 C6.38987861,20.6022043 5.78229278,20.6024383 5.17447398,20.6019702 C3.77875054,20.6012681 2.38279414,20.6162468 0.987536649,20.5923745 C0.123683787,20.5778638 0.0421442779,20.4919702 0.0134889646,19.6573745 C-0.0130696185,18.8855021 0.00789768392,18.1115234 0.00789768392,17.2102255 C0.472672888,17.1683319 0.840532561,17.1065447 1.20839223,17.1060766 C6.36471785,17.0995234 11.5212764,17.0978851 16.677602,17.1037362 C17.8603909,17.1051404 17.8897451,17.1489064 17.9093146,18.3736511 C17.9160707,18.8019489 17.8871824,19.2318851 17.913508,19.6585447 C17.9582383,20.3796298 17.6048228,20.6146085 16.9324713,20.6057149 C15.3431497,20.5846511 13.7533623,20.5949489 12.1635748,20.6022043 C11.7505189,20.6040766 11.3374631,20.6422255 10.8479931,20.6677362 L10.8479931,38.4039489 Z" id="Fill-9" fill="#777777"></path>
                <path d="M119.787853,38.3854362 L116.322191,38.3854362 L116.322191,22.5440319 L119.836078,22.5440319 C119.889661,23.1003511 119.943943,23.661117 119.996128,24.1984787 C120.818512,23.6746915 121.607116,23.0575213 122.489839,22.643266 C123.364176,22.2329894 124.341252,22.1265 125.427591,22.3596064 L125.427591,25.7522872 C124.648074,25.8398191 123.922605,25.9032447 123.202495,26.0055213 C121.224113,26.2870745 120.108187,27.467117 119.992867,29.5252872 C119.912492,30.9616064 119.963512,32.4054149 119.955358,33.8459468 C119.947903,35.2087766 119.941613,36.5713723 119.926936,37.933734 C119.925771,38.0435 119.861704,38.1527979 119.787853,38.3854362" id="Fill-11" fill="#777777"></path>
                <path d="M23.1564985,38.3945872 L19.7490789,38.3945872 C19.4639236,37.4233106 19.4278132,23.7868213 19.7099399,22.5506085 L23.0728623,22.5506085 C23.113865,23.1839277 23.1511402,23.7540553 23.2009958,24.5254596 C24.7038854,22.8930128 26.3812696,21.948183 28.6448064,22.3722681 L28.6448064,25.7361617 C27.8871879,25.8283745 27.1300353,25.8995234 26.3796388,26.0156085 C24.6265394,26.2868638 23.6089263,27.2920766 23.3447383,29.0609702 C23.2296511,29.8290979 23.1783977,30.6122043 23.167914,31.3892255 C23.1420544,33.2601617 23.1576634,35.131566 23.1567315,37.0027362 C23.1564985,37.4230766 23.1564985,37.843183 23.1564985,38.3945872" id="Fill-13" fill="#777777"></path>
                <path d="M131.766706,38.3936745 L128.359519,38.3936745 C128.079256,37.5202277 127.98304,18.9658021 128.250955,17.2210149 C129.234788,17.0010149 130.275698,17.0920574 131.298669,17.1742064 C131.499489,17.1903553 131.797225,17.6406532 131.820988,17.9109723 C131.892976,18.7235681 131.853604,19.5462277 131.853837,20.3649085 C131.855001,22.5478234 131.822153,24.7316745 131.869912,26.9136532 C131.889015,27.7894404 131.742011,28.5283128 131.021668,29.0785468 C130.960397,29.1251213 130.90891,29.1859723 130.858123,29.244717 C130.090021,30.1284617 130.024323,30.8273128 130.878857,31.5783553 C131.705668,32.3045894 131.933745,33.1265468 131.870145,34.1638234 C131.80864,35.173483 131.865019,36.1901638 131.853604,37.2035681 C131.849177,37.5813128 131.800021,37.9588234 131.766706,38.3936745" id="Fill-15" fill="#777777"></path>
                <path d="M144.129587,22.8385277 C141.57973,25.3139957 139.02964,27.7894638 136.373082,30.3686128 C137.203621,31.1608468 137.932584,31.849634 138.654558,32.5459106 C140.249937,34.0840383 141.849043,35.6179532 143.425784,37.1750383 C143.654794,37.4008894 143.768716,37.7437617 143.935988,38.0325702 C143.605637,38.1753362 143.275984,38.3195064 142.944468,38.4594638 C142.911386,38.4735064 142.867821,38.4632085 142.828915,38.4627404 C139.555686,38.4292723 140.242482,38.7513149 138.058388,36.5545915 C136.495858,34.9832298 134.918418,33.4263787 133.360081,31.8505702 C132.25324,30.7311447 132.248814,30.1284851 133.363576,28.9886979 C135.075672,27.2382936 136.825976,25.5255702 138.527589,23.7651021 C139.428484,22.8329106 140.49805,22.4249745 141.76564,22.4575064 C142.520463,22.4769319 143.275285,22.4907404 144.030108,22.5068894 C144.06319,22.6175915 144.096272,22.7280596 144.129587,22.8385277" id="Fill-17" fill="#777777"></path>
                <path d="M31.5998448,22.5272277 L35.0564211,22.5272277 L35.0564211,38.396483 L31.6643775,38.396483 C31.3822508,37.5071213 31.3193489,23.9628447 31.5998448,22.5272277" id="Fill-19" fill="#777777"></path>
                <path d="M149.38143,13.8244489 C149.226971,13.8244489 149.072279,13.8258532 148.917587,13.8242149 C146.579965,13.7977681 145.89713,13.1171723 145.89078,10.7350872 C145.888743,9.92319362 145.94186,9.10685319 146.034582,8.30010851 C146.135691,7.41589574 146.699712,6.85653404 147.555644,6.79568298 C148.781532,6.70885319 150.018836,6.71470426 151.247986,6.76525745 C152.124186,6.8013 152.738761,7.36253404 152.811681,8.21912979 C152.922341,9.52344894 152.924205,10.8443851 152.866661,12.1533851 C152.833114,12.9165979 152.307067,13.4417894 151.557603,13.6037468 C150.847044,13.7570447 150.114587,13.8087681 149.391913,13.9051936 C149.388419,13.8780447 149.385157,13.8511298 149.38143,13.8244489" id="Fill-21" fill="#777777"></path>
                <path d="M164.541092,21.9649872 C164.541092,22.4326043 164.563225,22.9016255 164.536666,23.3678383 C164.472599,24.4956894 164.01691,25.175817 162.911234,25.324434 C161.732872,25.4826468 160.518399,25.4524553 159.325359,25.3913702 C158.291205,25.3380085 157.677795,24.6087319 157.576453,23.6451787 C157.454843,22.4904128 157.469986,21.3082638 157.557583,20.1481149 C157.624911,19.2564128 158.200347,18.5608383 159.104737,18.4873489 C160.40634,18.3813277 161.730309,18.3752426 163.030282,18.4906255 C163.948417,18.5723064 164.403407,19.3277957 164.504283,20.2134128 C164.569981,20.7900936 164.516631,21.380583 164.516631,21.9647532 C164.524784,21.9647532 164.532938,21.9647532 164.541092,21.9649872" id="Fill-23" fill="#777777"></path>
                <path d="M149.404867,37.0584383 C148.90235,37.0584383 148.400067,37.0614809 147.897551,37.0577362 C146.971029,37.0509489 146.347368,36.6107149 146.102982,35.7089489 C145.71998,34.2946298 145.780552,32.8618213 146.067571,31.4449277 C146.210615,30.737183 146.724313,30.2384383 147.430912,30.1864809 C148.732748,30.0902894 150.049495,30.0266298 151.347837,30.1190766 C152.163232,30.1771191 152.805996,30.7575447 152.859113,31.6469064 C152.934828,32.9184596 152.974433,34.202183 152.881711,35.4697574 C152.813451,36.4045234 152.109416,36.9561617 151.142823,37.0366723 C150.567154,37.0846511 149.984263,37.0453319 149.404867,37.0453319 L149.404867,37.0584383 Z" id="Fill-25" fill="#777777"></path>
                <path d="M141.279804,9.39547447 C141.717089,9.64613404 142.241271,9.83945319 142.62474,10.1888787 C143.399365,10.8938149 144.120175,11.6631128 144.820016,12.4448149 C145.381241,13.0715809 145.416886,13.8195809 144.847274,14.458283 C143.967579,15.4440702 143.033136,16.3844532 142.071902,17.290666 C141.453134,17.8739 140.705999,17.8167936 139.998003,17.1195809 C139.11295,16.2480064 138.290566,15.311134 137.462124,14.3833894 C137.033226,13.9033681 136.864556,13.2892404 137.302074,12.7818362 C138.186661,11.7564957 139.133451,10.7812404 140.108431,9.84202766 C140.361203,9.5986234 140.813165,9.56421915 141.279804,9.39547447" id="Fill-27" fill="#777777"></path>
                <path d="M161.824615,30.3959957 C161.602129,30.793166 161.454892,31.2069532 161.184647,31.5098043 C160.514858,32.2606128 159.812686,32.9861447 159.079529,33.6744638 C158.233848,34.4674 157.246754,34.4894 156.377543,33.697166 C155.57799,32.9683574 154.830156,32.1765915 154.108182,31.3686766 C153.546258,30.7400383 153.532513,29.9896979 154.093971,29.3626979 C154.946175,28.4113149 155.83845,27.4926979 156.760779,26.6098894 C157.373956,26.0229106 158.025573,26.0098043 158.625005,26.5796979 C159.549896,27.4594638 160.432852,28.3867404 161.291813,29.3322723 C161.535965,29.6011872 161.634512,30.0035064 161.824615,30.3959957" id="Fill-29" fill="#777777"></path>
                <path d="M161.797311,13.5063149 C161.606742,13.9755702 161.53918,14.4464638 161.274526,14.7348043 C160.490815,15.5888255 159.669829,16.4194426 158.785708,17.1662723 C158.064199,17.7757191 157.629477,17.7506766 156.920317,17.1395915 C155.981214,16.3305064 155.072864,15.4799957 154.206216,14.5932085 C153.576498,13.9486553 153.579759,13.275783 154.181987,12.6293574 C154.975716,11.7776766 155.7981,10.9494 156.653333,10.1604426 C157.442169,9.43350638 158.084235,9.40752766 158.925024,10.1208894 C159.750902,10.8218468 160.519471,11.5979319 161.255656,12.3946128 C161.520776,12.681783 161.61839,13.1245915 161.797311,13.5063149" id="Fill-31" fill="#777777"></path>
                <path d="M151.736827,41.1153319 C151.749174,42.4826085 150.743908,43.5538213 149.451391,43.5505522 C148.136741,43.5472681 147.157568,42.4999277 147.17108,41.1113532 C147.183893,39.7908851 148.155844,38.8249915 149.461408,38.8352894 C150.810538,38.8458213 151.724479,39.7616298 151.736827,41.1153319" id="Fill-33" fill="#777777"></path>
                <g id="Group-37" transform="translate(147.004087, 0.066000)">
                    <mask id="mask-2" fill="white">
                        <use xlink:href="#path-1"></use>
                    </mask>
                    <g id="Clip-36"></g>
                    <path d="M4.71363597,2.57835319 C4.69779401,3.87986383 3.70860327,4.88367234 2.44404196,4.88086971 C1.15595068,4.87782128 0.0917435967,3.77665106 0.12226267,2.47818298 C0.151849864,1.21201277 1.19439074,0.167948936 2.42889891,0.167948936 C3.74121907,0.167948936 4.72994387,1.2110766 4.71363597,2.57835319" id="Fill-35" fill="#777777" mask="url(#mask-2)"></path>
                </g>
                <path d="M135.811135,5.90884894 C137.001845,5.89410426 138.126857,6.99948723 138.15295,8.20995532 C138.179276,9.43680638 137.127183,10.5169128 135.881492,10.5421894 C134.659099,10.5669979 133.5469,9.48221064 133.551776,8.26987021 C133.556917,7.00089149 134.587344,5.9240617 135.811135,5.90884894" id="Fill-38" fill="#777777"></path>
                <g id="Group-42" transform="translate(166.107629, 19.491532)">
                    <mask id="mask-4" fill="white">
                        <use xlink:href="#path-3"></use>
                    </mask>
                    <g id="Clip-41"></g>
                    <path d="M2.54796989,0.127278514 C3.8358282,0.131742553 4.86905027,1.13087021 4.89118243,2.39423191 C4.91331458,3.65104043 3.77618787,4.73816809 2.4701579,4.70914681 C1.18439632,4.68059362 0.188915395,3.64893404 0.217570708,2.37504043 C0.246691962,1.07212553 1.2312233,0.122614894 2.54796989,0.127278514" id="Fill-40" fill="#777777" mask="url(#mask-4)"></path>
                </g>
                <path d="M163.052484,37.7859362 C161.808191,37.7967021 160.818301,36.8542128 160.775901,35.618 C160.736995,34.4842979 161.830323,33.3213404 162.954869,33.3002766 C164.232011,33.2764043 165.250789,34.2895745 165.24916,35.5821915 C165.247527,36.8848723 164.36061,37.7744681 163.052484,37.7859362" id="Fill-43" fill="#777777"></path>
                <path d="M163.009035,6.07864681 C164.319957,6.08051915 165.171463,6.87439149 165.195459,8.11762553 C165.220386,9.4088383 164.326247,10.4086681 163.114337,10.4444766 C161.918036,10.4800511 160.78091,9.35500851 160.828668,8.15226383 C160.866875,7.18964681 161.59281,5.98385957 163.009035,6.07864681" id="Fill-45" fill="#777777"></path>
                <path d="M33.2670249,21.1524619 C32.0339146,21.1519936 31.2495045,20.3646745 31.2427484,19.1202702 C31.2357593,17.8934191 32.0411366,17.0644404 33.2577061,17.0466532 C34.5089881,17.0281638 35.3938083,17.9205681 35.3565331,19.1631 C35.3199568,20.3880787 34.5164432,21.1529298 33.2670249,21.1524619" id="Fill-47" fill="#777777"></path>
            </g>
        </g>
    </g>
</svg>