<?xml version="1.0" encoding="utf-8"?>
<!-- Generator: Adobe Illustrator 20.1.0, SVG Export Plug-In . SVG Version: 6.00 Build 0)  -->
<svg version="1.1" id="Layer_1" xmlns="http://www.w3.org/2000/svg" xmlns:xlink="http://www.w3.org/1999/xlink" x="0px" y="0px"
	 viewBox="0 0 510.2 510.2" style="enable-background:new 0 0 510.2 510.2;" xml:space="preserve">
<style type="text/css">
	.st0{fill:#969696;}
	.st1{fill:#FFFFFF;}
</style>
<g id="Layer_1_1_">
</g>
<g id="Logo__x2014__FIXED">
</g>
<g id="Logo">
	<path class="st0" d="M446.5,0H63.8C28.6,0,0,28.6,0,63.8v382.7c0,35.2,28.6,63.8,63.8,63.8h382.7c35.2,0,63.8-28.6,63.8-63.8V63.8
		C510.2,28.6,481.7,0,446.5,0z"/>
</g>
<rect x="80.9" y="197.9" class="st1" width="77.1" height="230.4"/>
<path class="st1" d="M119.5,166.5H119c-25.9,0-42.6-17.7-42.6-39.8c0-22.6,17.2-39.8,43.6-39.8s42.6,17.2,43.1,39.8
	C163.1,148.8,146.4,166.5,119.5,166.5z"/>
<path class="st1" d="M435.9,428.3h-77.1V305c0-31-11.2-52.1-39-52.1c-21.3,0-34,14.3-39.6,28c-2,4.9-2.5,11.8-2.5,18.7v128.7h-77.1
	c0,0,1-208.8,0-230.4h77.1v32.7c10.2-15.7,28.5-38.1,69.5-38.1c50.7,0,88.7,32.9,88.7,103.7L435.9,428.3L435.9,428.3z"/>
</svg>
