
<svg width="60px" height="60px" viewBox="0 0 60 60" version="1.1" xmlns="http://www.w3.org/2000/svg" xmlns:xlink="http://www.w3.org/1999/xlink">
    <g id="Page-1" stroke="none" stroke-width="1" fill="none" fill-rule="evenodd">
        <g id="02a_solution_page" transform="translate(-884.000000, -2541.000000)">
            <g id="Group-12" transform="translate(884.000000, 2541.000000)">
                <rect id="Rectangle-Copy-5" fill-rule="nonzero" x="0" y="0" width="60" height="60"></rect>
                <g id="icon-enterprise-software" transform="translate(1.000000, 1.000000)" stroke="#007278" stroke-linecap="round" stroke-linejoin="round" stroke-width="2">
                    <path d="M0.2495,5.2495 C0.2495,2.4895 2.4895,0.2495 5.2495,0.2495 L52.7495,0.2495 C55.5095,0.2495 57.7495,2.4895 57.7495,5.2495 L57.7495,52.7495 C57.7495,55.512 55.5095,57.7495 52.7495,57.7495 L5.2495,57.7495 C2.4895,57.7495 0.2495,55.512 0.2495,52.7495 L0.2495,5.2495 Z" id="Stroke-1"></path>
                    <path d="M0.2495,12.7495 L57.7495,12.7495" id="Stroke-3"></path>
                    <path d="M8.9995,5.8745 C9.347,5.8745 9.6245,6.1545 9.6245,6.4995 C9.6245,6.8445 9.347,7.1245 8.9995,7.1245 C8.6545,7.1245 8.3745,6.8445 8.3745,6.4995 C8.3745,6.1545 8.6545,5.8745 8.9995,5.8745" id="Stroke-5"></path>
                    <path d="M16.4995,5.8745 C16.847,5.8745 17.1245,6.1545 17.1245,6.4995 C17.1245,6.8445 16.847,7.1245 16.4995,7.1245 C16.1545,7.1245 15.8745,6.8445 15.8745,6.4995 C15.8745,6.1545 16.1545,5.8745 16.4995,5.8745" id="Stroke-7"></path>
                    <path d="M23.9995,5.8745 C24.347,5.8745 24.6245,6.1545 24.6245,6.4995 C24.6245,6.8445 24.347,7.1245 23.9995,7.1245 C23.6545,7.1245 23.3745,6.8445 23.3745,6.4995 C23.3745,6.1545 23.6545,5.8745 23.9995,5.8745" id="Stroke-9"></path>
                    <path d="M22.7495,12.7495 L22.7495,57.7495" id="Stroke-11"></path>
                    <path d="M7.82775,20.2495 L15.29025,20.2495" id="Stroke-13"></path>
                    <path d="M7.82775,25.2495 L15.29025,25.2495" id="Stroke-15"></path>
                    <path d="M7.82775,30.2495 L15.29025,30.2495" id="Stroke-17"></path>
                    <path d="M7.82775,35.2495 L15.29025,35.2495" id="Stroke-19"></path>
                    <path d="M7.82775,40.2495 L15.29025,40.2495" id="Stroke-21"></path>
                    <path d="M7.82775,45.2495 L15.29025,45.2495" id="Stroke-23"></path>
                    <path d="M7.82775,50.2495 L15.29025,50.2495" id="Stroke-25"></path>
                    <path d="M30.2495,21.4995 C30.2495,20.8095 30.8095,20.2495 31.4995,20.2495 L48.9995,20.2495 C49.6895,20.2495 50.2495,20.8095 50.2495,21.4995 L50.2495,31.4995 C50.2495,32.1895 49.6895,32.7495 48.9995,32.7495 L31.4995,32.7495 C30.8095,32.7495 30.2495,32.1895 30.2495,31.4995 L30.2495,21.4995 Z" id="Stroke-27"></path>
                    <path d="M30.2495,41.4995 C30.2495,40.8095 30.8095,40.2495 31.4995,40.2495 L36.4995,40.2495 C37.1895,40.2495 37.7495,40.8095 37.7495,41.4995 L37.7495,43.9995 C37.7495,44.6895 37.1895,45.2495 36.4995,45.2495 L31.4995,45.2495 C30.8095,45.2495 30.2495,44.6895 30.2495,43.9995 L30.2495,41.4995 Z" id="Stroke-29"></path>
                    <path d="M42.7495,41.4995 C42.7495,40.8095 43.3095,40.2495 43.9995,40.2495 L48.9995,40.2495 C49.6895,40.2495 50.2495,40.8095 50.2495,41.4995 L50.2495,43.9995 C50.2495,44.6895 49.6895,45.2495 48.9995,45.2495 L43.9995,45.2495 C43.3095,45.2495 42.7495,44.6895 42.7495,43.9995 L42.7495,41.4995 Z" id="Stroke-31"></path>
                </g>
            </g>
        </g>
    </g>
</svg>