<?xml version="1.0" encoding="UTF-8"?>
<svg width="200px" height="200px" viewBox="0 0 200 200" version="1.1" xmlns="http://www.w3.org/2000/svg" xmlns:xlink="http://www.w3.org/1999/xlink">
    <!-- Generator: Sketch 52.6 (67491) - http://www.bohemiancoding.com/sketch -->
    <title>Align Product Logo - ETW</title>
    <desc>Created with Sketch.</desc>
    <g id="Align-Product-Logo---ETW" stroke="none" stroke-width="1" fill="none" fill-rule="evenodd">
        <g id="Group-4">
            <rect id="Rectangle" fill="#41BDAC" fill-rule="nonzero" x="0" y="0" width="200" height="200"></rect>
            <g id="icon-strengthen-culture" transform="translate(53.703704, 53.703704)" fill="#FFFFFF">
                <path d="M46.5470679,64.5987654 C43.599537,64.5987654 40.6905864,63.6381173 38.3564815,61.8904321 C37.503858,61.253858 37.3302469,60.0424383 37.966821,59.1898148 C38.3294753,58.7075617 38.908179,58.4182099 39.5138889,58.4182099 C39.9305556,58.4182099 40.3317901,58.5493827 40.6674383,58.8001543 C42.341821,60.0540123 44.4290123,60.7445988 46.5470679,60.7445988 C48.6651235,60.7445988 50.7523148,60.0540123 52.4228395,58.8001543 C52.7584877,58.5493827 53.1597222,58.4143519 53.5802469,58.4143519 C54.1820988,58.4143519 54.7608025,58.7037037 55.1234568,59.1859568 C55.4359568,59.5987654 55.5632716,60.1080247 55.4899691,60.617284 C55.4166667,61.1265432 55.150463,61.5779321 54.7376543,61.8865741 C52.4035494,63.6381173 49.4945988,64.5987654 46.5470679,64.5987654 Z" id="Path"></path>
                <path d="M46.2962963,80.0462963 C31.878858,79.6334877 20.0154321,68.0516975 19.2939815,53.6805556 L19.2901235,39.8186728 C19.2901235,39.2746914 19.5216049,38.753858 19.9266975,38.3873457 C20.2854938,38.0671296 20.7445988,37.8896605 21.2229938,37.8896605 C21.253858,37.8896605 21.3811728,37.8973765 21.412037,37.8973765 C22.0833333,37.962963 22.8009259,37.9976852 23.6689815,38.0015432 C32.3302469,38.0015432 40.3587963,33.3140432 44.6219136,25.7716049 C44.9575617,25.1697531 45.6018519,24.7955247 46.2962963,24.7955247 C46.9907407,24.7955247 47.6350309,25.1697531 47.974537,25.775463 C52.2337963,33.3179012 60.2662037,38.0054012 68.9313272,38.0054012 C69.7453704,38.0054012 70.474537,37.970679 71.1805556,37.9012346 C71.2114198,37.8973765 71.3387346,37.8935185 71.3695988,37.8935185 C71.8479938,37.8935185 72.3070988,38.0709877 72.662037,38.3912037 C73.0709877,38.75 73.3024691,39.2708333 73.3024691,39.8186728 L73.3024691,53.5841049 C72.5771605,68.0324074 60.7368827,79.6373457 46.3503086,80.0501543 C46.3425926,80.0501543 46.3310185,80.0501543 46.3233025,80.0501543 C46.3155864,80.0462963 46.3078704,80.0462963 46.2962963,80.0462963 Z M23.1481481,53.5841049 C23.7692901,65.8873457 33.9621914,75.8371914 46.3503086,76.1921296 C58.6535494,75.8371914 68.8233025,65.8641975 69.4444444,53.4876543 L69.4444444,41.8595679 C69.2785494,41.8634259 69.1126543,41.8634259 68.9544753,41.8634259 C59.8996914,41.8634259 51.5393519,37.5655864 46.2962963,30.2970679 C41.0532407,37.5655864 32.6929012,41.8634259 23.6612654,41.8634259 C23.4876543,41.8634259 23.3179012,41.8595679 23.1481481,41.8595679 L23.1481481,53.5841049 Z" id="Shape" fill-rule="nonzero"></path>
                <path d="M44.375,91.6358025 C25.3626543,91.6358025 9.66435185,87.8703704 2.39197531,81.570216 C0.135030864,79.6064815 -0.262345679,76.2885802 1.46990741,73.8541667 C11.4313272,59.7955247 11.5740741,38.6304012 11.5740741,38.4182099 C11.4969136,19.220679 27.0563272,3.27932099 46.257716,2.88580247 C51.2152778,2.88580247 56.1766975,4.0007716 60.628858,6.11111111 C61.095679,6.33101852 61.4467593,6.72067901 61.6203704,7.20679012 C61.7939815,7.69290123 61.7669753,8.21759259 61.5470679,8.68055556 C61.2307099,9.34799383 60.5478395,9.78395062 59.8070988,9.78395062 C59.5216049,9.78395062 59.2438272,9.72222222 58.9814815,9.59876543 C55.0424383,7.73148148 50.6597222,6.74382716 46.3040123,6.74382716 C29.224537,7.09104938 15.3703704,21.2962963 15.4398148,38.4104938 C15.4398148,39.3287037 15.316358,60.9953704 4.62191358,76.0802469 C4.04320988,76.8942901 4.17824074,77.9976852 4.92669753,78.6535494 C11.3194444,84.1936728 26.8942901,87.7739198 44.6064815,87.7739198 C45.162037,87.7739198 45.7175926,87.7700617 46.2731481,87.7623457 C46.875,87.7700617 47.4498457,87.7739198 48.0246914,87.7739198 C65.7291667,87.7739198 81.2924383,84.1936728 87.6774691,78.6535494 C88.4259259,78.0015432 88.5570988,76.8942901 87.9822531,76.0802469 C77.2839506,60.9992284 77.1604938,39.3364198 77.1604938,38.4220679 C77.1604938,35.7060185 76.8094136,33.0015432 76.1188272,30.3780864 C75.9876543,29.8804012 76.0570988,29.3595679 76.3194444,28.9158951 C76.5779321,28.4722222 76.9945988,28.1558642 77.492284,28.0246914 C77.654321,27.9822531 77.816358,27.962963 77.9822531,27.962963 C78.8580247,27.962963 79.6257716,28.5570988 79.845679,29.4020062 C80.625,32.337963 81.0185185,35.3742284 81.0185185,38.4182099 C81.0185185,38.6304012 81.1612654,59.7955247 91.1226852,73.8503086 C92.8510802,76.2885802 92.4575617,79.6026235 90.2006173,81.5625 C82.9359568,87.8665123 67.2106481,91.6319444 48.1365741,91.6319444 C47.5154321,91.6319444 46.8942901,91.6280864 46.2654321,91.6203704 C45.6520062,91.6319444 45.0115741,91.6358025 44.375,91.6358025 Z" id="Path"></path>
                <path d="M67.5154321,29.8958333 C66.4506173,29.8958333 65.5864198,29.0316358 65.5864198,27.966821 L65.5864198,22.179784 L59.7993827,22.179784 C58.7345679,22.179784 57.8703704,21.3155864 57.8703704,20.2507716 C57.8703704,19.1859568 58.7345679,18.3217593 59.7993827,18.3217593 L65.5864198,18.3217593 L65.5864198,12.5347222 C65.5864198,11.4699074 66.4506173,10.6057099 67.5154321,10.6057099 C68.5802469,10.6057099 69.4444444,11.4699074 69.4444444,12.5347222 L69.4444444,18.3217593 L75.2314815,18.3217593 C76.2962963,18.3217593 77.1604938,19.1859568 77.1604938,20.2507716 C77.1604938,21.3155864 76.2962963,22.179784 75.2314815,22.179784 L69.4444444,22.179784 L69.4444444,27.966821 C69.4444444,29.0277778 68.5802469,29.8958333 67.5154321,29.8958333 Z" id="Path"></path>
                <path d="M82.9475309,16.3927469 C81.882716,16.3927469 81.0185185,15.5285494 81.0185185,14.4637346 L81.0185185,10.6057099 L77.1604938,10.6057099 C76.095679,10.6057099 75.2314815,9.74151235 75.2314815,8.67669753 C75.2314815,7.61188272 76.095679,6.74768519 77.1604938,6.74768519 L81.0185185,6.74768519 L81.0185185,2.88966049 C81.0185185,1.82484568 81.882716,0.960648148 82.9475309,0.960648148 C84.0123457,0.960648148 84.8765432,1.82484568 84.8765432,2.88966049 L84.8765432,6.74768519 L88.7345679,6.74768519 C89.7993827,6.74768519 90.6635802,7.61188272 90.6635802,8.67669753 C90.6635802,9.74151235 89.7993827,10.6057099 88.7345679,10.6057099 L84.8765432,10.6057099 L84.8765432,14.4637346 C84.8765432,15.5246914 84.0123457,16.3927469 82.9475309,16.3927469 Z" id="Path"></path>
            </g>
            <polygon id="Rectangle" fill-opacity="0.1" fill="#FFFFFF" fill-rule="nonzero" points="0 0 200 0 200 200"></polygon>
        </g>
    </g>
</svg>