<?xml version="1.0" encoding="UTF-8"?>
<svg width="595px" height="200px" viewBox="0 0 595 200" version="1.1" xmlns="http://www.w3.org/2000/svg" xmlns:xlink="http://www.w3.org/1999/xlink">
    <!-- Generator: Sketch 52.6 (67491) - http://www.bohemiancoding.com/sketch -->
    <title>Logo Horizontal - Dark On Transparent Background - ETW</title>
    <desc>Created with Sketch.</desc>
    <g id="Logo-Horizontal---Dark-On-Transparent-Background---ETW" stroke="none" stroke-width="1" fill="none" fill-rule="evenodd">
        <g id="New-Logo_RGB-Copy">
            <polyline id="Fill-1" fill="#1A1919" points="243.147614 49.9259259 316.996743 49.9259259 316.996743 65.5753086 260.647033 65.5753086 260.647033 91.4790123 310.592469 91.4790123 310.592469 107.128395 260.647033 107.128395 260.647033 133.881481 317.710249 133.881481 317.710249 149.533333 243.147614 149.533333 243.147614 49.9259259"></polyline>
            <polyline id="Fill-2" fill="#1A1919" points="360.105851 66.1432099 328.514066 66.1432099 328.514066 49.9259259 409.335311 49.9259259 409.335311 66.1432099 377.745996 66.1432099 377.745996 149.533333 360.105851 149.533333 360.105851 66.1432099"></polyline>
            <polyline id="Fill-3" fill="#1A1919" points="417.297448 49.9259259 436.226349 49.9259259 459.989315 123.780247 484.460851 49.637037 499.256846 49.637037 523.730851 123.780247 547.493817 49.9259259 565.849938 49.9259259 531.130083 150.246914 516.050166 150.246914 491.576162 78.6691358 467.099689 150.246914 452.014834 150.246914 417.297448 49.9259259"></polyline>
            <polyline id="Fill-4" fill="#A9AAA9" points="49.9898755 150.039506 49.9898755 200 99.9377801 150.039506 49.9898755 150.039506"></polyline>
            <polyline id="Fill-5" fill="#006A6B" points="199.818776 50.0419753 149.819025 0.0740740741 149.819025 50.0419753 199.818776 50.0419753"></polyline>
            <polyline id="Fill-6" fill="#CBCDC9" points="0 150.039506 49.9898755 100.044444 49.9898755 150.039506 0 150.039506"></polyline>
            <polyline id="Fill-7" fill="#CBCDC9" points="99.940249 50.0419753 49.9923444 0.0740740741 49.9923444 50.0419753 99.940249 50.0419753"></polyline>
            <polyline id="Fill-8" fill="#A9AAA9" points="49.9898755 50.0419753 0 50.0419753 49.9898755 100.041975 49.9898755 50.0419753"></polyline>
            <polyline id="Fill-9" fill="#A9AAA9" points="199.83112 150.039506 149.838776 100.044444 149.838776 150.039506 199.83112 150.039506"></polyline>
            <polyline id="Fill-10" fill="#A9AAA9" points="149.816556 0.0740740741 99.8563071 50.0419753 149.816556 50.0419753 149.816556 0.0740740741"></polyline>
            <polyline id="Fill-11" fill="#CBCDC9" points="149.816556 200 99.8563071 150.037037 149.816556 150.037037 149.816556 200"></polyline>
            <polyline id="Fill-12" fill="#CBCDC9" points="149.816556 100.044444 199.816307 50.0444444 149.816556 50.0444444 149.816556 100.044444"></polyline>
            <polyline id="Fill-13" fill="#24424C" points="49.9898755 0.0740740741 0 50.0419753 49.9898755 50.0419753 49.9898755 0.0740740741"></polyline>
            <polyline id="Fill-14" fill="#B2DBCD" points="49.9898755 150.039506 49.9898755 200 0 150.039506 49.9898755 150.039506"></polyline>
            <polyline id="Fill-15" fill="#43B5A0" points="149.838776 150.039506 149.838776 200 199.83112 150.039506 149.838776 150.039506"></polyline>
            <path d="M582.176639,60.5728395 L583.282697,60.5728395 C584.57639,60.5728395 585.620726,60.1407407 585.620726,59.0962963 C585.620726,58.1728395 584.946722,57.5555556 583.467863,57.5555556 C582.850643,57.5555556 582.418589,57.617284 582.176639,57.6814815 L582.176639,60.5728395 Z M582.114917,66.2938272 L579.774419,66.2938272 L579.774419,56.2024691 C580.69778,56.017284 581.991473,55.8962963 583.653029,55.8962963 C585.561473,55.8962963 586.420643,56.2024691 587.158838,56.6345679 C587.711867,57.0641975 588.143921,57.8641975 588.143921,58.8493827 C588.143921,59.9555556 587.279813,60.817284 586.05278,61.1876543 L586.05278,61.3111111 C587.035394,61.6790123 587.590892,62.4197531 587.897033,63.7728395 C588.208112,65.3111111 588.385871,65.9259259 588.637697,66.2938272 L586.114502,66.2938272 C585.808361,65.9259259 585.620726,65.0049383 585.309647,63.8345679 C585.131888,62.7259259 584.514668,62.2320988 583.223444,62.2320988 L582.114917,62.2320988 L582.114917,66.2938272 Z M575.898278,61.0024691 C575.898278,65.4962963 579.226328,69.0666667 583.774004,69.0666667 C588.208112,69.0666667 591.464564,65.4962963 591.464564,61.0666667 C591.464564,56.5703704 588.208112,52.9407407 583.714751,52.9407407 C579.226328,52.9407407 575.898278,56.5703704 575.898278,61.0024691 Z M594.049481,61.0024691 C594.049481,66.7259259 589.561058,71.217284 583.714751,71.217284 C577.932635,71.217284 573.318299,66.7259259 573.318299,61.0024691 C573.318299,55.4024691 577.932635,50.9111111 583.714751,50.9111111 C589.561058,50.9111111 594.049481,55.4024691 594.049481,61.0024691 Z" id="Fill-16" fill="#1A1919"></path>
        </g>
    </g>
</svg>