<?xml version="1.0" encoding="UTF-8"?>
<svg width="20px" height="20px" viewBox="0 0 20 20" version="1.1" xmlns="http://www.w3.org/2000/svg" xmlns:xlink="http://www.w3.org/1999/xlink">
    <!-- Generator: Sketch 55.2 (78181) - https://sketchapp.com -->
    <title>icon-facebook</title>
    <desc>Created with Sketch.</desc>
    <g id="Symbols" stroke="none" stroke-width="1" fill="none" fill-rule="evenodd">
        <g id="Footer" transform="translate(-1101.000000, -958.000000)" fill="#888888">
            <g id="icon-facebook" transform="translate(1101.000000, 958.000000)">
                <path d="M13.7941573,19.9921348 L13.7941573,12.2501124 L16.392809,12.2501124 L16.7818727,9.2328839 L13.7940824,9.2328839 L13.7940824,7.30651685 C13.7940824,6.4329588 14.0366292,5.8376779 15.2893633,5.8376779 L16.8870412,5.83692884 L16.8870412,3.13835206 C16.6107116,3.10164794 15.6622472,3.01947566 14.5589513,3.01947566 C12.2553558,3.01947566 10.6782772,4.42554307 10.6782772,7.00779026 L10.6782772,9.2328839 L8.0729588,9.2328839 L8.0729588,12.2501124 L10.6782772,12.2501124 L10.6782772,19.9921348 L1.10337079,19.9921348 C0.493857678,19.9921348 -7.99360578e-14,19.4980524 -7.99360578e-14,18.8886891 L-7.99360578e-14,1.10337079 C-7.99360578e-14,0.493932584 0.493857678,4.08562073e-14 1.10337079,4.08562073e-14 L18.8886891,4.08562073e-14 C19.4979026,4.08562073e-14 19.991985,0.493857678 19.991985,1.10337079 L19.991985,18.888764 C19.991985,19.4980524 19.4979775,19.9921348 18.8886891,19.9921348 L13.7941573,19.9921348 Z" id="Combined-Shape"></path>
            </g>
        </g>
    </g>
</svg>