
<svg width="60px" height="53px" viewBox="0 0 60 53" version="1.1" xmlns="http://www.w3.org/2000/svg" xmlns:xlink="http://www.w3.org/1999/xlink">
    <g id="Page-1" stroke="none" stroke-width="1" fill="none" fill-rule="evenodd">
        <g id="02a_solution_page" transform="translate(-761.000000, -1418.000000)">
            <g id="Group-6" transform="translate(761.000000, 1414.000000)">
                <rect id="Rectangle" fill-rule="nonzero" x="0" y="0" width="60" height="60"></rect>
                <g id="icon-improving-people" transform="translate(1.000000, 5.000000)" stroke="#007278" stroke-linecap="round" stroke-linejoin="round" stroke-width="2">
                    <path d="M46.5225,50.7368333 L57.7725,50.7368333 L57.7725,43.453119 C57.7725,40.3463095 55.8875,37.5524524 53.0225,36.4116905 L42.7725,31.8082619 L42.7725,25.4987381 C42.7725,25.4987381 46.5225,24.2368333 46.5225,17.9273095 C48.5875,17.9273095 48.5875,12.8796905 46.5225,12.8796905 C46.5225,12.2588333 48.64,7.55192857 47.7725,4.04635714 C46.905,0.543309524 40.0225,-0.526785714 35.4575,0.836071429" id="Stroke-1"></path>
                    <path d="M25.2725,28.311019 C29.115,28.7173524 32.9875,27.8971143 36.3475,25.9689238 C36.665,25.7771143 36.8825,25.4515429 36.94,25.0830667 C36.995,24.7120667 36.8875,24.336019 36.6425,24.0533524 C35.375,22.5945905 34.4975,20.7294952 34.115,15.035781 C33.4075,4.46101905 26.345,0.74092381 20.2725,0.74092381 C14.2025,0.74092381 7.1375,4.46101905 6.43,15.035781 C6.05,20.7294952 5.18,22.5945905 3.9025,24.0533524 C3.6575,24.336019 3.5525,24.7120667 3.6075,25.0830667 C3.665,25.4515429 3.8825,25.7771143 4.2,25.9689238 C7.5575,27.8971143 11.43,28.7173524 15.2725,28.311019" id="Stroke-3"></path>
                    <path d="M26.989,32.3309429 C26.0815,32.0482762 25.414,31.2633714 25.2715,30.3118952 L25.2715,26.3898952 C25.2715,25.784181 25.849,25.2112762 26.2915,24.8049429 C27.979,23.3613238 28.974,21.2589905 29.0215,19.0279429 L29.0215,13.6572762 C25.6265,13.1398952 22.5215,11.4161333 20.2715,8.79389524 C18.0265,11.4161333 14.9215,13.1398952 11.5215,13.6572762 L11.5215,19.0279429 C11.574,21.2589905 12.569,23.3638476 14.259,24.8049429 C14.699,25.2112762 15.2715,25.784181 15.2715,26.3898952 L15.2715,30.314419 C15.134,31.2658952 14.4665,32.0508 13.559,32.3334667 C10.3365,33.5701333 7.249,35.1424667 4.344,37.0227048 C1.584,38.9761333 0.039,42.2495143 0.2715,45.6440381 L0.2715,50.7370857 L40.2715,50.7370857 L40.2715,45.6440381 C40.514,42.2469905 38.9665,38.9736095 36.2015,37.020181 C33.299,35.1399429 30.2115,33.5676095 26.989,32.3309429 Z" id="Stroke-5"></path>
                </g>
            </g>
        </g>
    </g>
</svg>