<?xml version="1.0" encoding="UTF-8"?>
<svg width="19px" height="20px" viewBox="0 0 19 20" version="1.1" xmlns="http://www.w3.org/2000/svg" xmlns:xlink="http://www.w3.org/1999/xlink">
    <!-- Generator: Sketch 55.2 (78181) - https://sketchapp.com -->
    <title>icon-instagram</title>
    <desc>Created with Sketch.</desc>
    <g id="Symbols" stroke="none" stroke-width="1" fill="none" fill-rule="evenodd">
        <g id="Footer" transform="translate(-1227.000000, -958.000000)" fill="#888888">
            <g id="icon-instagram" transform="translate(1227.000000, 958.000000)">
                <path d="M13.5551758,0.587882353 C16.5566,0.587882353 18.9897515,3.07435294 18.9897515,6.14141176 L18.9897515,14.4367059 C18.9897515,17.5031765 16.5566,19.9896471 13.5551758,19.9896471 L5.43469091,19.9896471 C2.43326667,19.9896471 0.000115151515,17.5031765 0.000115151515,14.4367059 L0.000115151515,6.14141176 C0.000115151515,3.07435294 2.43326667,0.587882353 5.43469091,0.587882353 L13.5551758,0.587882353 Z M12.6249242,10.2887647 C12.6249242,12.0552353 11.2235303,13.487 9.49510606,13.487 C7.76668182,13.487 6.36471212,12.0552353 6.36471212,10.2887647 C6.36471212,8.52288235 7.76668182,7.09111765 9.49510606,7.09111765 C11.2235303,7.09111765 12.6249242,8.52288235 12.6249242,10.2887647 Z M9.49510606,5.25582353 C6.77407576,5.25582353 4.56892424,7.50935294 4.56892424,10.2887647 C4.56892424,13.0687647 6.77407576,15.3222941 9.49510606,15.3222941 C12.2155606,15.3222941 14.4212879,13.0687647 14.4212879,10.2887647 C14.4212879,7.50935294 12.2155606,5.25582353 9.49510606,5.25582353 Z M15.7687909,5.08482353 C15.7687909,4.41894118 15.2402455,3.87894118 14.5884879,3.87894118 C13.9367303,3.87894118 13.4081848,4.41894118 13.4081848,5.08482353 C13.4081848,5.75129412 13.9367303,6.29129412 14.5884879,6.29129412 C15.2402455,6.29129412 15.7687909,5.75129412 15.7687909,5.08482353 Z" id="Combined-Shape"></path>
            </g>
        </g>
    </g>
</svg>