
<svg width="81px" height="81px" viewBox="0 0 81 81" version="1.1" xmlns="http://www.w3.org/2000/svg" xmlns:xlink="http://www.w3.org/1999/xlink">
    <g id="Page-1" stroke="none" stroke-width="1" fill="none" fill-rule="evenodd">
        <g id="01a_homepage" transform="translate(-460.000000, -1156.000000)">
            <g id="Group-12" transform="translate(461.000000, 1157.000000)">
                <rect id="Rectangle" style="mix-blend-mode: multiply;" fill-rule="nonzero" x="0" y="0" width="80" height="80"></rect>
                <g id="icon-priorities">
                    <rect id="Rectangle" fill="#FF9C5B" fill-rule="nonzero" x="20" y="20" width="60" height="60"></rect>
                    <g id="Group-13" stroke="#000000" stroke-linecap="round" stroke-linejoin="round" stroke-width="2">
                        <path d="M29,49.8695652 C40.5252174,49.8695652 49.8695652,40.5252174 49.8695652,29 C49.8695652,17.4747826 40.5252174,8.13043478 29,8.13043478 C17.4747826,8.13043478 8.13043478,17.4747826 8.13043478,29 C8.13043478,40.5252174 17.4747826,49.8695652 29,49.8695652 Z" id="Stroke-1"></path>
                        <path d="M29,38.1304348 C34.0426087,38.1304348 38.1304348,34.0426087 38.1304348,29 C38.1304348,23.9573913 34.0426087,19.8695652 29,19.8695652 C23.9573913,19.8695652 19.8695652,23.9573913 19.8695652,29 C19.8695652,34.0426087 23.9573913,38.1304348 29,38.1304348 Z" id="Stroke-3"></path>
                        <path d="M29,0.304347826 L29,8.13043478" id="Stroke-5"></path>
                        <path d="M29,49.8695652 L29,57.6956522" id="Stroke-7"></path>
                        <path d="M57.6956522,29 L49.8695652,29" id="Stroke-9"></path>
                        <path d="M8.13043478,29 L0.304347826,29" id="Stroke-11"></path>
                    </g>
                </g>
            </g>
        </g>
    </g>
</svg>