
<svg width="33px" height="33px" viewBox="0 0 33 33" version="1.1" xmlns="http://www.w3.org/2000/svg" xmlns:xlink="http://www.w3.org/1999/xlink">
    <g id="Page-1" stroke="none" stroke-width="1" fill="none" fill-rule="evenodd">
        <g id="03a_resource_permalink" transform="translate(-237.000000, -869.000000)">
            <g id="share-linkedin" transform="translate(237.000000, 869.000000)">
                <circle id="Oval-Copy-2" fill="#41BDAC" cx="16.5" cy="16.5" r="16.5"></circle>
                <g id="icon-linkedin" transform="translate(8.000000, 7.000000)" fill="#FFFFFF">
                    <path d="M4.26440671,17.0656526 L4.26440671,6.24170007 L0.644854707,6.24170007 L0.644854707,17.0656526 L4.26472299,17.0656526 L4.26440671,17.0656526 Z M2.45526328,4.76413466 C3.7172357,4.76413466 4.50288471,3.93292553 4.50288471,2.89422848 C4.47916342,1.83195326 3.7172357,1.02400792 2.47930085,1.02400792 C1.24041713,1.02400792 0.43136313,1.83195326 0.43136313,2.89422848 C0.43136313,3.93292553 1.21669585,4.76413466 2.43154199,4.76413466 L2.45494699,4.76413466 L2.45526328,4.76413466 Z M6.2677484,17.0656526 L9.88698412,17.0656526 L9.88698412,11.0217814 C9.88698412,10.6986032 9.91070541,10.3747963 10.0062231,10.1440446 C10.2677898,9.49737398 10.8633523,8.82806829 11.8634417,8.82806829 C13.1728567,8.82806829 13.696939,9.82055212 13.696939,11.2757969 L13.696939,17.0656526 L17.3161747,17.0656526 L17.3161747,10.8595635 C17.3161747,7.53504137 15.5307526,5.98799895 13.1494517,5.98799895 C11.1970317,5.98799895 10.3395863,7.07259483 9.86326284,7.81137754 L9.88730041,7.81137754 L9.88730041,6.24201445 L6.26806469,6.24201445 C6.31519098,7.2574477 6.2677484,17.065967 6.2677484,17.065967 L6.2677484,17.0656526 Z" id="Combined-Shape"></path>
                </g>
            </g>
        </g>
    </g>
</svg>