
<svg width="33px" height="33px" viewBox="0 0 33 33" version="1.1" xmlns="http://www.w3.org/2000/svg" xmlns:xlink="http://www.w3.org/1999/xlink">
    <g id="Page-1" stroke="none" stroke-width="1" fill="none" fill-rule="evenodd">
        <g id="03a_resource_permalink" transform="translate(-194.000000, -869.000000)">
            <g id="share-twitter" transform="translate(194.000000, 869.000000)">
                <circle id="Oval-Copy" fill="#41BDAC" cx="16.5" cy="16.5" r="16.5"></circle>
                <path d="M19.6952209,10.0031077 L19.6952209,10 L20.5861136,10 L20.9116321,10.0590455 C21.1286501,10.0973785 21.3256745,10.1476138 21.5027051,10.2097669 C21.6797529,10.2719201 21.8510784,10.3444373 22.0166817,10.427303 C22.1823021,10.5101687 22.3325032,10.5946038 22.4672849,10.6805771 C22.6009188,10.765525 22.7208467,10.8556471 22.8270685,10.9509434 C22.9321253,11.0472808 23.0960325,11.0721421 23.3187556,11.0255272 C23.5414788,10.9789123 23.7813345,10.9141643 24.0383228,10.8312986 C24.2953111,10.7484329 24.5494554,10.6552031 24.8007214,10.5516093 C25.0520045,10.4480155 25.2050667,10.382242 25.2598909,10.354273 C25.3135672,10.3252786 25.3421271,10.3097403 25.3455537,10.3076582 L25.348963,10.3029967 L25.3660956,10.2952275 L25.3832281,10.2874584 L25.4003607,10.2796892 L25.4174932,10.2719201 L25.4209197,10.2672586 L25.4260595,10.2641509 L25.4312164,10.2610433 L25.4346258,10.2563818 L25.4517583,10.2517203 L25.4688909,10.2486127 L25.4654815,10.2719201 L25.4603246,10.2952275 L25.4517583,10.318535 L25.4431921,10.3418424 L25.4346258,10.3573807 L25.4260595,10.372919 L25.4174932,10.3962264 C25.4117881,10.4117647 25.406083,10.4324772 25.4003607,10.4583796 C25.3946555,10.4842819 25.3403968,10.5878602 25.2376014,10.7691454 C25.1348061,10.9504306 25.006312,11.1342952 24.852119,11.3207547 C24.6979261,11.5072142 24.5597349,11.6480844 24.4375284,11.7433962 C24.314174,11.8397336 24.2325032,11.907061 24.1925158,11.945394 C24.1525455,11.9847525 24.104009,12.0210033 24.0468891,12.054162 L23.9612263,12.1054384 L23.9440938,12.1132075 L23.9269612,12.1209767 L23.9235518,12.1256382 L23.918395,12.1287458 L23.9132552,12.1318535 L23.9098287,12.136515 L23.8926961,12.1442841 L23.8755636,12.1520533 L23.8721542,12.1567148 L23.8669973,12.1598224 L23.8618575,12.1629301 L23.858431,12.1675916 L23.8550216,12.1722531 L23.8498647,12.1753607 L23.844725,12.1784684 L23.8412985,12.1831299 L23.9269612,12.1831299 L24.4066727,12.0899001 C24.726486,12.0277469 25.0320108,11.9526504 25.3232642,11.8645949 L25.7858431,11.7247503 L25.8372408,11.709212 L25.8629396,11.7014428 L25.8800721,11.6936737 L25.8972047,11.6859046 L25.9143372,11.6781354 L25.9314698,11.6703663 L25.9657349,11.6657048 L26,11.6625971 L26,11.6936737 L25.9914337,11.6967814 L25.9828674,11.7014428 L25.9794581,11.7061043 L25.9743012,11.709212 L25.9691614,11.7123196 L25.9657349,11.7169811 L25.9623255,11.7216426 L25.9571686,11.7247503 L25.9520289,11.7278579 L25.9486023,11.7325194 L25.945193,11.7371809 L25.9400361,11.7402886 L25.9314698,11.7558269 L25.9229035,11.7713651 L25.9177638,11.7744728 C25.9154851,11.7775805 25.842963,11.8656204 25.7001803,12.0386238 C25.5574148,12.2126526 25.4803183,12.3006926 25.4688909,12.3027747 C25.4574806,12.3058824 25.4414788,12.3214206 25.4209197,12.3493896 C25.4015086,12.378384 25.2804328,12.4938957 25.0577096,12.6958935 C24.8349865,12.8978912 24.6168548,13.0776071 24.4032633,13.2350721 C24.188541,13.3935627 24.0800234,13.5883041 24.0777448,13.8193119 C24.0743183,14.0492786 24.0611776,14.3092963 24.0383228,14.5993341 C24.0154851,14.8893873 23.9726537,15.2027325 23.9098287,15.5394007 C23.8470207,15.8760688 23.7499306,16.2567569 23.6185753,16.681465 C23.4872372,17.1061731 23.3273219,17.5205327 23.1388638,17.9245283 C22.9504058,18.3285239 22.7533814,18.6910788 22.5477908,19.0122087 C22.3422002,19.3333385 22.1537421,19.6052586 21.9824166,19.8279689 C21.8110911,20.0506792 21.6369216,20.2604462 21.4598738,20.4572697 C21.2828431,20.6540932 21.0589892,20.875778 20.7882949,21.1223085 C20.5164527,21.3678135 20.367982,21.5024839 20.3428485,21.5263041 C20.3165843,21.5490988 20.2046573,21.6340466 20.0070334,21.7811321 C19.8105915,21.9292586 19.5992786,22.0773851 19.3731289,22.2255272 C19.1481271,22.3726282 18.9413886,22.4953807 18.7529306,22.5937847 C18.5644725,22.6921887 18.3371921,22.8045771 18.071055,22.9309656 C17.806083,23.0583796 17.5193868,23.1764706 17.2110009,23.2852386 C16.902615,23.3940067 16.5770965,23.4950055 16.2344454,23.5882353 C15.8917944,23.681465 15.5605708,23.7539822 15.2407574,23.8057714 C14.9209612,23.8575605 14.5583165,23.901596 14.1528404,23.9378468 L13.5446348,23.9922309 L13.5446348,24 L12.4310189,24 L12.4310189,23.9922309 L12.2853922,23.9844617 C12.1883192,23.9792875 12.1083616,23.9740977 12.0455365,23.9689234 C11.9827286,23.9637492 11.7457169,23.9352519 11.3345356,23.8834628 C10.9233544,23.8316737 10.600697,23.779869 10.3665464,23.7280799 C10.132413,23.6762908 9.78403968,23.5778713 9.32146078,23.4328524 C8.85888188,23.2878335 8.46311993,23.1412453 8.13417493,22.9931188 C7.80637782,22.8460178 7.6007872,22.752788 7.51740307,22.7134295 C7.43516682,22.6750966 7.34265104,22.6274562 7.23985573,22.5704772 L7.08566276,22.4850166 L7.08225338,22.4803552 L7.07709648,22.4772475 L7.07195672,22.4741398 L7.06853021,22.4694784 L7.05139766,22.4617092 L7.0342651,22.4539401 L7.03085573,22.4492786 L7.02569883,22.4461709 L7.02055906,22.4430633 L7.01713255,22.4384018 L7.01372317,22.4337403 L7.00856628,22.4306326 L7,22.4306326 L7,22.399556 L7.01713255,22.4026637 L7.0342651,22.4073252 L7.11136159,22.4150943 C7.16275924,22.4202686 7.30268079,22.4280377 7.53110911,22.4384018 C7.75955455,22.4487658 8.00225428,22.4487658 8.25924256,22.4384018 C8.51623084,22.4280377 8.77894139,22.4047303 9.04733995,22.3684795 C9.31575564,22.3322286 9.63270784,22.2700755 9.99819657,22.18202 C10.3637024,22.0939645 10.6995005,21.9893452 11.0056078,21.8681465 C11.3105672,21.7459223 11.5275681,21.6547592 11.6566447,21.5946726 C11.7845564,21.5356271 11.9798674,21.425818 12.2425609,21.2652608 L12.6366096,21.0244173 L12.6400361,21.0197558 L12.6451758,21.0166482 L12.6503327,21.0135405 L12.6537421,21.008879 L12.6571686,21.0042175 L12.6623084,21.0011099 L12.6674653,20.9980022 L12.6708747,20.9933407 L12.6880072,20.9886792 L12.7051398,20.9855716 L12.7085663,20.9700333 L12.713706,20.954495 L12.7188629,20.9513873 L12.7222723,20.9467259 L12.5852119,20.9389567 C12.493844,20.9337825 12.4053201,20.9285927 12.3196573,20.9234184 C12.2339946,20.9182442 12.0997953,20.8949367 11.9170424,20.8534961 C11.7343066,20.8120555 11.5372822,20.7499023 11.3259693,20.6670366 C11.1146736,20.5841709 10.909083,20.4857514 10.7091975,20.3718091 C10.5093291,20.2578668 10.3648332,20.1630677 10.2757439,20.0874584 C10.1878025,20.012859 10.0735798,19.9072142 9.93309288,19.7704772 C9.79375383,19.6327148 9.67267809,19.4913008 9.56988278,19.3462819 C9.46708747,19.201263 9.36886655,19.0339467 9.27522002,18.8443951 L9.13300271,18.5615982 L9.12443643,18.5382908 L9.11587015,18.5149834 L9.11073039,18.4994451 L9.10730388,18.4839068 L9.13300271,18.4870144 L9.15870153,18.4916759 L9.3471596,18.5149834 C9.47280974,18.5305216 9.66983408,18.5356959 9.93823264,18.5305216 C10.2066483,18.5253474 10.3922453,18.5149834 10.4950406,18.4994451 C10.5978359,18.4839068 10.660661,18.4735427 10.6834986,18.4683685 L10.7177638,18.4605993 L10.7605951,18.4528302 L10.8034265,18.445061 L10.806853,18.4403996 L10.8119928,18.4372919 L10.8171497,18.4341842 L10.8205591,18.4295228 L10.786294,18.4217536 L10.7520289,18.4139845 L10.7177638,18.4062153 L10.6834986,18.3984462 L10.6492335,18.390677 C10.6263959,18.3855028 10.5864256,18.3751387 10.5293057,18.3596004 C10.4722029,18.3440622 10.3180099,18.2870832 10.0667268,18.1886792 C9.81546078,18.0902752 9.61557529,17.9944506 9.46708747,17.9012209 C9.31823155,17.8077209 9.17629781,17.7054666 9.04220018,17.5951165 C8.90856628,17.4832408 8.76180884,17.3392475 8.6018936,17.1631521 C8.44199549,16.9870566 8.29922994,16.7824639 8.1735798,16.5493896 C8.0479468,16.3163152 7.95371776,16.0936049 7.8908927,15.8812431 C7.82832026,15.6701304 7.78703797,15.4542959 7.76755546,15.236404 L7.73669973,14.9100999 L7.75383228,14.9132075 L7.77096483,14.917869 L7.78809739,14.9256382 L7.80522994,14.9334073 L7.82236249,14.9411765 L7.83949504,14.9489456 L8.10504959,15.0577137 C8.28209739,15.1302309 8.50195942,15.192384 8.76465284,15.2441731 C9.02736339,15.2959623 9.18440036,15.3244595 9.23579802,15.3296337 L9.3128945,15.3374029 L9.46708747,15.3374029 L9.46367809,15.3327414 L9.45852119,15.3296337 L9.45338142,15.3265261 L9.44995491,15.3218646 L9.44654554,15.3172031 L9.44138864,15.3140954 L9.43624887,15.3109878 L9.43282236,15.3063263 L9.41568981,15.2985572 L9.39855726,15.290788 L9.39514788,15.2861265 L9.38999098,15.2830189 L9.38485122,15.2799112 L9.38142471,15.2752497 L9.36429216,15.2674806 L9.3471596,15.2597114 L9.34375023,15.2550499 C9.34032372,15.2529678 9.29120469,15.2198246 9.19639315,15.1556049 C9.10272949,15.0903441 9.00450857,15.0059245 8.90171326,14.9023307 C8.79891794,14.798737 8.69612263,14.6899689 8.59332732,14.5760266 C8.49034275,14.4618233 8.39861671,14.3396372 8.31920649,14.2108768 C8.23926601,14.0813962 8.15473399,13.9166748 8.06564472,13.7167592 C7.97770334,13.517869 7.91088638,13.3174251 7.86519387,13.1154273 C7.81951849,12.9134295 7.79381966,12.7140266 7.78809739,12.5172031 C7.78239225,12.3203796 7.78809739,12.1520533 7.80522994,12.0122087 C7.82236249,11.872364 7.85662759,11.7143862 7.90802525,11.5382908 C7.9594229,11.3621953 8.03367538,11.1757358 8.13074842,10.9789123 L8.27637511,10.6836848 L8.28494139,10.6603774 L8.29350766,10.6370699 L8.29866456,10.6339623 L8.30207394,10.6293008 L8.30550045,10.6246393 L8.31064022,10.6215316 L8.31579711,10.6246393 L8.31920649,10.6293008 L8.322633,10.6339623 L8.32777277,10.6370699 L8.33292967,10.6401776 L8.33633904,10.6448391 L8.33976555,10.6495006 L8.34490532,10.6526082 L8.3534716,10.6681465 L8.36203787,10.6836848 L8.36719477,10.6867925 L8.37060415,10.6914539 L8.6018936,10.9245283 C8.75608656,11.0799112 8.9388395,11.2534273 9.15013526,11.445061 C9.36144815,11.6366948 9.47851488,11.7361398 9.50135257,11.7433962 C9.52420739,11.7516781 9.55275023,11.7754983 9.58701533,11.8148724 C9.62128043,11.8532053 9.73550316,11.9448812 9.92966637,12.0899001 C10.1238467,12.234919 10.3779739,12.4032608 10.6920649,12.5948946 C11.0061731,12.7865283 11.3545293,12.9755827 11.7371506,13.1620422 C12.119789,13.3485017 12.5309702,13.516828 12.9706943,13.6670366 C13.4104355,13.8172453 13.7188215,13.9156493 13.8958521,13.9622642 C14.0728999,14.008879 14.3755636,14.0684373 14.8038774,14.1409545 C15.2321912,14.2134717 15.5548656,14.2600866 15.7718665,14.2807991 C15.9888846,14.3015117 16.1373724,14.3134295 16.2173129,14.3165372 L16.3372408,14.3196448 L16.3338314,14.2963374 L16.3286745,14.27303 L16.2944094,14.0788013 C16.2715717,13.9493208 16.2601443,13.7680355 16.2601443,13.5349612 C16.2601443,13.3018868 16.280138,13.0869456 16.3201082,12.8901221 C16.3600956,12.6932986 16.4200595,12.4938957 16.5,12.2918979 C16.5799576,12.0899001 16.658202,11.9277736 16.734716,11.8055494 C16.812395,11.6843507 16.9140424,11.5460599 17.0396754,11.390677 C17.1653255,11.2352941 17.3280848,11.074737 17.5279531,10.90899 C17.7278386,10.7432431 17.9562669,10.5956293 18.2132552,10.4661487 C18.4702435,10.3366681 18.7072552,10.2382486 18.9242561,10.1709212 C19.1412741,10.1035938 19.3240271,10.0595583 19.4724977,10.0388457 C19.6209856,10.0181332 19.6952209,10.0062153 19.6952209,10.0031077 Z" id="icon-twitter" fill="#FFFFFF"></path>
            </g>
        </g>
    </g>
</svg>