
<svg width="54px" height="62px" viewBox="0 0 54 62" version="1.1" xmlns="http://www.w3.org/2000/svg" xmlns:xlink="http://www.w3.org/1999/xlink">
    <g id="Page-1" stroke="none" stroke-width="1" fill="none" fill-rule="evenodd">
        <g id="02a_solution_page" transform="translate(-502.000000, -2540.000000)">
            <g id="Group-5" transform="translate(499.000000, 2541.000000)">
                <rect id="Rectangle-Copy-7" fill-rule="nonzero" x="0" y="0" width="60" height="60"></rect>
                <g id="icon-strategic-services" transform="translate(4.000000, 0.000000)" stroke="#007278" stroke-linecap="round" stroke-linejoin="round" stroke-width="2">
                    <path d="M48.1585282,30.0013503 L48.1596166,29.9997299 L48.1585282,29.9986497 C50.4735333,28.4652017 52,25.8509403 52,22.8807288 C52,18.391113 48.5122549,14.7165633 44.0803315,14.3638541 C44.6996253,13.4645265 45.0626033,12.3783117 45.0626033,11.2067553 C45.0626033,8.11231242 42.534818,5.60337765 39.4171254,5.60337765 C38.6563409,5.60337765 37.9320175,5.75461592 37.2697323,6.02522438 C37.2806162,5.88586912 37.2909559,5.74597373 37.2909559,5.60337765 C37.2909559,2.50893476 34.7637148,0 31.6454779,0 C28.5277853,0 26,2.50893476 26,5.60337765 L26,29.9997299 L26,54.3966223 C26,57.4910652 28.5277853,60 31.6454779,60 C34.7637148,60 37.2909559,57.4910652 37.2909559,54.3966223 C37.2909559,54.2540263 37.2806162,54.1141309 37.2697323,53.9742355 C37.9320175,54.2448439 38.6563409,54.3966223 39.4171254,54.3966223 C42.534818,54.3966223 45.0626033,51.8876876 45.0626033,48.7932447 C45.0626033,47.6216883 44.6996253,46.5349333 44.0803315,45.6361459 C48.5122549,45.2828966 52,41.6083469 52,37.118731 C52,34.1490597 50.4735333,31.5342582 48.1585282,30.0013503 Z" id="Stroke-1"></path>
                    <path d="M43,21.9581395 C42.062954,22.6129199 40.9052663,23 39.6516949,23 C36.530569,23 34,20.5994832 34,17.6387597 C34,15.6578811 35.1326271,13.9281654 36.816586,13" id="Stroke-3"></path>
                    <path d="M34,31 C34,28.2842097 35.1409836,25.8178228 37,24" id="Stroke-7"></path>
                    <path d="M43,37.0413437 C42.062954,36.3865633 40.9052663,36 39.6516949,36 C36.530569,36 34,38.4 34,41.3612403 C34,43.3416021 35.1326271,45.0718346 36.816586,46" id="Stroke-9"></path>
                    <path d="M34,30 C34,32.7161428 35.1409836,35.1823268 37,37" id="Stroke-13"></path>
                    <path d="M26,30 L26,54.3961327 C26,57.4910878 23.4722147,60 20.3545221,60 C17.2362852,60 14.7084999,57.4910878 14.7084999,54.3961327 C14.7084999,54.254078 14.719928,54.1141839 14.7302677,53.9742897 C14.0679825,54.2448958 13.3436591,54.3961327 12.5834188,54.3961327 C9.46518199,54.3961327 6.93794085,51.8877606 6.93794085,48.7928054 C6.93794085,47.6217997 7.30091885,46.5350546 7.91966846,45.6362753 C3.48774515,45.2830291 0,41.6085125 0,37.118937 C0,34.1492924 1.52646671,31.5345144 3.84147184,30.0016204 L3.84038345,30 L3.84147184,29.9989197 C1.52646671,28.4654856 0,25.8512477 0,22.881063 C0,18.3914875 3.48774515,14.7169709 7.91966846,14.3642649 C7.30091885,13.4649454 6.93794085,12.3782003 6.93794085,11.2071946 C6.93794085,8.11277952 9.46518199,5.60386734 12.5834188,5.60386734 C13.3436591,5.60386734 14.0679825,5.75510425 14.7302677,6.02571027 C14.719928,5.88581614 14.7090441,5.74646214 14.7090441,5.60386734 C14.7090441,2.50945231 17.2362852,0 20.3545221,0 C23.4722147,0 26,2.50945231 26,5.60386734" id="Stroke-21"></path>
                    <path d="M9,21.9581395 C9.937046,22.6129199 11.0952785,23 12.3483051,23 C15.469431,23 18,20.5994832 18,17.6387597 C18,15.6578811 16.8673729,13.9281654 15.1839588,13" id="Stroke-23"></path>
                    <path d="M18,31 C18,28.2842097 16.8584016,25.8178228 15,24" id="Stroke-27"></path>
                    <path d="M9,37.0413437 C9.937046,36.3865633 11.0952785,36 12.3483051,36 C15.469431,36 18,38.4 18,41.3612403 C18,43.3416021 16.8673729,45.0718346 15.1839588,46" id="Stroke-29"></path>
                    <path d="M18,30 C18,32.7161428 16.8584016,35.1823268 15,37" id="Stroke-33"></path>
                </g>
            </g>
        </g>
    </g>
</svg>