
<svg width="128px" height="50px" viewBox="0 0 128 50" version="1.1" xmlns="http://www.w3.org/2000/svg" xmlns:xlink="http://www.w3.org/1999/xlink">
    <defs>
        <polygon id="path-1" points="0.0778925804 0.0757637486 9.7200998 0.0757637486 9.7200998 10.1390979 0.0778925804 10.1390979"></polygon>
        <polygon id="path-3" points="0.0223978989 0.0258615642 8.23060277 0.0258615642 8.23060277 7.44147157 0.0223978989 7.44147157"></polygon>
        <polygon id="path-5" points="0 49.9421405 127.970921 49.9421405 127.970921 0 0 0"></polygon>
    </defs>
    <g id="Page-1" stroke="none" stroke-width="1" fill="none" fill-rule="evenodd">
        <g id="01a_homepage" transform="translate(-753.000000, -755.000000)">
            <g id="Group-48" transform="translate(753.000000, 755.000000)">
                <path d="M85.8597358,32.6205184 C86.8360825,32.6205184 87.7588927,32.6316388 88.6809466,32.6123244 C88.8968573,32.607893 89.120416,32.523612 89.3233838,32.4367391 C90.0247364,32.1365719 90.1780339,31.1435117 89.5760221,30.6741973 C89.3691041,30.5128261 89.0697371,30.4065552 88.8059209,30.3914214 C87.9553891,30.3425084 87.1016636,30.3457692 86.2491146,30.334398 C86.1272499,30.3328094 86.0048809,30.3616555 85.8597358,30.379214 L85.8597358,32.6205184 Z M85.8580549,34.3086455 L85.8580549,36.7798829 C85.933611,36.7924247 85.9861389,36.8086455 86.0388349,36.8087291 C86.9884554,36.8101505 87.938244,36.8215217 88.8874443,36.8026254 C89.1752131,36.7967726 89.4684449,36.730301 89.7468008,36.6494482 C90.4278986,36.451204 90.5933825,35.8168395 90.4778211,35.2967726 C90.4164685,35.020602 90.3050253,34.776204 90.0350739,34.6242809 C89.6879695,34.428796 89.3272499,34.3073077 88.9240877,34.3096488 C88.1839905,34.313913 87.4438934,34.309398 86.7037121,34.3086455 C86.439812,34.3083946 86.1759958,34.3086455 85.8580549,34.3086455 L85.8580549,34.3086455 Z M83.8953602,38.5875753 L83.8953602,28.5858194 C83.9994915,28.5683445 84.1037069,28.5358194 84.2080903,28.5357358 C85.7624121,28.532893 87.31707,28.5155017 88.8709715,28.5427592 C89.6822545,28.5569732 90.4447916,28.7848997 91.0812617,29.3239465 C91.5907404,29.7554682 91.8219472,30.3274582 91.8758198,30.9720234 C91.9512079,31.8730268 91.6366288,32.631388 90.9339315,33.2592308 C91.0607548,33.3434281 91.1631212,33.4087291 91.2627141,33.4777926 C91.8885946,33.9117391 92.3140286,34.4801338 92.3907614,35.2516221 C92.4261442,35.6072241 92.4292538,35.9722742 92.3927785,36.3276254 C92.2917568,37.3131605 91.6877279,37.9267893 90.8240011,38.3293813 C90.3983149,38.5277926 89.9517016,38.5957692 89.4800431,38.5924247 C87.7717515,38.5801338 86.0632919,38.5875753 84.3549163,38.5875753 L83.8953602,38.5875753 Z" id="Fill-1" fill="#777777"></path>
                <path d="M60.8202548,28.5343896 C61.4658858,28.5343896 62.0936993,28.5259448 62.7209245,28.5429181 C62.8224504,28.5455936 62.9506185,28.6389047 63.0163414,28.7272826 C63.8151018,29.7999415 64.604281,30.8797074 65.3965699,31.9572157 C65.5193592,32.1242726 65.6446697,32.2894064 65.8030939,32.5011957 C65.9579041,32.3162458 66.0965778,32.168587 66.2149967,32.0062124 C66.9707262,30.9706773 67.7246067,29.9338043 68.472436,28.8925836 C68.6572502,28.6352258 68.8701353,28.5089716 69.2075745,28.5292057 C69.7375601,28.5608946 70.2708234,28.5376505 70.8128273,28.5376505 C70.8129114,28.5377341 70.8240053,28.5460117 70.832914,28.5561288 C70.8418227,28.5662458 70.8552699,28.578286 70.8552699,28.58949 C70.8623296,31.8343896 70.868633,35.0791221 70.873592,38.3239381 C70.873592,38.4057107 70.8608168,38.4873161 70.8539251,38.569005 L68.9287984,38.569005 L68.9287984,31.548102 C68.9052659,31.5424164 68.8816494,31.5366472 68.8581169,31.5310452 C68.5148785,31.9966806 68.1709678,32.4618144 67.828738,32.9281187 C67.2927012,33.6583027 66.7578411,34.3893227 66.2222246,35.1199247 C66.2058359,35.1423328 66.1865896,35.1627341 66.1691924,35.1845569 C65.9221852,35.4930853 65.7082075,35.4970151 65.4786815,35.1873997 C64.9641602,34.4934197 64.4552699,33.7951756 63.9418411,33.1003595 C63.5548995,32.5769482 63.1644281,32.0560452 62.7227735,31.4631522 L62.7227735,38.5690886 C62.0756297,38.6036204 61.4547919,38.5814632 60.8437873,38.590995 C60.7504137,38.2636538 60.7277216,29.0909114 60.8202548,28.5343896" id="Fill-3" fill="#777777"></path>
                <path d="M80.4474705,33.531597 C80.4474705,33.3647074 80.4660444,33.1954766 80.4444449,33.0315134 C80.3154364,32.0512458 79.913871,31.2220652 79.0533379,30.6711455 C78.4946091,30.3135368 77.8688126,30.1944732 77.2112473,30.2246572 C75.8335033,30.2880351 74.8151343,31.0445569 74.3881035,32.3714799 C74.1510976,33.1078512 74.1632,33.8553428 74.3456609,34.5938043 C74.6196465,35.7020819 75.2857844,36.463286 76.4143359,36.7877007 C76.8246419,36.9056773 77.2428481,36.9292559 77.660634,36.8936371 C78.7011068,36.8047575 79.5205421,36.3569314 80.0369124,35.4165468 C80.361829,34.8247408 80.4901652,34.1979849 80.4474705,33.531597 M82.5762374,33.5456438 C82.5478303,34.6417977 82.3154469,35.6817642 81.7257896,36.6090217 C80.9499735,37.829005 79.8135217,38.5289214 78.3813169,38.7465635 C77.3864804,38.8978177 76.4061836,38.8432191 75.4410148,38.5345234 C74.2789295,38.1629515 73.4170516,37.4372826 72.8214272,36.3880351 C72.3356491,35.5326003 72.1237726,34.5982358 72.1410858,33.6292559 C72.1692407,32.0572659 72.6324948,30.6443896 73.8482007,29.5569314 C74.6203188,28.8663796 75.5290936,28.4899582 76.5596491,28.3630351 C77.291594,28.2728177 78.0118566,28.291296 78.7236307,28.4667977 C80.4749531,28.8984866 81.643762,29.9736538 82.2340076,31.6672157 C82.3298185,31.9422157 82.4085684,32.2266639 82.458743,32.5129515 C82.5184988,32.8536706 82.5388376,33.2011622 82.5762374,33.5456438" id="Fill-5" fill="#777777"></path>
                <path d="M93.5427614,15.3250753 C93.4519932,15.7392057 93.462919,18.0873662 93.5568809,18.4145401 C94.61307,18.4145401 95.6741337,18.4290886 96.7343569,18.4060953 C97.0749058,18.3987375 97.3690621,18.2073495 97.60985,17.9589381 C98.1103359,17.4422993 98.1363898,16.8189716 97.8933326,16.2116973 C97.6660759,15.6441388 97.1839958,15.330092 96.5452565,15.3265803 C95.5539498,15.3211455 94.5625592,15.3250753 93.5427614,15.3250753 M97.5005079,20.0257441 C98.0424278,20.6367809 98.5382913,21.200995 99.0399538,21.7601923 C99.5378343,22.315209 100.046893,22.8606104 100.568222,23.4921321 C100.383576,23.5172993 100.292891,23.539791 100.202123,23.5402926 C99.6282663,23.5437207 99.0543254,23.5360284 98.4806366,23.5455602 C98.2670792,23.5491555 98.1156307,23.4816806 97.9735112,23.3176338 C97.2170253,22.4443896 96.4304515,21.5963127 95.6949768,20.7061789 C95.392332,20.3399582 95.085485,20.1284197 94.5984462,20.1923829 C94.3507666,20.2248244 94.0951869,20.1937207 93.8434731,20.2004097 C93.7360641,20.2031689 93.6292433,20.229005 93.5037647,20.2471488 L93.5037647,23.5110284 L91.5508192,23.5110284 L91.5508192,13.485694 C91.6971409,13.485694 91.8449754,13.4855268 91.99281,13.4857776 C93.5323399,13.4878679 95.07229,13.4683863 96.6113996,13.4979013 C98.3929781,13.5322659 99.798961,14.7116137 99.9670503,16.4773328 C100.059752,17.4500753 99.8564475,18.326413 99.1992184,19.0729013 C98.8391711,19.4819314 98.3812959,19.7375334 97.8617318,19.8922993 C97.7580207,19.9232358 97.6582598,19.9670485 97.5005079,20.0257441" id="Fill-7" fill="#777777"></path>
                <path d="M83.5061578,18.4000167 C83.6028092,18.4144816 83.6696247,18.4330435 83.7364402,18.4331271 C84.6583259,18.4339632 85.5802957,18.4289465 86.5020974,18.4333935 C86.792976,18.4347993 87.047127,18.3387291 87.2948906,18.202107 C88.0513765,17.7850502 88.2765321,16.5843813 87.7254513,15.9171572 C87.404737,15.5286957 87.0046844,15.3208361 86.4928525,15.3227592 C85.5849182,15.3262709 84.6770679,15.3202508 83.7691336,15.3208361 C83.6888709,15.3209197 83.6087764,15.3405686 83.5061578,15.3541137 L83.5061578,18.4000167 Z M87.4931519,20.0162375 C88.0379293,20.6281104 88.5478282,21.1957525 89.0517599,21.768495 C89.5425807,22.3264381 90.0516391,22.87 90.516238,23.4493478 C90.4986726,23.4802843 90.4811073,23.5111371 90.4634579,23.5420736 L89.7171414,23.5420736 C89.3111217,23.5420736 88.9046818,23.531204 88.4993345,23.5464214 C88.2675393,23.5551171 88.1128131,23.4752676 87.9615328,23.3000167 C87.178909,22.3932441 86.3690548,21.5093813 85.5997941,20.5917391 C85.3504336,20.2942475 85.0980475,20.1592977 84.7116943,20.1910702 C84.3245846,20.2228428 83.9329366,20.19801 83.49893,20.19801 C83.4598492,21.3116388 83.4922064,22.3924916 83.4795997,23.4749331 C83.2174645,23.5600502 82.1230351,23.5788629 81.5880068,23.5054515 C81.5101815,23.2066221 81.4875735,14.0664047 81.5672478,13.5208361 C81.6530574,13.5097993 81.7461789,13.4874749 81.8391322,13.4874749 C83.4351401,13.486806 85.0313161,13.4743478 86.6271559,13.4957525 C87.6191349,13.5091304 88.4822734,13.864398 89.1612701,14.607291 C89.5455223,15.0277759 89.8046319,15.5171572 89.8994343,16.0773579 C90.0215511,16.7990134 90.0172649,17.5182441 89.7456326,18.2137291 C89.437693,19.0024415 88.8573647,19.5142308 88.0762537,19.8156522 C87.9077442,19.8806187 87.7346122,19.9336288 87.4931519,20.0162375 L87.4931519,20.0162375 Z" id="Fill-9" fill="#777777"></path>
                <path d="M79.6004601,17.4772659 L79.6004601,19.2431522 C79.1504011,19.3119649 78.7063932,19.2683194 78.2662513,19.2758445 C77.8184615,19.2836204 77.3703354,19.2775167 76.9223774,19.2775167 L75.6204418,19.2775167 L74.2647175,19.2775167 L74.2647175,21.6856271 L79.7562789,21.6856271 L79.7562789,23.4667308 C79.4675856,23.5595401 72.9553859,23.590393 72.3490879,23.503102 C72.2633623,23.2138043 72.238317,14.0584532 72.3218574,13.5486706 C72.6349237,13.468403 79.3038666,13.4554431 79.7541778,13.5401421 L79.7541778,15.318403 C79.4058127,15.3816973 79.044925,15.338888 78.6886598,15.346413 C78.3248305,15.3539381 77.960665,15.3480853 77.5967517,15.3480853 L76.4628213,15.3480853 L75.3708292,15.3480853 L74.2630366,15.3480853 L74.2630366,17.4772659 L79.6004601,17.4772659 Z" id="Fill-11" fill="#777777"></path>
                <path d="M106.36663,15.7348829 C105.793109,17.1509365 105.146806,18.4342977 104.613795,19.836388 L105.807061,19.836388 C106.197868,19.836388 106.58918,19.8475084 106.979568,19.8332107 C107.345162,19.8197492 107.718572,19.8957525 108.131988,19.7700836 C107.546197,18.431204 106.97545,17.126689 106.36663,15.7348829 M111.864327,23.5082943 C111.741622,23.5228428 111.661527,23.5402341 111.581348,23.5404849 C110.995221,23.5429097 110.409178,23.5417391 109.823807,23.5417391 C109.575455,23.0065385 109.325926,22.5093813 109.114554,21.9966722 C109.004539,21.729699 108.872673,21.6100502 108.56154,21.6133946 C106.980156,21.6303679 105.398436,21.6211706 103.804193,21.6211706 C103.551639,22.1709197 103.293706,22.7068729 103.060061,23.2531104 C102.970302,23.4631438 102.854068,23.5528595 102.620508,23.546087 C102.116996,23.5314548 101.612645,23.5430769 101.108545,23.5404013 C101.042654,23.5401505 100.976847,23.5194983 100.910367,23.5082107 C100.903224,23.4475084 100.882044,23.4002676 100.896248,23.3686622 C102.368374,20.0830435 103.843189,16.7986789 105.328427,13.4903177 C105.971956,13.4903177 106.599854,13.4921572 107.227836,13.4893099 C107.424164,13.4883946 107.484592,13.629699 107.547794,13.7709197 C107.900445,14.5581271 108.250911,15.3463378 108.604319,16.1332107 C109.237343,17.5423244 109.871544,18.9511037 110.506165,20.3595485 C110.923111,21.2848829 111.343334,22.208796 111.757422,23.1353846 C111.805748,23.2436622 111.824321,23.3652341 111.864327,23.5082943" id="Fill-13" fill="#777777"></path>
                <path d="M60.5654146,13.5395819 C60.6827409,13.5192642 60.7749379,13.4902508 60.867387,13.4894983 C61.4411598,13.4848997 62.0151007,13.4939298 62.5886214,13.4825585 C62.8322668,13.4777926 62.9648893,13.5578094 63.0545649,13.7976923 C63.502607,14.9961037 63.9647685,16.1894147 64.4320567,17.3805518 C64.8732911,18.505301 65.3270482,19.6251171 65.7866884,20.7754515 C65.9664599,20.6636622 65.9896562,20.4895819 66.045714,20.3459365 C66.9001959,18.1583946 67.7526608,15.9700167 68.5960489,13.7782107 C68.6795052,13.5613211 68.7929655,13.4758696 69.0266096,13.481388 C69.6140817,13.4952676 70.202058,13.4855686 70.7898663,13.4885786 C70.8698768,13.4890803 70.9498033,13.5083946 71.0903259,13.5270401 C71.0456982,13.681388 71.0214093,13.8117391 70.9714868,13.9314716 C70.1269221,15.9593144 69.2774829,17.9853177 68.432582,20.0131605 C68.0367317,20.9634114 67.6754238,21.9289632 67.2483089,22.8649164 C66.8794369,23.6731104 67.1604822,23.529214 66.2785177,23.5411706 C65.8445951,23.5470234 65.4105886,23.5354013 64.9769182,23.5447659 C64.7653778,23.5493645 64.6450259,23.4690134 64.5644271,23.2715217 C64.0547803,22.0225251 63.5381578,20.7763712 63.0196024,19.5309699 C62.7950351,18.9917559 62.555844,18.4584783 62.3315288,17.9191806 C61.7605295,16.5462709 61.1936483,15.171689 60.6273555,13.7967726 C60.5976037,13.7245318 60.5897035,13.6432609 60.5654146,13.5395819" id="Fill-15" fill="#777777"></path>
                <g id="Group-19" transform="translate(118.250821, 28.453846)">
                    <mask id="mask-2" fill="white">
                        <use xlink:href="#path-1"></use>
                    </mask>
                    <g id="Clip-18"></g>
                    <path d="M0.0778925804,0.13590301 C0.234972029,0.109732441 0.327169009,0.081722408 0.419450033,0.0809698997 C0.979691661,0.0767892977 1.54010138,0.0843979933 2.10017492,0.0758695652 C2.30314274,0.0727759197 2.4365216,0.137157191 2.5449392,0.316337793 C3.02735548,1.11441472 3.52010926,1.90638796 4.01345135,2.69785953 C4.30012764,3.15772575 4.59487223,3.61249164 4.92029311,4.12344482 C5.03392147,3.96600334 5.134691,3.84301003 5.21730689,3.70889632 C5.68476323,2.95028428 6.14709284,2.1885786 6.61261615,1.42879599 C6.84533578,1.04886288 7.08578752,0.673528428 7.31321234,0.290585284 C7.38263322,0.173695652 7.4552478,0.0843979933 7.60030886,0.0848160535 C8.25829442,0.0869899666 8.91619593,0.0891638796 9.57418148,0.0954347826 C9.60838766,0.0957692308 9.64242574,0.133394649 9.72016704,0.179632107 C9.62948286,0.3490301 9.55359054,0.52319398 9.45013158,0.679130435 C8.67137387,1.85170569 7.88765752,3.02076923 7.10461353,4.19050167 C6.77171267,4.68799331 6.4421736,5.18799331 6.10044806,5.67954849 C5.96690112,5.87168896 5.90748155,6.06934783 5.90882626,6.3032107 C5.91496152,7.41792642 5.91008693,8.53272575 5.90916244,9.64752508 C5.9090784,9.78498328 5.90916244,9.9226087 5.90916244,10.0502843 C5.61307315,10.148612 4.51460959,10.1704348 3.97395036,10.0897492 C3.96714274,9.96683946 3.95352751,9.83389632 3.95335942,9.70095318 C3.95193066,8.58623746 3.94848483,7.47143813 3.95630098,6.35672241 C3.95823401,6.09526756 3.89276323,5.87762542 3.7432478,5.65688963 C2.64209481,4.03122074 1.55253999,2.39769231 0.461556402,0.765083612 C0.339187393,0.58180602 0.231526198,0.388745819 0.0778925804,0.13590301" id="Fill-17" fill="#777777" mask="url(#mask-2)"></path>
                </g>
                <path d="M117.832976,28.5810953 L117.832976,30.3969816 L114.677015,30.3969816 C114.648776,31.3509114 114.666594,32.2516639 114.6634,33.1517475 C114.660206,34.0433863 114.662728,34.9349415 114.662728,35.8265803 L114.662728,38.5182191 C114.265281,38.6109448 113.045961,38.6100251 112.713732,38.5172157 L112.713732,30.4254933 C111.648298,30.3695569 110.618583,30.4266639 109.599542,30.3911288 C109.494654,30.0939716 109.471122,29.1740719 109.54777,28.6060117 C109.839826,28.5164632 117.249874,28.4881187 117.832976,28.5810953" id="Fill-20" fill="#777777"></path>
                <path d="M42.7254587,28.4754348 C43.0532328,27.6775251 43.3788218,26.8859699 43.7038225,26.0941639 C44.0884108,25.1567057 44.4714863,24.2186622 44.8570831,23.2815385 C45.0579498,22.7932441 45.2673891,22.3084615 45.4632972,21.8182441 C45.56642,21.5603846 45.707615,21.4151505 46.021942,21.4385619 C46.4395598,21.4698328 46.8612959,21.4454181 47.281267,21.4487625 C47.6649308,21.4517726 47.7649439,21.5362207 47.8990792,21.8745151 C48.3027456,22.892408 48.7096058,23.909214 49.1283162,24.921087 C49.6016557,26.0656522 50.0895349,27.2041973 50.5689255,28.3462542 C50.5837174,28.3813712 50.5748927,28.4261873 50.5769098,28.4644816 C50.2620785,28.5646488 48.378722,28.5730936 47.9885867,28.4744314 C47.785703,27.8945819 47.5869374,27.3034448 47.3718671,26.7183278 C47.1583097,26.1373077 46.9282794,25.5622241 46.6656399,24.881204 C46.547221,25.1609699 46.4614955,25.3432441 46.3918225,25.5314548 C46.0588376,26.4316221 45.7277857,27.3325418 45.4018605,28.2352174 C45.3326077,28.4270234 45.2242742,28.5423244 45.0080273,28.5411538 C44.294068,28.5373913 43.5801928,28.5381438 42.8663175,28.5339632 C42.8294219,28.533796 42.7927785,28.5043645 42.7254587,28.4754348" id="Fill-22" fill="#777777"></path>
                <path d="M0,21.4770067 C0.180780039,21.4622074 0.289617859,21.4459866 0.398539724,21.4456522 C1.01467104,21.4436455 1.63080236,21.4438127 2.24693368,21.4465719 C2.5921891,21.4480769 2.59706369,21.4493311 2.70590151,21.7501672 C3.02300197,22.6257525 3.33262246,23.5040134 3.65216021,24.3787625 C3.72796848,24.5864548 3.83075509,24.7846154 3.94102167,25.0314381 C4.20861983,24.662291 4.28131845,24.2544314 4.42394222,23.8772575 C4.57648326,23.4738294 4.72860407,23.0703177 4.8813132,22.6669732 C5.0288956,22.2772575 5.17715036,21.8878763 5.34364281,21.4493311 C6.18097965,21.4429766 7.02302298,21.4425585 7.90196192,21.4518395 C7.75690085,21.836204 7.64478529,22.1619565 7.51224688,22.4793478 C7.04672357,23.5937291 6.5703585,24.7036789 6.10567564,25.8183946 C5.80092974,26.5497492 5.50862246,27.2862876 5.21219698,28.0210702 C5.02452528,28.4859532 4.94695207,28.5393813 4.43133815,28.5401338 C3.94186211,28.5408027 3.45247012,28.540301 2.92937623,28.540301 C1.95966907,26.2021739 0.993743926,23.8730769 0,21.4770067" id="Fill-24" fill="#777777"></path>
                <g id="Group-28" transform="translate(27.314511, 42.500669)">
                    <mask id="mask-4" fill="white">
                        <use xlink:href="#path-3"></use>
                    </mask>
                    <g id="Clip-27"></g>
                    <path d="M2.46002889,7.44150502 C2.37783322,7.25413043 2.28361917,7.07227425 2.2172239,6.88080268 C2.08544189,6.50028428 1.96584636,6.11541806 1.84767958,5.73038462 C1.79498359,5.55889632 1.73211819,5.38397993 1.72346159,5.20822742 C1.71825082,5.1011204 1.78355351,4.9670903 1.86037032,4.88540134 C1.96290479,4.77620401 2.11174787,4.71173913 2.23319238,4.61826087 C2.93883125,4.07570234 3.64447012,3.53289298 4.344478,2.9830602 C4.44734865,2.90212375 4.5204675,2.78347826 4.65191333,2.630301 C4.46188838,2.61717391 4.34187262,2.60471572 4.22152068,2.6011204 C3.20197505,2.57026756 2.18251346,2.53765886 1.16279974,2.51399666 C0.945460276,2.50897993 0.786027577,2.4608194 0.713917269,2.22963211 C0.491703217,1.51692308 0.260076165,0.806973244 0.0223978989,0.0655016722 C0.129134603,0.048361204 0.206119501,0.0218561873 0.281171372,0.0263712375 C0.629200263,0.0472742475 0.97680893,0.0750334448 1.32424951,0.103712375 C1.61554826,0.12770903 1.90634274,0.158227425 2.19755745,0.182809365 C3.15617072,0.263578595 4.11478398,0.345267559 5.07381747,0.422441472 C5.8388759,0.484063545 6.60418647,0.544598662 7.3701694,0.594431438 C7.57523835,0.607892977 7.69357321,0.657307692 7.7526566,0.884481605 C7.87830335,1.36767559 8.0393329,1.84242475 8.20044649,2.31558528 C8.27608667,2.53765886 8.20599343,2.6601505 8.02874327,2.80864548 C6.95263559,3.71006689 5.89358897,4.63172241 4.82395272,5.54091973 C4.09284833,6.16232441 3.35417991,6.77503344 2.61702429,7.38966555 C2.58819698,7.41366221 2.5407958,7.41575251 2.46002889,7.44150502" id="Fill-26" fill="#777777" mask="url(#mask-4)"></path>
                </g>
                <path d="M36.4968005,2.13918896 C36.3219877,2.68609532 36.1686902,3.16034281 36.0190907,3.63576087 C35.9445431,3.87313545 35.8609187,4.10950669 35.8117526,4.35248328 C35.7777145,4.51995819 35.6887112,4.59186455 35.5368425,4.61594482 C35.4819614,4.62464047 35.4253993,4.6248913 35.3695937,4.62647993 C34.3081098,4.6575 33.2465418,4.68793478 32.1850579,4.71937291 C32.0757999,4.72255017 31.966794,4.73141304 31.7708018,4.74253344 C31.9417487,4.90081104 32.0521833,5.02045987 32.179595,5.11828595 C32.9387703,5.70139632 33.7029883,6.27806856 34.4632562,6.85984114 C34.8378432,7.14646321 34.8512903,7.19646321 34.7121965,7.63224916 C34.547553,8.147801 34.3832457,8.66335284 34.2161649,9.17815217 C34.174815,9.30582776 34.1233796,9.43024247 34.0579089,9.60616221 C33.9280599,9.51485786 33.8382162,9.4602592 33.7581216,9.39403846 C33.1041702,8.8533194 32.4490422,8.31385452 31.8005536,7.76669732 C31.481184,7.49713211 31.1803041,7.20591137 30.861859,6.93509197 C30.0907493,6.27957358 29.3154374,5.62890468 28.5393691,4.97907191 C28.2600047,4.74512542 28.2271433,4.67062709 28.3337959,4.33810201 C28.5031459,3.81017559 28.6798077,3.2845903 28.8550408,2.75306856 C29.1721413,2.71176421 29.4598261,2.66678094 29.7491919,2.63843645 C30.1102477,2.60306856 30.4724801,2.57907191 30.8345445,2.55440635 C31.7393691,2.49295151 32.6450343,2.44286789 33.5490185,2.37129599 C34.3827414,2.30532609 35.2145313,2.21602843 36.0474978,2.14069398 C36.1694466,2.12965719 36.2934125,2.13918896 36.4968005,2.13918896" id="Fill-29" fill="#777777"></path>
                <path d="M43.6796596,42.6134615 C43.0660496,42.1760033 42.5159774,41.7977425 41.9818737,41.398495 C41.5519853,41.0770903 41.600395,41.1435619 41.7375559,40.6358696 C41.9761586,39.7521739 42.2477069,38.8774247 42.5015217,37.9979097 C42.5432919,37.8532609 42.5653957,37.70301 42.6109479,37.487291 C42.4674837,37.5285117 42.3566288,37.5336957 42.2785513,37.5867893 C41.4511317,38.1498328 40.6243005,38.7141304 39.8076386,39.2922241 C39.4702834,39.5310201 39.418764,39.5406355 39.0833418,39.293311 C38.5807548,38.9226589 38.0707719,38.5622074 37.564655,38.1961538 C37.5108664,38.1571906 37.4626248,38.1103679 37.3828664,38.0426421 C37.4606918,37.9583612 37.5105303,37.8748328 37.5840693,37.8294314 C38.3293773,37.3689799 39.0791396,36.9157191 39.8265487,36.4586957 C40.5739577,36.0016722 41.3203582,35.5429766 42.0665907,35.0842809 C42.5518645,34.7860368 43.0361297,34.486204 43.5208993,34.1872074 C43.7358014,34.0546823 43.9482663,34.0747492 44.1455191,34.2167224 C44.5296032,34.493311 44.9025933,34.7855351 45.2912998,35.0552676 C45.4569518,35.1702341 45.4952762,35.2939799 45.4472026,35.4809365 C45.2819708,36.1237458 45.122202,36.7679766 44.9695769,37.413796 C44.8259446,38.0216555 44.6998776,38.6335284 44.5555729,39.2412207 C44.3728599,40.0105351 44.1786327,40.7771739 43.9915493,41.5455686 C43.9489387,41.7203177 43.9243136,41.8999164 43.8746432,42.0724916 C43.8261494,42.2413043 43.7563083,42.4040134 43.6796596,42.6134615" id="Fill-31" fill="#777777"></path>
                <path d="M6.91373972,7.36045151 C7.40977124,7.70953177 7.86285594,8.0256689 8.31274695,8.34640468 C8.47125515,8.45944816 8.6134587,8.59698997 8.77843835,8.69882943 C8.94913303,8.80401338 8.99838319,8.92859532 8.94358608,9.11772575 C8.85122101,9.43704013 8.77843835,9.76212375 8.68456047,10.0809365 C8.46881786,10.8135452 8.24332607,11.5431438 8.0276675,12.2757525 C8.00632016,12.3483278 8.02480998,12.4326087 8.02480998,12.5736622 C8.16516454,12.4973244 8.2718172,12.4498328 8.36712383,12.385786 C9.23169114,11.8040134 10.0936531,11.2185619 10.9578842,10.6362876 C11.0889938,10.5479933 11.2358198,10.4795987 11.3854193,10.5858696 C12.0177712,11.0355351 12.6462571,11.4905518 13.3124791,11.9697324 C13.199439,12.0493311 13.1272446,12.1063545 13.0492512,12.1541806 C12.4922033,12.4964047 11.9351554,12.8384615 11.3760063,13.1771739 C10.4839564,13.7176421 9.58879685,14.2527592 8.69809166,14.7954013 C8.16407196,15.1207358 7.63055653,15.4478261 7.10830309,15.7913043 C6.9054193,15.9248328 6.74346527,15.9485786 6.54108575,15.7958194 C6.15355588,15.5031773 5.75921838,15.2180602 5.35370295,14.9505853 C5.15325647,14.8183946 5.11778963,14.6652174 5.17225056,14.45301 C5.3208415,13.8747492 5.46758345,13.295903 5.60575286,12.7151338 C5.82401681,11.7971572 6.0274889,10.8755017 6.25071149,9.95861204 C6.45670492,9.11312709 6.68034773,8.27190635 6.91373972,7.36045151" id="Fill-33" fill="#777777"></path>
                <path d="M20.864084,2.5083612e-05 C21.0053631,0.425025084 21.125631,0.791580268 21.2490085,1.15704849 C21.3469206,1.44718227 21.4471018,1.73647993 21.5487958,2.02527592 C21.6694839,2.36766722 21.6456152,2.44132943 21.3592751,2.66147993 C20.5435378,3.28873746 19.7292292,3.91791806 18.915845,4.54818562 C18.8407932,4.6063796 18.7761628,4.67803512 18.6669888,4.7807107 C18.7889376,4.82544314 18.8691162,4.87343645 18.9532449,4.88179766 C19.1057859,4.89709866 19.2608483,4.8862291 19.4147341,4.89082776 C20.3365358,4.9181689 21.2581694,4.95244983 22.1801392,4.97084448 C22.3952935,4.97502508 22.5230414,5.05788462 22.5932186,5.25019231 C22.6027157,5.27627926 22.6172554,5.30077759 22.6255758,5.327199 C22.8408142,6.0147408 23.0553802,6.70236622 23.280956,7.4244398 C23.1579146,7.43940635 23.06639,7.46574415 22.9774708,7.45897157 C21.9480079,7.38062709 20.9187131,7.3008612 19.8900066,7.21440635 C18.6946395,7.11390468 17.5012055,6.9675 16.3038214,6.92017559 C15.7930821,6.90002508 15.5453185,6.75127926 15.4432882,6.2612291 C15.3615128,5.86883779 15.2136783,5.4897408 15.0892922,5.10654682 C15.0339068,4.93581104 15.0876953,4.83096154 15.2271254,4.71515886 C16.0073959,4.06733278 16.7765726,3.40621237 17.5502035,2.75035953 C18.208021,2.19275084 18.8666789,1.63606187 19.5249166,1.07895485 C19.8747945,0.782884615 20.2232436,0.485392977 20.5751385,0.191998328 C20.6474169,0.131797659 20.7323861,0.0867307692 20.864084,2.5083612e-05" id="Fill-35" fill="#777777"></path>
                <path d="M8.04357715,37.5182692 C8.04357715,37.3604097 8.0647564,37.2631689 8.04029941,37.1789716 C7.74227708,36.1518813 7.44299409,35.1250418 7.12992777,34.1023829 C7.07000394,33.9064799 7.11505187,33.7888378 7.27162705,33.6752926 C7.81262246,33.2828177 8.34647406,32.8807274 8.88763756,32.488587 C9.08245305,32.3472826 9.19045043,32.3823997 9.24902955,32.6129181 C9.39963756,33.2046405 9.53646225,33.799791 9.68026264,34.3932692 C9.84717531,35.0823997 10.0177859,35.7707776 10.1828496,36.4604097 C10.4285962,37.4871656 10.6703086,38.5149247 10.9151307,39.5418478 C10.9479081,39.6790552 10.9169796,39.7771321 10.7936021,39.8630853 C10.3820355,40.1500418 9.97912541,40.4492057 9.56991202,40.7393395 C9.36543139,40.8844064 9.16069862,40.8757943 8.94554432,40.7410953 C7.98920026,40.1420151 7.03142745,39.5446906 6.06886408,38.9553094 C5.38037032,38.5336538 4.68237951,38.1270485 3.99069206,37.7103261 C3.64552068,37.5023829 3.3037111,37.2888378 2.96391858,37.0721154 C2.90979383,37.0375836 2.87483125,36.9732023 2.80641891,36.8942726 C3.28177544,36.5499582 3.73981878,36.2175167 4.19887065,35.8863294 C4.25534865,35.8456104 4.31939068,35.8153428 4.37536441,35.7740385 C4.85962968,35.4169314 4.85937754,35.4163462 5.37297439,35.7616639 C6.19299803,36.3131689 7.01276953,36.8650084 7.83354957,37.41551 C7.87666448,37.4443562 7.92742745,37.4619147 8.04357715,37.5182692" id="Fill-37" fill="#777777"></path>
                <path d="M47.8389705,13.0758779 C47.1530821,13.5700251 46.5022403,14.039005 45.7983664,14.5461957 C45.6426316,14.4590719 45.4454629,14.3649247 45.2654393,14.2451087 C44.4104531,13.6761288 43.5603414,13.0998746 42.7078766,12.5271321 C42.6745949,12.5047241 42.6348418,12.491597 42.5476875,12.450209 C42.6178647,13.119607 42.8797479,13.7010452 43.0406934,14.3067308 C43.2045804,14.9231187 43.373258,15.5382525 43.5498359,16.1908445 C43.2707236,16.386413 42.9982508,16.5732023 42.7302324,16.7660953 C42.426411,16.9847408 42.123262,17.2046405 41.8256599,17.4316472 C41.5216704,17.6634197 41.4485515,17.6380017 41.3602206,17.2798077 C41.0944714,16.2018813 40.8167039,15.1266304 40.5535601,14.0480351 C40.3924465,13.3875836 40.2511674,12.7223662 40.0983743,12.059908 C39.983065,11.5601589 39.8781773,11.0573161 39.7396717,10.5639214 C39.6754616,10.3351589 39.7303427,10.199791 39.9165016,10.0711957 C40.3741248,9.75547659 40.8234274,9.42788462 41.2746632,9.10606187 C41.6700932,9.1812291 47.3687406,12.7480351 47.8389705,13.0758779" id="Fill-39" fill="#777777"></path>
                <path d="M14.1482274,47.7757692 C14.3786779,47.0475084 14.595429,46.3616388 14.8129366,45.6759365 C14.8943758,45.4193311 14.9551401,45.3730936 15.2308066,45.3590468 C15.3145991,45.3547826 15.3988118,45.359214 15.4827724,45.3567057 C16.4606319,45.3289465 17.4384074,45.3018562 18.4160988,45.2701672 C18.5081276,45.2672408 18.599064,45.2343813 18.7129445,45.2108027 C18.6884034,45.0295318 18.5656142,44.9592977 18.4592137,44.878194 C17.6846582,44.2871405 16.9085058,43.6983445 16.1357153,43.1050334 C15.7668433,42.8217559 15.7626411,42.7503512 15.9156864,42.329699 C16.0671349,41.9137291 16.1880751,41.4866388 16.3232189,41.0647324 C16.3902865,40.8555351 16.4592872,40.6470067 16.5402222,40.3991806 C16.658473,40.4621405 16.7486529,40.4918227 16.8156365,40.5485117 C17.6011178,41.2145652 18.3822288,41.8858027 19.1662813,42.5533612 C20.1706148,43.4085452 21.1725951,44.2664047 22.1859215,45.1108863 C22.3555236,45.2521906 22.3963693,45.3876421 22.3308144,45.5802843 C22.1791139,46.027107 22.0202695,46.4718395 21.8824362,46.92301 C21.8115026,47.1552843 21.6850154,47.2631438 21.4368315,47.279699 C20.2671821,47.3579599 19.097953,47.4430769 17.9294802,47.5373077 C17.1229878,47.6023579 16.3181762,47.6889799 15.512188,47.7601338 C15.1230613,47.7945819 14.732842,47.8180769 14.3427068,47.8402341 C14.2930364,47.8430769 14.2410968,47.8078763 14.1482274,47.7757692" id="Fill-41" fill="#777777"></path>
                <path d="M98.2962091,28.5573328 L100.202342,28.5573328 C100.211503,29.1196237 100.205619,29.6576672 100.206628,30.1953763 C100.207721,30.7386037 100.20688,31.2817475 100.20688,31.8249749 L100.20688,33.4127676 L100.20688,35.0424498 L100.20688,36.720209 C101.03161,36.7391054 101.825076,36.7267308 102.618037,36.7289047 C103.39982,36.7312458 104.181604,36.7294064 104.9886,36.7294064 L104.9886,38.5651087 L98.30932,38.5651087 C98.2352767,38.3137709 98.207542,29.117199 98.2962091,28.5573328" id="Fill-43" fill="#777777"></path>
                <mask id="mask-6" fill="white">
                    <use xlink:href="#path-5"></use>
                </mask>
                <g id="Clip-46"></g>
                <polygon id="Fill-45" fill="#777777" mask="url(#mask-6)" points="94.0578963 38.563796 96.086566 38.563796 96.086566 28.5580268 94.0578963 28.5580268"></polygon>
                <path d="M108.259114,38.5747742 L106.326339,38.5747742 C106.304572,38.5514465 106.294906,38.541413 106.285577,38.5309615 C106.276417,38.5207609 106.259944,38.5102258 106.259944,38.4997742 C106.250363,35.3279515 106.241622,32.1561288 106.23405,28.9843896 C106.233722,28.8607274 106.244564,28.7371488 106.249942,28.6214298 C106.547965,28.5143227 107.703747,28.4915803 108.207258,28.5764465 C108.301388,28.8886538 108.346604,37.0893227 108.259114,38.5747742" id="Fill-47" fill="#777777" mask="url(#mask-6)"></path>
            </g>
        </g>
    </g>
</svg>