
<svg width="60px" height="58px" viewBox="0 0 60 58" version="1.1" xmlns="http://www.w3.org/2000/svg" xmlns:xlink="http://www.w3.org/1999/xlink">
    <g id="Page-1" stroke="none" stroke-width="1" fill="none" fill-rule="evenodd">
        <g id="02a_solution_page" transform="translate(-761.000000, -1877.000000)">
            <g id="Group-11" transform="translate(761.000000, 1877.000000)">
                <rect id="Rectangle-Copy-5" fill-rule="nonzero" x="0" y="0" width="60" height="60"></rect>
                <g id="icon-winning-performance" transform="translate(1.000000, 1.000000)" stroke="#007278" stroke-linecap="round" stroke-linejoin="round" stroke-width="2">
                    <path d="M0.24975,55.7391304 L57.74975,55.7391304" id="Stroke-1"></path>
                    <path d="M10.24,55.7391304 L10.24,44.3913043 C10.24,43.6953043 9.68,43.1304348 8.99,43.1304348 L3.99,43.1304348 C3.3,43.1304348 2.74,43.6953043 2.74,44.3913043 L2.74,55.7391304" id="Stroke-3"></path>
                    <path d="M25.24,55.7391304 L25.24,31.7826087 C25.24,31.0866087 24.68,30.5217391 23.99,30.5217391 L18.99,30.5217391 C18.3,30.5217391 17.74,31.0866087 17.74,31.7826087 L17.74,55.7391304" id="Stroke-5"></path>
                    <path d="M40.24,55.7391304 L40.24,36.826087 C40.24,36.130087 39.68,35.5652174 38.99,35.5652174 L33.99,35.5652174 C33.3,35.5652174 32.74,36.130087 32.74,36.826087 L32.74,55.7391304" id="Stroke-7"></path>
                    <path d="M55.24,55.7391304 L55.24,19.173913 C55.24,18.477913 54.68,17.9130435 53.99,17.9130435 L48.99,17.9130435 C48.3,17.9130435 47.74,18.477913 47.74,19.173913 L47.74,55.7391304" id="Stroke-9"></path>
                    <path d="M52.74,0.260869565 L38.69,15.5325217 C37.355,16.9850435 35.3,17.5146087 33.44,16.8866957 L24.1425,13.7572174 C22.4975,13.2049565 20.69,13.5504348 19.36,14.6675652 L6.49,25.4782609" id="Stroke-11"></path>
                    <polyline id="Stroke-13" points="42.74975 0.260869565 52.74975 0.260869565 52.74975 10.3478261"></polyline>
                </g>
            </g>
        </g>
    </g>
</svg>