<?xml version="1.0" encoding="UTF-8"?>
<svg width="100px" height="100px" viewBox="0 0 100 100" version="1.1" xmlns="http://www.w3.org/2000/svg" xmlns:xlink="http://www.w3.org/1999/xlink">
    <!-- Generator: Sketch 47.1 (45422) - http://www.bohemiancoding.com/sketch -->
    <title>icon-facebook</title>
    <desc>Created with Sketch.</desc>
    <defs></defs>
    <g id="Pages" stroke="none" stroke-width="1" fill="none" fill-rule="evenodd">
        <g id="icon-facebook" fill-rule="nonzero" fill="#FFFFFF">
            <g id="hollow-cut-facebook">
                <path d="M50,0 C22.4,0 0,22.4 0,50 C0,77.6 22.4,100 50,100 C77.6,100 100,77.6 100,50 C100,22.4 77.6,0 50,0 Z M57,36.9 C60.5,36.9 64.2,36.8 67.7,37 C67.6,40.7 67.7,44.6 67.6,48.3 C64.1,48.3 60.5,48.3 57,48.3 C57,60 57,71.6 57,83.3 C52,83.3 47,83.3 42,83.3 C42,71.6 42,60 42,48.3 C38.9,48.2 35.6,48.3 32.4,48.2 C32.4,44.4 32.4,40.6 32.4,36.8 C35.6,36.8 38.8,36.8 41.9,36.8 C42,33.8 41.9,31.1 42.1,28.7 C42.3,26.3 43.1,24.3 44.2,22.6 C46.4,19.4 50,16.8 54.9,16.6 C58.9,16.4 63.4,16.7 67.7,16.7 C67.7,20.5 67.8,24.4 67.6,28.1 C65.5,28.2 63.3,27.9 61.5,28.1 C59.6,28.3 58.2,29.4 57.6,30.8 C56.7,32.5 57,34.6 57,36.9 Z" id="Shape"></path>
            </g>
        </g>
    </g>
</svg>