<?xml version="1.0" encoding="UTF-8"?>
<svg width="100px" height="100px" viewBox="0 0 100 100" version="1.1" xmlns="http://www.w3.org/2000/svg" xmlns:xlink="http://www.w3.org/1999/xlink">
    <!-- Generator: Sketch 47.1 (45422) - http://www.bohemiancoding.com/sketch -->
    <title>icon-linkedin</title>
    <desc>Created with Sketch.</desc>
    <defs></defs>
    <g id="Pages" stroke="none" stroke-width="1" fill="none" fill-rule="evenodd">
        <g id="icon-linkedin" fill-rule="nonzero" fill="#FFFFFF">
            <g id="hollow-cut-linkedin">
                <path d="M50,0 C22.4,0 0,22.4 0,50 C0,77.6 22.4,100 50,100 C77.6,100 100,77.6 100,50 C100,22.4 77.6,0 50,0 Z M36,75.3 C32.5,75.3 29,75.3 25.5,75.3 C25.5,64.1 25.5,52.9 25.5,41.7 C25.5,41.6 25.5,41.5 25.6,41.5 C29.1,41.5 32.6,41.5 36.1,41.5 C36,52.7 36,64 36,75.3 Z M27.3,35.9 C25.7,34.8 24.4,32.5 24.7,29.8 C25,27.8 26.4,26.1 27.9,25.3 C28.4,25 29.1,24.8 29.9,24.8 C33.9,24.3 36.9,27.1 36.9,30.9 C36.8,35.5 31.5,38.7 27.3,35.9 Z M75.4,75.3 C71.9,75.3 68.4,75.3 64.9,75.3 C64.9,71.5 64.9,67.5 64.9,63.2 C64.9,58.1 65.6,52.2 62.1,50.4 C60.4,49.5 58.1,49.8 56.6,50.4 C52.8,52.1 53.1,57.5 53.1,63.4 C53.1,67.5 53.1,71.8 53.1,75.3 C49.6,75.3 46.1,75.3 42.6,75.3 C42.6,64 42.6,52.7 42.6,41.5 C46,41.5 49.3,41.5 52.7,41.5 C52.7,43 52.7,44.6 52.7,46.1 C53.1,45.8 53.2,45.4 53.5,45 C55.3,42.6 58.5,40.6 62.6,40.6 C67.8,40.6 71.5,42.4 73.4,45.7 C75.4,49.2 75.4,54.1 75.4,59.6 C75.4,64.7 75.4,70.3 75.4,75.3 Z" id="Shape"></path>
            </g>
        </g>
    </g>
</svg>