<?xml version="1.0" encoding="UTF-8"?>
<svg width="100px" height="100px" viewBox="0 0 100 100" version="1.1" xmlns="http://www.w3.org/2000/svg" xmlns:xlink="http://www.w3.org/1999/xlink">
    <!-- Generator: Sketch 47.1 (45422) - http://www.bohemiancoding.com/sketch -->
    <title>icon-twitter</title>
    <desc>Created with Sketch.</desc>
    <defs></defs>
    <g id="Pages" stroke="none" stroke-width="1" fill="none" fill-rule="evenodd">
        <g id="icon-twitter" fill-rule="nonzero" fill="#FFFFFF">
            <g id="hollow-cut-twitter">
                <path d="M50,0 C22.4,0 0,22.4 0,50 C0,77.6 22.4,100 50,100 C77.6,100 100,77.6 100,50 C100,22.4 77.6,0 50,0 Z M76.7,36.4 C77,45.5 74.4,52.8 71,58.5 C67.7,64.1 63.2,68.6 57.8,71.8 C52.4,75.1 45.2,77.5 36.7,77.2 C28.8,77 22.5,74.7 17.4,71.6 C17.1,71.4 16.7,71.2 16.5,70.9 C25.3,71.9 32,69 36.8,65.3 C33.3,65.2 30.6,64 28.6,62.3 C26.6,60.7 24.9,58.5 24,55.7 C25.8,56.1 28.4,56 30,55.5 C26.7,54.8 24.3,53 22.4,50.8 C20.5,48.7 19.2,45.8 19.2,41.8 C19.3,41.6 19.6,41.9 19.8,42 C21.3,42.7 23.2,43.3 25.3,43.4 C21.9,41 18.5,36.4 19.5,29.9 C19.8,28 20.4,26.4 21.2,25 C22.1,25.9 22.9,26.9 23.8,27.8 C30,34 38,38.5 49.6,39.4 C48,32.3 51.7,27 56.2,24.4 C58.7,23 62.2,22.3 65.6,23 C68.7,23.6 71.1,25.2 72.9,27 C76.3,26.4 79,25.1 81.6,23.7 C80.4,27 78.5,29.6 75.6,31.2 C78.4,31 81.1,30 83.4,29.1 C81.7,32 79.3,34.3 76.7,36.4 Z" id="Shape"></path>
            </g>
        </g>
    </g>
</svg>